<svg width="414" height="422" viewBox="0 0 414 422" fill="none" xmlns="http://www.w3.org/2000/svg">
<path fill-rule="evenodd" clip-rule="evenodd" d="M437.365 -0.286786L0.367864 -9.99994L-7.31761 335.772C-7.32404 335.975 -7.32954 336.179 -7.33411 336.385C-7.33868 336.59 -7.34227 336.795 -7.3449 336.999L-7.46777 342.527L-7.1717 342.534C-2.74182 399.898 83.5614 413.391 189.507 415.746C295.312 418.098 419.285 409.096 429.062 352.23L429.53 352.241L437.365 -0.286786Z" fill="#9AD4C6" fill-opacity="0.8"/>
<path fill-rule="evenodd" clip-rule="evenodd" d="M245.809 313.112C238.945 302.991 235 291.152 235 278.5C235 241.221 269.25 211 311.5 211C353.75 211 388 241.221 388 278.5C388 315.779 353.75 346 311.5 346C298.195 346 285.684 343.003 274.786 337.733L241.6 349.353L245.809 313.112Z" fill="#9AD4C6"/>
<path d="M260.765 264.22H276.76V268.21H265.175V274.72H276.095V278.71H265.175V289H260.765V264.22ZM283.838 282.07C283.978 283.33 284.468 284.31 285.308 285.01C286.148 285.71 287.163 286.06 288.353 286.06C289.403 286.06 290.278 285.85 290.978 285.43C291.701 284.987 292.331 284.438 292.868 283.785L295.878 286.06C294.898 287.273 293.801 288.137 292.588 288.65C291.374 289.163 290.103 289.42 288.773 289.42C287.513 289.42 286.323 289.21 285.203 288.79C284.083 288.37 283.114 287.775 282.298 287.005C281.481 286.235 280.828 285.313 280.338 284.24C279.871 283.143 279.638 281.93 279.638 280.6C279.638 279.27 279.871 278.068 280.338 276.995C280.828 275.898 281.481 274.965 282.298 274.195C283.114 273.425 284.083 272.83 285.203 272.41C286.323 271.99 287.513 271.78 288.773 271.78C289.939 271.78 291.001 271.99 291.958 272.41C292.938 272.807 293.766 273.39 294.443 274.16C295.143 274.93 295.679 275.887 296.053 277.03C296.449 278.15 296.648 279.445 296.648 280.915V282.07H283.838ZM292.448 278.92C292.424 277.683 292.039 276.715 291.293 276.015C290.546 275.292 289.508 274.93 288.178 274.93C286.918 274.93 285.914 275.292 285.168 276.015C284.444 276.738 284.001 277.707 283.838 278.92H292.448ZM300.575 262.54H304.775V274.335H304.88C305.09 274.055 305.359 273.775 305.685 273.495C306.012 273.192 306.409 272.912 306.875 272.655C307.342 272.398 307.879 272.188 308.485 272.025C309.092 271.862 309.792 271.78 310.585 271.78C311.775 271.78 312.872 272.013 313.875 272.48C314.879 272.923 315.73 273.542 316.43 274.335C317.154 275.128 317.714 276.062 318.11 277.135C318.507 278.208 318.705 279.363 318.705 280.6C318.705 281.837 318.519 282.992 318.145 284.065C317.772 285.138 317.224 286.072 316.5 286.865C315.777 287.658 314.902 288.288 313.875 288.755C312.849 289.198 311.694 289.42 310.41 289.42C309.22 289.42 308.112 289.187 307.085 288.72C306.059 288.253 305.242 287.507 304.635 286.48H304.565V289H300.575V262.54ZM314.505 280.6C314.505 279.947 314.389 279.317 314.155 278.71C313.945 278.103 313.619 277.567 313.175 277.1C312.755 276.633 312.242 276.26 311.635 275.98C311.029 275.7 310.34 275.56 309.57 275.56C308.8 275.56 308.112 275.7 307.505 275.98C306.899 276.26 306.374 276.633 305.93 277.1C305.51 277.567 305.184 278.103 304.95 278.71C304.74 279.317 304.635 279.947 304.635 280.6C304.635 281.253 304.74 281.883 304.95 282.49C305.184 283.097 305.51 283.633 305.93 284.1C306.374 284.567 306.899 284.94 307.505 285.22C308.112 285.5 308.8 285.64 309.57 285.64C310.34 285.64 311.029 285.5 311.635 285.22C312.242 284.94 312.755 284.567 313.175 284.1C313.619 283.633 313.945 283.097 314.155 282.49C314.389 281.883 314.505 281.253 314.505 280.6ZM322.621 262.54H326.821V274.335H326.926C327.136 274.055 327.405 273.775 327.731 273.495C328.058 273.192 328.455 272.912 328.921 272.655C329.388 272.398 329.925 272.188 330.531 272.025C331.138 271.862 331.838 271.78 332.631 271.78C333.821 271.78 334.918 272.013 335.921 272.48C336.925 272.923 337.776 273.542 338.476 274.335C339.2 275.128 339.76 276.062 340.156 277.135C340.553 278.208 340.751 279.363 340.751 280.6C340.751 281.837 340.565 282.992 340.191 284.065C339.818 285.138 339.27 286.072 338.546 286.865C337.823 287.658 336.948 288.288 335.921 288.755C334.895 289.198 333.74 289.42 332.456 289.42C331.266 289.42 330.158 289.187 329.131 288.72C328.105 288.253 327.288 287.507 326.681 286.48H326.611V289H322.621V262.54ZM336.551 280.6C336.551 279.947 336.435 279.317 336.201 278.71C335.991 278.103 335.665 277.567 335.221 277.1C334.801 276.633 334.288 276.26 333.681 275.98C333.075 275.7 332.386 275.56 331.616 275.56C330.846 275.56 330.158 275.7 329.551 275.98C328.945 276.26 328.42 276.633 327.976 277.1C327.556 277.567 327.23 278.103 326.996 278.71C326.786 279.317 326.681 279.947 326.681 280.6C326.681 281.253 326.786 281.883 326.996 282.49C327.23 283.097 327.556 283.633 327.976 284.1C328.42 284.567 328.945 284.94 329.551 285.22C330.158 285.5 330.846 285.64 331.616 285.64C332.386 285.64 333.075 285.5 333.681 285.22C334.288 284.94 334.801 284.567 335.221 284.1C335.665 283.633 335.991 283.097 336.201 282.49C336.435 281.883 336.551 281.253 336.551 280.6ZM344.667 272.2H348.867V274.86H348.937C349.404 273.88 350.069 273.122 350.932 272.585C351.795 272.048 352.787 271.78 353.907 271.78C354.164 271.78 354.409 271.803 354.642 271.85C354.899 271.897 355.155 271.955 355.412 272.025V276.085C355.062 275.992 354.712 275.922 354.362 275.875C354.035 275.805 353.709 275.77 353.382 275.77C352.402 275.77 351.609 275.957 351.002 276.33C350.419 276.68 349.964 277.088 349.637 277.555C349.334 278.022 349.124 278.488 349.007 278.955C348.914 279.422 348.867 279.772 348.867 280.005V289H344.667V272.2ZM361.015 282.07C361.155 283.33 361.645 284.31 362.485 285.01C363.325 285.71 364.34 286.06 365.53 286.06C366.58 286.06 367.455 285.85 368.155 285.43C368.879 284.987 369.509 284.438 370.045 283.785L373.055 286.06C372.075 287.273 370.979 288.137 369.765 288.65C368.552 289.163 367.28 289.42 365.95 289.42C364.69 289.42 363.5 289.21 362.38 288.79C361.26 288.37 360.292 287.775 359.475 287.005C358.659 286.235 358.005 285.313 357.515 284.24C357.049 283.143 356.815 281.93 356.815 280.6C356.815 279.27 357.049 278.068 357.515 276.995C358.005 275.898 358.659 274.965 359.475 274.195C360.292 273.425 361.26 272.83 362.38 272.41C363.5 271.99 364.69 271.78 365.95 271.78C367.117 271.78 368.179 271.99 369.135 272.41C370.115 272.807 370.944 273.39 371.62 274.16C372.32 274.93 372.857 275.887 373.23 277.03C373.627 278.15 373.825 279.445 373.825 280.915V282.07H361.015ZM369.625 278.92C369.602 277.683 369.217 276.715 368.47 276.015C367.724 275.292 366.685 274.93 365.355 274.93C364.095 274.93 363.092 275.292 362.345 276.015C361.622 276.738 361.179 277.707 361.015 278.92H369.625Z" fill="white"/>
<path fill-rule="evenodd" clip-rule="evenodd" d="M45 300C41.134 300 38 303.134 38 307V353C38 356.866 41.134 360 45 360H162.262L160.953 360.67L185.811 374.061L187.65 360H188C191.866 360 195 356.866 195 353V307C195 303.134 191.866 300 188 300H45Z" fill="#14A0BD"/>
<path d="M89.78 318.22H93.595L104.27 343H99.23L96.92 337.33H86.175L83.935 343H79L89.78 318.22ZM95.38 333.55L91.565 323.47L87.68 333.55H95.38ZM104.679 329.77V326.2H108.144V321.335H112.344V326.2H116.964V329.77H112.344V337.12C112.344 337.96 112.495 338.625 112.799 339.115C113.125 339.605 113.755 339.85 114.689 339.85C115.062 339.85 115.47 339.815 115.914 339.745C116.357 339.652 116.707 339.512 116.964 339.325V342.86C116.52 343.07 115.972 343.21 115.319 343.28C114.689 343.373 114.129 343.42 113.639 343.42C112.519 343.42 111.597 343.292 110.874 343.035C110.174 342.802 109.614 342.44 109.194 341.95C108.797 341.437 108.517 340.807 108.354 340.06C108.214 339.313 108.144 338.45 108.144 337.47V329.77H104.679ZM123.602 336.07C123.742 337.33 124.232 338.31 125.072 339.01C125.912 339.71 126.927 340.06 128.117 340.06C129.167 340.06 130.042 339.85 130.742 339.43C131.466 338.987 132.096 338.438 132.632 337.785L135.642 340.06C134.662 341.273 133.566 342.137 132.352 342.65C131.139 343.163 129.867 343.42 128.537 343.42C127.277 343.42 126.087 343.21 124.967 342.79C123.847 342.37 122.879 341.775 122.062 341.005C121.246 340.235 120.592 339.313 120.102 338.24C119.636 337.143 119.402 335.93 119.402 334.6C119.402 333.27 119.636 332.068 120.102 330.995C120.592 329.898 121.246 328.965 122.062 328.195C122.879 327.425 123.847 326.83 124.967 326.41C126.087 325.99 127.277 325.78 128.537 325.78C129.704 325.78 130.766 325.99 131.722 326.41C132.702 326.807 133.531 327.39 134.207 328.16C134.907 328.93 135.444 329.887 135.817 331.03C136.214 332.15 136.412 333.445 136.412 334.915V336.07H123.602ZM132.212 332.92C132.189 331.683 131.804 330.715 131.057 330.015C130.311 329.292 129.272 328.93 127.942 328.93C126.682 328.93 125.679 329.292 124.932 330.015C124.209 330.738 123.766 331.707 123.602 332.92H132.212ZM149.3 330.855C148.507 329.712 147.41 329.14 146.01 329.14C145.45 329.14 144.902 329.28 144.365 329.56C143.828 329.84 143.56 330.295 143.56 330.925C143.56 331.438 143.782 331.812 144.225 332.045C144.668 332.278 145.228 332.477 145.905 332.64C146.582 332.803 147.305 332.978 148.075 333.165C148.868 333.328 149.603 333.597 150.28 333.97C150.957 334.32 151.517 334.81 151.96 335.44C152.403 336.07 152.625 336.933 152.625 338.03C152.625 338.87 152.473 339.593 152.17 340.2C151.867 340.807 151.458 341.332 150.945 341.775C150.432 342.195 149.837 342.533 149.16 342.79C148.507 343.023 147.818 343.187 147.095 343.28L145.835 345.1C146.348 345.1 146.85 345.123 147.34 345.17C147.853 345.217 148.308 345.333 148.705 345.52C149.125 345.73 149.452 346.022 149.685 346.395C149.942 346.792 150.07 347.328 150.07 348.005C150.07 348.635 149.907 349.172 149.58 349.615C149.277 350.058 148.892 350.408 148.425 350.665C147.958 350.922 147.433 351.108 146.85 351.225C146.267 351.342 145.718 351.4 145.205 351.4C143.875 351.4 142.638 351.073 141.495 350.42L142.265 348.81C143.152 349.277 144.108 349.51 145.135 349.51C145.322 349.51 145.532 349.487 145.765 349.44C145.998 349.393 146.208 349.312 146.395 349.195C146.605 349.102 146.78 348.95 146.92 348.74C147.06 348.553 147.13 348.32 147.13 348.04C147.13 347.573 146.92 347.247 146.5 347.06C146.103 346.873 145.718 346.78 145.345 346.78C145.112 346.78 144.89 346.803 144.68 346.85C144.47 346.897 144.26 346.955 144.05 347.025L143.105 346.15L144.96 343.42C143.747 343.373 142.627 343.163 141.6 342.79C140.573 342.393 139.652 341.74 138.835 340.83L141.635 338.205C142.172 338.812 142.743 339.313 143.35 339.71C143.98 340.083 144.738 340.27 145.625 340.27C145.928 340.27 146.243 340.235 146.57 340.165C146.897 340.095 147.2 339.978 147.48 339.815C147.76 339.652 147.982 339.453 148.145 339.22C148.332 338.963 148.425 338.672 148.425 338.345C148.425 337.762 148.203 337.33 147.76 337.05C147.317 336.77 146.757 336.548 146.08 336.385C145.403 336.198 144.668 336.035 143.875 335.895C143.105 335.732 142.382 335.487 141.705 335.16C141.028 334.81 140.468 334.332 140.025 333.725C139.582 333.118 139.36 332.278 139.36 331.205C139.36 330.272 139.547 329.467 139.92 328.79C140.317 328.09 140.83 327.518 141.46 327.075C142.09 326.632 142.813 326.305 143.63 326.095C144.447 325.885 145.275 325.78 146.115 325.78C147.235 325.78 148.343 325.978 149.44 326.375C150.537 326.748 151.423 327.402 152.1 328.335L149.3 330.855Z" fill="white"/>
<path fill-rule="evenodd" clip-rule="evenodd" d="M179.262 226.565C186.081 217.688 190 207.303 190 196.206C190 163.507 155.974 137 114 137C72.0264 137 38 163.507 38 196.206C38 228.905 72.0264 255.412 114 255.412C127.218 255.412 139.647 252.783 150.474 248.161L183.443 258.353L179.262 226.565Z" fill="#F28F8F"/>
<path d="M71.765 185.22H87.76V189.21H76.175V195.72H87.095V199.71H76.175V210H71.765V185.22ZM94.8377 203.07C94.9777 204.33 95.4677 205.31 96.3077 206.01C97.1477 206.71 98.1627 207.06 99.3527 207.06C100.403 207.06 101.278 206.85 101.978 206.43C102.701 205.987 103.331 205.438 103.868 204.785L106.878 207.06C105.898 208.273 104.801 209.137 103.588 209.65C102.374 210.163 101.103 210.42 99.7727 210.42C98.5127 210.42 97.3227 210.21 96.2027 209.79C95.0827 209.37 94.1143 208.775 93.2977 208.005C92.481 207.235 91.8277 206.313 91.3377 205.24C90.871 204.143 90.6377 202.93 90.6377 201.6C90.6377 200.27 90.871 199.068 91.3377 197.995C91.8277 196.898 92.481 195.965 93.2977 195.195C94.1143 194.425 95.0827 193.83 96.2027 193.41C97.3227 192.99 98.5127 192.78 99.7727 192.78C100.939 192.78 102.001 192.99 102.958 193.41C103.938 193.807 104.766 194.39 105.443 195.16C106.143 195.93 106.679 196.887 107.053 198.03C107.449 199.15 107.648 200.445 107.648 201.915V203.07H94.8377ZM103.448 199.92C103.424 198.683 103.039 197.715 102.293 197.015C101.546 196.292 100.508 195.93 99.1777 195.93C97.9177 195.93 96.9143 196.292 96.1677 197.015C95.4443 197.738 95.001 198.707 94.8377 199.92H103.448ZM109.3 193.2H113.885L118.365 204.96H118.435L122.95 193.2H127.255L120.64 210H116.16L109.3 193.2ZM133.085 203.07C133.225 204.33 133.715 205.31 134.555 206.01C135.395 206.71 136.41 207.06 137.6 207.06C138.65 207.06 139.525 206.85 140.225 206.43C140.948 205.987 141.578 205.438 142.115 204.785L145.125 207.06C144.145 208.273 143.048 209.137 141.835 209.65C140.621 210.163 139.35 210.42 138.02 210.42C136.76 210.42 135.57 210.21 134.45 209.79C133.33 209.37 132.361 208.775 131.545 208.005C130.728 207.235 130.075 206.313 129.585 205.24C129.118 204.143 128.885 202.93 128.885 201.6C128.885 200.27 129.118 199.068 129.585 197.995C130.075 196.898 130.728 195.965 131.545 195.195C132.361 194.425 133.33 193.83 134.45 193.41C135.57 192.99 136.76 192.78 138.02 192.78C139.186 192.78 140.248 192.99 141.205 193.41C142.185 193.807 143.013 194.39 143.69 195.16C144.39 195.93 144.926 196.887 145.3 198.03C145.696 199.15 145.895 200.445 145.895 201.915V203.07H133.085ZM141.695 199.92C141.671 198.683 141.286 197.715 140.54 197.015C139.793 196.292 138.755 195.93 137.425 195.93C136.165 195.93 135.161 196.292 134.415 197.015C133.691 197.738 133.248 198.707 133.085 199.92H141.695ZM149.822 193.2H154.022V195.86H154.092C154.559 194.88 155.224 194.122 156.087 193.585C156.951 193.048 157.942 192.78 159.062 192.78C159.319 192.78 159.564 192.803 159.797 192.85C160.054 192.897 160.311 192.955 160.567 193.025V197.085C160.217 196.992 159.867 196.922 159.517 196.875C159.191 196.805 158.864 196.77 158.537 196.77C157.557 196.77 156.764 196.957 156.157 197.33C155.574 197.68 155.119 198.088 154.792 198.555C154.489 199.022 154.279 199.488 154.162 199.955C154.069 200.422 154.022 200.772 154.022 201.005V210H149.822V193.2Z" fill="white"/>
<path fill-rule="evenodd" clip-rule="evenodd" d="M208.304 139.112C201.126 128.991 197 117.152 197 104.5C197 67.2208 232.817 37 277 37C321.183 37 357 67.2208 357 104.5C357 141.779 321.183 172 277 172C263.087 172 250.003 169.003 238.606 163.733L203.902 175.353L208.304 139.112Z" fill="#14A0BD" fill-opacity="0.66"/>
<path d="M266.54 125.35C264.977 125.35 263.775 124.988 262.935 124.265C262.095 123.518 261.675 122.387 261.675 120.87V104.21C261.675 102.903 261.85 101.935 262.2 101.305C262.573 100.675 262.993 100.185 263.46 99.835L263.425 99.695H258L258.98 95.915H270.11V99.695C269.247 99.695 268.5 99.975 267.87 100.535C267.24 101.095 266.925 102.122 266.925 103.615V120.24C266.925 121.103 267.333 121.535 268.15 121.535C268.5 121.535 268.897 121.453 269.34 121.29L269.83 124.65C268.943 125.117 267.847 125.35 266.54 125.35ZM279.331 125.455C276.718 125.455 274.746 124.872 273.416 123.705C272.086 122.538 271.421 120.835 271.421 118.595V117.195C271.421 116.238 271.549 115.457 271.806 114.85C272.063 114.22 272.378 113.648 272.751 113.135C273.124 112.622 273.428 112.167 273.661 111.77C273.918 111.35 274.046 110.918 274.046 110.475C274.046 110.055 273.941 109.763 273.731 109.6C273.544 109.413 273.288 109.32 272.961 109.32C272.541 109.32 272.028 109.46 271.421 109.74L270.581 106.45C271.234 106.1 271.934 105.867 272.681 105.75C273.451 105.61 274.128 105.54 274.711 105.54C276.251 105.54 277.336 105.913 277.966 106.66C278.619 107.383 278.946 108.363 278.946 109.6C278.946 110.323 278.841 110.965 278.631 111.525C278.421 112.062 278.153 112.622 277.826 113.205C277.523 113.742 277.243 114.243 276.986 114.71C276.753 115.177 276.636 115.853 276.636 116.74V118.14C276.636 119.283 276.869 120.112 277.336 120.625C277.826 121.115 278.503 121.36 279.366 121.36C281.163 121.36 282.061 120.345 282.061 118.315V105.82H287.276V118.455C287.276 120.765 286.599 122.515 285.246 123.705C283.893 124.872 281.921 125.455 279.331 125.455ZM276.691 103.195V101.445C277.018 101.352 277.38 101.223 277.776 101.06C278.173 100.897 278.523 100.675 278.826 100.395C279.13 100.115 279.281 99.765 279.281 99.345C279.281 99.0183 279.188 98.7617 279.001 98.575C278.815 98.3883 278.581 98.295 278.301 98.295C278.115 98.295 277.916 98.33 277.706 98.4C277.496 98.47 277.31 98.54 277.146 98.61L276.481 96.265C276.948 95.8683 277.531 95.6117 278.231 95.495C278.908 95.355 279.48 95.285 279.946 95.285C280.996 95.285 281.825 95.53 282.431 96.02C283.015 96.51 283.306 97.2333 283.306 98.19C283.306 98.7967 283.131 99.3333 282.781 99.8H288.136V103.195H276.691Z" fill="white"/>
</svg>
