<?xml version="1.0" encoding="utf-8"?>
<!-- Generator: Adobe Illustrator 24.1.2, SVG Export Plug-In . SVG Version: 6.00 Build 0)  -->
<svg version="1.1" id="Lager_1" xmlns="http://www.w3.org/2000/svg" xmlns:xlink="http://www.w3.org/1999/xlink" x="0px" y="0px"
	 viewBox="0 0 288 560" style="enable-background:new 0 0 288 560;" xml:space="preserve">
<style type="text/css">
	.st0{fill:none;stroke:#666666;stroke-width:7;stroke-linecap:round;stroke-linejoin:round;stroke-miterlimit:10;}
	.st1{fill:#E6E6E6;}
	.st2{fill:#E0E0E0;}
	.st3{fill:#F28F8F;}
	.st4{fill:#37474F;}
	.st5{fill:#263238;}
	.st6{fill:#455A64;}
	.st7{fill:#27DEBF;}
	.st8{opacity:0.6;fill:#FFFFFF;enable-background:new    ;}
	.st9{fill:#FAFAFA;}
	.st10{fill:#F5F5F5;}
	.st11{fill:#EBEBEB;}
	.st12{fill:#F0F0F0;}
	.st13{opacity:0.35;enable-background:new    ;}
	.st14{opacity:0.25;enable-background:new    ;}
	.st15{opacity:0.2;}
	.st16{opacity:0.2;enable-background:new    ;}
	.st17{opacity:0.1;}
	.st18{opacity:0.1;enable-background:new    ;}
	.st19{fill:#2CB5D1;}
	.st20{opacity:0.15;enable-background:new    ;}
	.st21{opacity:0.3;enable-background:new    ;}
	.st22{opacity:0.4;enable-background:new    ;}
	.st23{fill:#B16668;}
</style>
<path class="st0" d="M183.32,319.93"/>
<path class="st1" d="M143.17,195.55c5.34,0.15,6.86,2.29,10.08,6.89c3.22,4.6,14.18,22.04,14.18,22.04l15.52,5.96l-2.04,9.06
	c0,0-13.14-2.62-19.86-4c-2.2-0.45-3.19-1.29-4.22-2.87c-0.86-1.31-9.49-14.89-9.49-14.89L143.17,195.55z"/>
<path class="st2" d="M139.07,195.7c5.06-1.26,7.29,1.56,8.97,4.65c2.69,4.94,4.31,15.03,4.54,33.47
	c0.15,11.86,4.27,26.19,5.01,37.44c1.1,16.9,1.64,30.06,1.64,30.06s-14.47-2.05-30.16-1.77L139.07,195.7z"/>
<path class="st3" d="M109.94,367.66c0,0-3.03-20.75-1.76-32.91c1.09-10.44,2.62-14.81,2.84-17.18c0,0,1.75-24.5,1.28-45.25
	c-0.23-9.84,0.28-20.69,7.28-32.29l0.25-0.46c0.62,3.8,6.48,6.27,11.71,6.85c5.04,0.56,11.32-0.45,18.81-2.99
	c1.67,9.84,3.57,28.59,5.51,49.04c0.95,9.99,0.78,18.4,0.95,24.82c0.22,8.72-0.57,42.86-0.57,42.86l0.01,1.44
	c0.05,1.59,0.44,2.7,1.55,5.23c1.13,2.56,3.15,6.21,5.75,8.84c0.75,0.76,5.91,4.98,6.61,5.9c2.24,2.44-2.18,4.01-5.51,3.68
	c-3.51-0.35-8.99-1.5-10.61-3.58c-1.07-1.39-2.01-6.33-3.11-7.74c-3.72-4.73-5.25-6.77-5.33-8.32c-0.14-2.8,0.79-3.94,1.08-5.53
	c-0.4-3.3-7.09-20.54-7.53-30.17c-0.21-4.59,0.8-12.72,0.8-12.72l-5.88-33.45c-1.3,9.41-3.79,30.6-4.69,37.35
	c-1.24,9.29-5.82,25.01-8.72,37.35c-1.09,4.64-1.63,6.71-1.89,9.73c0,0.01-0.07,1.08-0.07,1.09c-0.03,1.37-0.14,15.99-0.58,19.09
	c-0.92,6.47-6.66,5.85-7.75,0.68c-0.93-4.4-0.41-18.15-0.44-19.83L109.94,367.66z"/>
<path class="st4" d="M109.75,367.57c-1.61,0.08-0.34,6.29-0.63,10.32c-0.3,4.32-1.61,7.51-1.9,11.06c-0.33,4.05,0.09,5.73,1.64,9
	c1.21,2.54,6.98,5.89,9.01,2.13c2.05-3.81,2.35-7.99,1.97-12c-0.39-4.14-0.74-7.17-0.93-10.33c-0.17-2.78,1.76-9.39-0.34-9.72
	l-0.07,1.09c-0.7,1.53-7.83,2.8-8.77-0.06L109.75,367.57z"/>
<path class="st5" d="M145.17,368.89c-0.43,2.03,0.27,7.53,0.27,7.53s0.93,1.87,4.08,3.04l1.14-7.72L145.17,368.89z"/>
<path d="M149.52,379.46l6.78-2.48l1.44-6.13l-7.56,4.15L149.52,379.46z"/>
<path class="st4" d="M156.05,361.5l-0.01-1.44c0.94,0.42,3.24,7.84,6.18,12.89c2.68,4.61,7.78,7.05,9.47,9.04
	c2.27,2.66-1.84,6.32-8.68,5.09c-3.39-0.61-8.56-2.59-10.02-4.82c-1.46-2.23-2.06-6.38-3.25-8.02c-1.19-1.63-3.94-3.47-4.57-5.35
	c-0.35-1.03-0.68-3.34-0.16-5.25c0.47-1.75,0.87-3.86,1.47-3.69l0.08,1.31c0.49,0.91,2.16,1.93,5.59,2.01
	C153.79,363.31,155.36,363,156.05,361.5z"/>
<path class="st6" d="M138.24,333.56c-0.68-8.45,0.57-15.78,0.57-15.78l-4.94-32.9c0,0-3.37,31.32-3.93,36.17
	c-0.56,4.86-9.59,57.22-9.59,57.22c-4.62,2.74-10.54,1.87-14.4-0.18c0.02-21.18,0.66-42.4,1.43-48.26
	c0.61-4.67,2.74-11.87,2.74-11.87s0.49-30.89,0.46-42.62c-0.03-11.72,0.86-19.57,3.09-24.85c2.23-5.27,6.15-11,6.15-11
	s1.72,5.78,15.3,5.8c13.58,0.02,15.08-3.43,15.08-3.43s3.97,13.89,5.3,34.87c1.07,16.91,1.31,24.6,1.63,32.13
	c0.27,6.42,0.44,13.84,0.59,26.81c0.11,9.79,1.5,31.32,1.5,31.32s-6.63,3.48-17.58-0.49C141.65,366.51,138.92,342.01,138.24,333.56z
	"/>
<path class="st4" d="M133.87,284.88l2.69-19.89c0,0,5.59-0.22,10.39-5.03c0,0-1.51,4.82-7.89,7.52l-3.6,17.46l2.63,28.02
	L133.87,284.88z"/>
<path class="st7" d="M127.52,197.08l-6.4,0.68c-4.24,1.04-6.16,2.91-6.6,6.67c-0.2,1.75-1.26,6.42,0.22,12.26
	c1.35,5.29,4.93,18.25,4.93,18.25s-4.64,11.66-6.84,17.58c15.09,9.84,33.71,5.95,39.97,0c-0.53-5.63-2.52-10.87-2.97-15.9
	c0,0,0.33-7.84,0.95-11.25c4.77-5.21,4.16-10.19,2.02-14.21c-3.96-7.42-9.92-13.94-11.85-13.93L127.52,197.08z"/>
<path class="st8" d="M127.52,197.08l-6.4,0.68c-4.24,1.04-6.16,2.91-6.6,6.67c-0.2,1.75-1.26,6.42,0.22,12.26
	c1.35,5.29,4.93,18.25,4.93,18.25s-4.64,11.66-6.84,17.58c15.09,9.84,33.71,5.95,39.97,0c-0.53-5.63-2.52-10.87-2.97-15.9
	c0,0,0.33-7.84,0.95-11.25c4.77-5.21,4.16-10.19,2.02-14.21c-3.96-7.42-9.92-13.94-11.85-13.93L127.52,197.08z"/>
<path class="st9" d="M127.16,197.08c0,0,5.27,13.86,6.47,23.25c1.2,9.4-2.92,37.81-3.56,54.64c-0.47,12.26-1.62,29.91-1.62,29.91
	s-5.86,0.66-11.21-0.35c-6.2-1.17-8.11-2.18-11.65-4.5c0,0,3.06-30.78,4.57-42.75c1.42-11.27,7.47-22.37,7.47-22.37l-7.28-30.13
	c0,0,0.36-5.08,5.14-6.5C120.04,196.93,127.16,197.08,127.16,197.08z"/>
<path class="st10" d="M117.84,225.24c0,0,0.99-3.59,2.35-9.71c1.37-6.12,1.15-9.67,0.68-12.35l-7.91,11.58l4.66,20.15v0.01
	c0,0-4.98,9.14-6.97,19.24c4.76-13.48,9.98-17.53,9.98-17.53L117.84,225.24z"/>
<path class="st11" d="M126.94,192.62c-0.77-0.16-1.46,0.18-2.08,1.24c-0.63,1.07-2.01,3.32-2.01,3.32s-0.71,7.46,0,9.31
	c0.62,1.62,7.44,7.66,7.44,7.66s-1.78,6.7-1.84,8.9c-0.06,2.2,4.23,10.55,4.71,14.82c0,0,1.35-13.43,0.72-18.25
	c-1.1-8.39-5.04-19.21-6.89-22.65L126.94,192.62z"/>
<path class="st3" d="M110.79,277.04c-1.01-1.93-1-3.32-2.58-5.08c-0.59-0.65-0.99-1.21-1.38-2.57c-0.44-1.52-0.33-3.09-0.38-4.73
	l-9.06,0.13c-0.07,3.01-0.48,7.34,0.09,10.56c1.44,8.13,3.05,11.59,6.46,12.53c5.45,1.51,6.92-0.8,5.18-4.87
	c-1.29-3.01-1.52-5.33-1.52-5.33c0.92,1.04,1.33,1.52,1.97,1.93c1.27,0.82,2.3,0.27,2.63-0.16
	C112.46,279.12,111.58,278.55,110.79,277.04z"/>
<path class="st12" d="M119.63,197.48c0,0-5.86-0.37-9.29,2.44s-5.56,10.65-8.08,18.49c-2.52,7.84-4.77,15.47-5.6,20.97
	c-0.69,4.6,0.21,28.93,0.21,28.93s5.18,0.73,10.48-1.86l2.45-25.95l9.82-26.65C119.63,213.86,122.67,206.27,119.63,197.48z"/>
<path class="st7" d="M125.17,214.1c0.03-0.58-0.05-1.84-0.16-3.43c-0.49-7.76-0.72-14.78,1.9-15.34l0.23,1.07
	c-1.92,0.41-1.28,10.43-1.04,14.2c0.1,1.62,0.18,2.9,0.16,3.54L125.17,214.1z"/>
<path class="st6" d="M123.61,240.04c-0.03,0-0.06,0-0.09,0l0.03-0.77c0.68,0.02,1.62-0.36,2.51-0.93c-0.83-0.57-1.58-1.24-2.09-1.89
	c-1.23-1.59-3.93-12.99-3.1-15.64c0.7-2.23,2.88-7.13,4.83-7.22c0.02,0,0.03,0,0.05,0c1.94,0,4.5,4.64,5.38,6.78
	c1.06,2.58-0.67,14.16-1.76,15.85c-0.45,0.7-1.14,1.43-1.92,2.06c0.94,0.5,1.88,0.8,2.58,0.72l0.09,0.76
	c-0.94,0.12-2.18-0.3-3.35-0.97C125.7,239.53,124.54,240.04,123.61,240.04z M125.75,214.35c-0.01,0-0.02,0-0.02,0
	c-1.14,0.05-3.2,3.69-4.13,6.68c-0.77,2.44,1.83,13.47,2.98,14.95c0.5,0.65,1.29,1.33,2.16,1.88c0.81-0.62,1.54-1.37,1.99-2.06
	c1.02-1.57,2.67-12.78,1.7-15.14C129.24,217.78,126.91,214.35,125.75,214.35z"/>
<path class="st5" d="M131.19,239.33c0.03,0.62-0.46,1.15-1.08,1.17c-0.62,0.03-1.15-0.46-1.17-1.08c-0.03-0.62,0.46-1.15,1.08-1.17
	S131.17,238.71,131.19,239.33z"/>
<path class="st5" d="M124.65,239.61c0.03,0.62-0.46,1.15-1.08,1.17c-0.62,0.03-1.15-0.46-1.17-1.08c-0.03-0.62,0.46-1.15,1.08-1.17
	C124.1,238.51,124.63,238.99,124.65,239.61z"/>
<path class="st7" d="M131.31,225.39l-0.65-0.04c-0.14-0.01-0.24-0.13-0.23-0.27c0.13-2.14,0.06-3.72-0.2-4.35
	c-1.13-2.76-3.48-6.23-4.5-6.19c-1.02,0.04-3.06,3.7-3.96,6.55c-0.2,0.65-0.14,2.23,0.17,4.35c0.02,0.14-0.07,0.27-0.21,0.29
	l-0.64,0.1c-0.14,0.02-0.27-0.08-0.29-0.22c-0.35-2.38-0.4-4.01-0.13-4.86c0.48-1.53,2.73-7.25,5.01-7.35c2.27-0.1,5,5.42,5.61,6.9
	c0.34,0.82,0.43,2.45,0.28,4.85C131.57,225.29,131.45,225.4,131.31,225.39z"/>
<path class="st7" d="M192.37,216.24l-29.05,10.25l-8,34.57l0.65,0.69l27.62-10.31l9.43-34.51L192.37,216.24z"/>
<path class="st13" d="M163.97,227.18l-8,34.57l-0.65-0.69l8-34.57L163.97,227.18z"/>
<path class="st14" d="M193.02,216.93l-29.05,10.25l-8,34.57l27.62-10.31L193.02,216.93z"/>
<g class="st15">
	<path class="st16" d="M179.27,244.41c0.27,0.68,2.49,2.17,5.72,1.91l0.55-2L179.27,244.41z"/>
</g>
<g class="st17">
	<path class="st18" d="M184.27,224.01c0,0,0.11-0.52,0.24-1.16s-1.57-0.3-3.81,0.75l-5.24,1.59c-2.24,1.05-4.35,1.84-4.48,2.48
		l-0.24,1.16L184.27,224.01z"/>
</g>
<path class="st4" d="M185.99,218.77c0.08-0.4-0.58-0.32-1.51-0.07l-1.67,0.57c0,0,0.68-1.68-3.28-0.61
	c-4.36,1.18-4.45,3.36-4.45,3.36s-0.5,0.24-2.09,0.76c-1.45,0.47-1.61,0.75-1.72,1.16l-0.21,0.74l14.81-5.22
	C185.86,219.45,185.91,219.17,185.99,218.77z"/>
<path class="st4" d="M184.44,220.99c-1.37,0.62-1.94,0.93-2.15,1.91c-0.23,1.13-0.28,1.6-0.28,1.6l-7.71,3.04
	c0,0,0.42-1.66,0.52-2.21c0.1-0.55-0.92-0.56-2.25,0.06l0.32-1.38l11.99-4.46L184.44,220.99z"/>
<path class="st4" d="M184.67,224.03c0,0,0.11-0.52,0.24-1.16c0.13-0.64-1.57-0.3-3.81,0.75l-5.24,1.59
	c-2.24,1.06-4.35,1.84-4.48,2.48l-0.24,1.16L184.67,224.03z"/>
<path class="st3" d="M189.79,228.76c0,0-1.03,3.79-1.3,4.75c-0.27,0.96-5.03,3.15-7.41,3.45c-4.56,0.57-5.07,1.56-3.98,4.79
	c1.01,2.98,3.98,4.11,8.09,3.62c1.93-0.23,4.59-1.94,5.64-4.93c1.33-3.81,0.62-7.88,1.15-10.11
	C192.51,228.11,190.95,227.43,189.79,228.76z"/>
<path class="st19" d="M140.53,201.19h-24.55v-28.81c0-9.43,7.65-17.07,17.07-17.07h1.67c9.43,0,17.07,7.64,17.07,17.07v17.55
	C151.8,196.15,146.75,201.19,140.53,201.19z"/>
<path class="st20" d="M140.53,201.19h-24.55v-28.81c0-9.43,7.65-17.07,17.07-17.07h1.67c9.43,0,17.07,7.64,17.07,17.07v17.55
	C151.8,196.15,146.75,201.19,140.53,201.19z"/>
<path class="st19" d="M122.91,218.43h-0.5v-23.21h10.67v13.04C133.08,213.88,128.53,218.43,122.91,218.43z"/>
<path class="st21" d="M122.91,218.43h-0.5v-23.21h10.67v13.04C133.08,213.88,128.53,218.43,122.91,218.43z"/>
<path class="st3" d="M145.93,164.44c2.41,1.73,3.22,3.7,2.97,14.71c-0.22,9.33-3.23,11.64-4.75,12.3c-1.52,0.66-4.44,0.26-7.28-0.21
	v6.61c0,0,1.21,0.78,1.88,3.27c0.19,0.7-2.1,1.77-7.75,1c-4.41-0.6-5.83-3.81-5.83-3.81v-13.52v-7.34c0,0,0.04-8.46,6.07-11.78
	C137.29,162.35,142.98,163.14,145.93,164.44z"/>
<path class="st19" d="M125.18,177.45c0,0,5.53-9.87,13.58-11.08c8.05-1.21,9.83,2.84,9.83,2.84s-1.02-9.14-9.83-8.9
	C126.62,160.64,125.18,169.94,125.18,177.45z"/>
<path class="st22" d="M125.18,177.45c0,0,5.53-9.87,13.58-11.08c8.05-1.21,9.83,2.84,9.83,2.84s-1.02-9.14-9.83-8.9
	C126.62,160.64,125.18,169.94,125.18,177.45z"/>
<path d="M136.95,176.81c0.03,0.67-0.46,1.24-1.11,1.27c-0.65,0.03-1.2-0.49-1.23-1.16c-0.03-0.67,0.46-1.24,1.11-1.27
	C136.36,175.62,136.91,176.14,136.95,176.81z"/>
<path class="st23" d="M135.86,184.31l8.8,2.27c-0.74,2.04-3.29,3.18-5.72,2.55C136.49,188.51,135.12,186.35,135.86,184.31z"/>
<path d="M147.09,173.36l-2.37-1.65c0.43-0.68,1.31-0.86,1.97-0.4C147.34,171.76,147.52,172.68,147.09,173.36z"/>
<path d="M133.54,173.21l2.37-1.65c-0.43-0.68-1.31-0.86-1.97-0.4C133.29,171.61,133.11,172.53,133.54,173.21z"/>
<path d="M146.49,176.57c0.03,0.67-0.46,1.24-1.11,1.27c-0.65,0.03-1.2-0.49-1.23-1.16c-0.03-0.67,0.46-1.24,1.11-1.27
	C145.9,175.38,146.46,175.9,146.49,176.57z"/>
<path class="st23" d="M140.82,176.04l0.19,7.06l3.71-1.15L140.82,176.04z"/>
<path class="st23" d="M136.88,191.25c-2.99-0.39-9.15-2.17-10.11-4.61c0,0,0.32,1.53,2.16,3.11s7.95,3.36,7.95,3.36V191.25z"/>
<path class="st19" d="M140.67,192.48l-3.79-1.23c0,0.68-0.55,1.23-1.23,1.23h-5.93c-2.51,0-4.54-2.04-4.54-4.55l-3.77,4.55h-5.42
	v7.18c0,2.45,1.98,4.44,4.43,4.44h16.35c5.96,0,10.8-4.85,10.8-10.82v-0.8H140.67z"/>
<path class="st20" d="M140.67,192.48l-3.79-1.23c0,0.68-0.55,1.23-1.23,1.23h-5.93c-2.51,0-4.54-2.04-4.54-4.55l-3.77,4.55h-5.42
	v7.18c0,2.45,1.98,4.44,4.43,4.44h16.35c5.96,0,10.8-4.85,10.8-10.82v-0.8H140.67z"/>
</svg>
