<svg width="105" height="266" viewBox="0 0 105 266" fill="none" xmlns="http://www.w3.org/2000/svg">
<path d="M52.3898 265.809C81.0202 265.809 104.23 252.409 104.23 235.879C104.23 219.349 81.0202 205.949 52.3898 205.949C23.7594 205.949 0.549805 219.349 0.549805 235.879C0.549805 252.409 23.7594 265.809 52.3898 265.809Z" fill="#E0E0E0"/>
<path d="M51.51 40.2402C56.85 40.3902 58.37 42.5302 61.59 47.1302C64.81 51.7302 75.77 69.1702 75.77 69.1702L91.29 75.1302L89.25 84.1902C89.25 84.1902 76.11 81.5702 69.39 80.1902C67.19 79.7402 66.2 78.9002 65.17 77.3202C64.31 76.0102 55.68 62.4302 55.68 62.4302L51.51 40.2402Z" fill="#E6E6E6"/>
<path d="M47.4102 40.3897C52.4702 39.1297 54.7002 41.9497 56.3802 45.0397C59.0702 49.9797 60.6902 60.0697 60.9202 78.5097C61.0702 90.3697 65.1902 104.7 65.9302 115.95C67.0302 132.85 67.5702 146.01 67.5702 146.01C67.5702 146.01 53.1002 143.96 37.4102 144.24L47.4102 40.3897Z" fill="#E0E0E0"/>
<path d="M18.28 212.35C18.28 212.35 15.25 191.6 16.52 179.44C17.61 169 19.14 164.63 19.36 162.26C19.36 162.26 21.11 137.76 20.64 117.01C20.41 107.17 20.92 96.3198 27.92 84.7198L28.17 84.2598C28.79 88.0598 34.65 90.5298 39.88 91.1098C44.92 91.6698 51.2 90.6598 58.69 88.1198C60.36 97.9598 62.26 116.71 64.2 137.16C65.15 147.15 64.98 155.56 65.15 161.98C65.37 170.7 64.58 204.84 64.58 204.84L64.59 206.28C64.64 207.87 65.03 208.98 66.14 211.51C67.27 214.07 69.29 217.72 71.89 220.35C72.64 221.11 77.8 225.33 78.5 226.25C80.74 228.69 76.32 230.26 72.99 229.93C69.48 229.58 64 228.43 62.38 226.35C61.31 224.96 60.37 220.02 59.27 218.61C55.55 213.88 54.02 211.84 53.94 210.29C53.8 207.49 54.73 206.35 55.02 204.76C54.62 201.46 47.93 184.22 47.49 174.59C47.28 170 48.29 161.87 48.29 161.87L42.41 128.42C41.11 137.83 38.62 159.02 37.72 165.77C36.48 175.06 31.9 190.78 29 203.12C27.91 207.76 27.37 209.83 27.11 212.85C27.11 212.86 27.04 213.93 27.04 213.94C27.01 215.31 26.9 229.93 26.46 233.03C25.54 239.5 19.8 238.88 18.71 233.71C17.78 229.31 18.3 215.56 18.27 213.88L18.28 212.35Z" fill="#F28F8F"/>
<path d="M18.09 212.26C16.48 212.34 17.75 218.55 17.46 222.58C17.16 226.9 15.85 230.09 15.56 233.64C15.23 237.69 15.65 239.37 17.2 242.64C18.41 245.18 24.18 248.53 26.21 244.77C28.26 240.96 28.56 236.78 28.18 232.77C27.79 228.63 27.44 225.6 27.25 222.44C27.08 219.66 29.01 213.05 26.91 212.72L26.84 213.81C26.14 215.34 19.01 216.61 18.07 213.75L18.09 212.26Z" fill="#37474F"/>
<path d="M53.51 213.58C53.08 215.61 53.7801 221.11 53.7801 221.11C53.7801 221.11 54.7101 222.98 57.8601 224.15L59.0001 216.43L53.51 213.58Z" fill="#263238"/>
<path d="M57.8601 224.151L64.6401 221.671L66.0801 215.541L58.5201 219.691L57.8601 224.151Z" fill="black"/>
<path d="M64.39 206.191L64.38 204.751C65.32 205.171 67.62 212.591 70.56 217.641C73.24 222.251 78.34 224.691 80.03 226.681C82.3 229.34 78.19 233.001 71.35 231.771C67.96 231.161 62.79 229.181 61.33 226.951C59.87 224.721 59.27 220.571 58.08 218.931C56.89 217.301 54.14 215.461 53.51 213.581C53.16 212.551 52.83 210.241 53.35 208.331C53.82 206.581 54.22 204.471 54.82 204.641L54.9 205.951C55.39 206.861 57.06 207.881 60.49 207.961C62.13 208.001 63.7 207.691 64.39 206.191Z" fill="#37474F"/>
<path d="M46.58 178.25C45.9 169.8 47.15 162.47 47.15 162.47L42.21 129.57C42.21 129.57 38.84 160.89 38.28 165.74C37.72 170.6 28.69 222.96 28.69 222.96C24.07 225.7 18.15 224.83 14.29 222.78C14.31 201.6 14.95 180.38 15.72 174.52C16.33 169.85 18.46 162.65 18.46 162.65C18.46 162.65 18.95 131.76 18.92 120.03C18.89 108.31 19.78 100.46 22.01 95.1797C24.24 89.9097 28.16 84.1797 28.16 84.1797C28.16 84.1797 29.88 89.9597 43.46 89.9797C57.04 89.9997 58.54 86.5497 58.54 86.5497C58.54 86.5497 62.51 100.44 63.84 121.42C64.91 138.33 65.15 146.02 65.47 153.55C65.74 159.97 65.91 167.39 66.06 180.36C66.17 190.15 67.56 211.68 67.56 211.68C67.56 211.68 60.93 215.16 49.98 211.19C49.99 211.2 47.26 186.7 46.58 178.25Z" fill="#455A64"/>
<path d="M42.21 129.57L44.9 109.68C44.9 109.68 50.49 109.46 55.29 104.65C55.29 104.65 53.78 109.47 47.4 112.17L43.8 129.63L46.43 157.65L42.21 129.57Z" fill="#37474F"/>
<path d="M35.8602 41.7695L29.4602 42.4495C25.2202 43.4895 23.3002 45.3595 22.8602 49.1195C22.6602 50.8695 21.6002 55.5395 23.0802 61.3795C24.4302 66.6695 28.0102 79.6295 28.0102 79.6295C28.0102 79.6295 23.3702 91.2895 21.1702 97.2095C36.2602 107.05 54.8802 103.16 61.1402 97.2095C60.6102 91.5795 58.6202 86.3395 58.1702 81.3095C58.1702 81.3095 58.5002 73.4695 59.1202 70.0595C63.8902 64.8495 63.2802 59.8695 61.1402 55.8495C57.1802 48.4295 51.2202 41.9095 49.2902 41.9195L35.8602 41.7695Z" fill="#27DEBF"/>
<path opacity="0.6" d="M35.8602 41.7695L29.4602 42.4495C25.2202 43.4895 23.3002 45.3595 22.8602 49.1195C22.6602 50.8695 21.6002 55.5395 23.0802 61.3795C24.4302 66.6695 28.0102 79.6295 28.0102 79.6295C28.0102 79.6295 23.3702 91.2895 21.1702 97.2095C36.2602 107.05 54.8802 103.16 61.1402 97.2095C60.6102 91.5795 58.6202 86.3395 58.1702 81.3095C58.1702 81.3095 58.5002 73.4695 59.1202 70.0595C63.8902 64.8495 63.2802 59.8695 61.1402 55.8495C57.1802 48.4295 51.2202 41.9095 49.2902 41.9195L35.8602 41.7695Z" fill="white"/>
<path d="M35.5002 41.7686C35.5002 41.7686 40.7702 55.6286 41.9702 65.0186C43.1702 74.4186 39.0502 102.829 38.4102 119.659C37.9402 131.919 36.7902 149.569 36.7902 149.569C36.7902 149.569 30.9302 150.229 25.5802 149.219C19.3802 148.049 17.4702 147.039 13.9302 144.719C13.9302 144.719 16.9902 113.939 18.5002 101.969C19.9202 90.6986 25.9702 79.5986 25.9702 79.5986L18.6902 49.4686C18.6902 49.4686 19.0502 44.3886 23.8302 42.9686C28.3802 41.6186 35.5002 41.7686 35.5002 41.7686Z" fill="#FAFAFA"/>
<path d="M26.1802 69.9291C26.1802 69.9291 27.1702 66.3391 28.5302 60.2191C29.9002 54.0991 29.6802 50.5491 29.2102 47.8691L21.3002 59.4491L25.9602 79.5991V79.6091C25.9602 79.6091 20.9802 88.7491 18.9902 98.8491C23.7502 85.3691 28.9702 81.3191 28.9702 81.3191L26.1802 69.9291Z" fill="#F5F5F5"/>
<path d="M35.2801 37.309C34.5101 37.149 33.8201 37.489 33.2001 38.549C32.5701 39.619 31.1901 41.869 31.1901 41.869C31.1901 41.869 30.4801 49.329 31.1901 51.179C31.8101 52.799 38.6301 58.839 38.6301 58.839C38.6301 58.839 36.8501 65.539 36.7901 67.739C36.7301 69.939 41.0201 78.289 41.5001 82.559C41.5001 82.559 42.8501 69.129 42.2201 64.309C41.1201 55.919 37.1801 45.099 35.3301 41.659L35.2801 37.309Z" fill="#EBEBEB"/>
<path d="M19.1301 121.73C18.1201 119.8 18.1301 118.41 16.5501 116.65C15.9601 116 15.5601 115.44 15.1701 114.08C14.7301 112.56 14.8401 110.99 14.7901 109.35L5.73007 109.48C5.66007 112.49 5.25007 116.82 5.82007 120.04C7.26007 128.17 8.87006 131.63 12.2801 132.57C17.7301 134.08 19.2001 131.77 17.4601 127.7C16.1701 124.69 15.9401 122.37 15.9401 122.37C16.8601 123.41 17.2701 123.89 17.9101 124.3C19.1801 125.12 20.2101 124.57 20.5401 124.14C20.8001 123.81 19.9201 123.24 19.1301 121.73Z" fill="#F28F8F"/>
<path d="M27.9701 42.1704C27.9701 42.1704 22.1101 41.8004 18.6801 44.6104C15.2501 47.4204 13.1201 55.2604 10.6001 63.1004C8.08006 70.9404 5.83006 78.5704 5.00006 84.0704C4.31006 88.6704 5.21006 113 5.21006 113C5.21006 113 10.3901 113.73 15.6901 111.14L18.1401 85.1904L27.9601 58.5404C27.9701 58.5504 31.0101 50.9604 27.9701 42.1704Z" fill="#F0F0F0"/>
<path d="M33.51 58.7895C33.54 58.2095 33.46 56.9495 33.35 55.3595C32.86 47.5995 32.6299 40.5795 35.2499 40.0195L35.4799 41.0895C33.5599 41.4995 34.2 51.5195 34.44 55.2895C34.54 56.9095 34.62 58.1895 34.6 58.8295L33.51 58.7895Z" fill="#27DEBF"/>
<path d="M31.9502 84.7293C31.9202 84.7293 31.8902 84.7293 31.8602 84.7293L31.8902 83.9593C32.5702 83.9793 33.5102 83.5993 34.4002 83.0293C33.5702 82.4593 32.8202 81.7893 32.3102 81.1393C31.0802 79.5493 28.3802 68.1493 29.2102 65.4993C29.9102 63.2693 32.0902 58.3693 34.0402 58.2793C34.0602 58.2793 34.0702 58.2793 34.0902 58.2793C36.0302 58.2793 38.5902 62.9193 39.4702 65.0593C40.5302 67.6393 38.8002 79.2193 37.7102 80.9093C37.2602 81.6093 36.5702 82.3393 35.7902 82.9693C36.7302 83.4693 37.6702 83.7693 38.3702 83.6893L38.4602 84.4493C37.5202 84.5693 36.2802 84.1493 35.1102 83.4793C34.0402 84.2193 32.8802 84.7293 31.9502 84.7293ZM34.0902 59.0393C34.0802 59.0393 34.0702 59.0393 34.0702 59.0393C32.9302 59.0893 30.8702 62.7293 29.9402 65.7193C29.1702 68.1593 31.7702 79.1893 32.9202 80.6693C33.4202 81.3193 34.2102 81.9993 35.0802 82.5493C35.8902 81.9293 36.6202 81.1793 37.0702 80.4893C38.0902 78.9193 39.7402 67.7093 38.7702 65.3493C37.5802 62.4693 35.2502 59.0393 34.0902 59.0393Z" fill="#455A64"/>
<path d="M39.5301 84.0201C39.5601 84.6401 39.0701 85.1701 38.4501 85.1901C37.8301 85.2201 37.3001 84.7301 37.2801 84.1101C37.2501 83.4901 37.7401 82.9601 38.3601 82.9401C38.9801 82.9201 39.5101 83.4001 39.5301 84.0201Z" fill="#263238"/>
<path d="M32.9901 84.2994C33.0201 84.9194 32.5301 85.4494 31.9101 85.4694C31.2901 85.4994 30.7601 85.0094 30.7401 84.3894C30.7101 83.7694 31.2001 83.2394 31.8201 83.2194C32.4401 83.1994 32.9701 83.6794 32.9901 84.2994Z" fill="#263238"/>
<path d="M39.65 70.0792L39 70.0392C38.86 70.0292 38.76 69.9092 38.77 69.7692C38.9 67.6292 38.83 66.0492 38.57 65.4192C37.44 62.6592 35.09 59.1892 34.07 59.2292C33.05 59.2692 31.01 62.9292 30.11 65.7792C29.91 66.4292 29.97 68.0092 30.28 70.1292C30.3 70.2692 30.21 70.3992 30.07 70.4192L29.43 70.5192C29.29 70.5392 29.16 70.4392 29.14 70.2992C28.79 67.9192 28.74 66.2892 29.01 65.4392C29.49 63.9092 31.74 58.1892 34.02 58.0892C36.29 57.9892 39.02 63.5092 39.63 64.9892C39.97 65.8092 40.06 67.4392 39.91 69.8392C39.91 69.9792 39.79 70.0892 39.65 70.0792Z" fill="#27DEBF"/>
<path d="M100.71 60.9297L71.6602 71.1797L63.6602 105.75L64.3102 106.44L91.9302 96.1297L101.36 61.6197L100.71 60.9297Z" fill="#27DEBF"/>
<path opacity="0.35" d="M72.3102 71.8697L64.3102 106.44L63.6602 105.75L71.6602 71.1797L72.3102 71.8697Z" fill="black"/>
<path opacity="0.25" d="M101.36 61.6191L72.3101 71.8691L64.3101 106.439L91.9301 96.1291L101.36 61.6191Z" fill="black"/>
<g opacity="0.2">
<path opacity="0.2" d="M87.6101 89.0998C87.8801 89.7798 90.1001 91.2698 93.3301 91.0098L93.8801 89.0098L87.6101 89.0998Z" fill="black"/>
</g>
<g opacity="0.1">
<path opacity="0.1" d="M92.6101 68.7004C92.6101 68.7004 92.7201 68.1804 92.8501 67.5404C92.9801 66.9004 91.2801 67.2404 89.0401 68.2904L83.8001 69.8804C81.5601 70.9304 79.4501 71.7204 79.3201 72.3604L79.0801 73.5204L92.6101 68.7004Z" fill="black"/>
</g>
<path d="M94.3301 63.4606C94.4101 63.0606 93.7502 63.1406 92.8202 63.3906L91.1501 63.9606C91.1501 63.9606 91.8301 62.2806 87.8701 63.3506C83.5101 64.5306 83.4202 66.7106 83.4202 66.7106C83.4202 66.7106 82.9201 66.9506 81.3301 67.4706C79.8801 67.9406 79.7202 68.2206 79.6102 68.6306L79.4001 69.3706L94.2102 64.1506C94.2002 64.1406 94.2501 63.8606 94.3301 63.4606Z" fill="#37474F"/>
<path d="M92.7802 65.6802C91.4102 66.3002 90.8402 66.6102 90.6302 67.5902C90.4002 68.7202 90.3502 69.1902 90.3502 69.1902L82.6402 72.2302C82.6402 72.2302 83.0602 70.5702 83.1602 70.0202C83.2602 69.4702 82.2402 69.4602 80.9102 70.0802L81.2302 68.7002L93.2202 64.2402L92.7802 65.6802Z" fill="#37474F"/>
<path d="M93.0102 68.7199C93.0102 68.7199 93.1202 68.1999 93.2502 67.5599C93.3802 66.9199 91.6802 67.2599 89.4402 68.3099L84.2002 69.8999C81.9602 70.9599 79.8502 71.7399 79.7202 72.3799L79.4802 73.5399L93.0102 68.7199Z" fill="#37474F"/>
<path d="M98.1301 73.4496C98.1301 73.4496 97.1001 77.2396 96.8301 78.1996C96.5601 79.1596 91.8001 81.3496 89.4201 81.6496C84.8601 82.2196 84.3501 83.2096 85.4401 86.4396C86.4501 89.4196 89.4201 90.5496 93.5301 90.0596C95.4601 89.8296 98.1201 88.1196 99.1701 85.1296C100.5 81.3196 99.7901 77.2496 100.32 75.0196C100.85 72.7996 99.2901 72.1196 98.1301 73.4496Z" fill="#F28F8F"/>
<path d="M48.8701 45.88H24.3201V17.07C24.3201 7.64 31.9701 0 41.3901 0H43.0601C52.4901 0 60.1301 7.64 60.1301 17.07V34.62C60.1401 40.84 55.0901 45.88 48.8701 45.88Z" fill="#14A0BD"/>
<path opacity="0.15" d="M48.8701 45.88H24.3201V17.07C24.3201 7.64 31.9701 0 41.3901 0H43.0601C52.4901 0 60.1301 7.64 60.1301 17.07V34.62C60.1401 40.84 55.0901 45.88 48.8701 45.88Z" fill="black"/>
<path d="M31.25 63.1202H30.75V39.9102H41.42V52.9502C41.42 58.5702 36.87 63.1202 31.25 63.1202Z" fill="#14A0BD"/>
<path opacity="0.3" d="M31.25 63.1202H30.75V39.9102H41.42V52.9502C41.42 58.5702 36.87 63.1202 31.25 63.1202Z" fill="black"/>
<path d="M54.27 9.13124C56.68 10.8612 57.49 12.8312 57.24 23.8412C57.02 33.1712 54.01 35.4812 52.49 36.1412C50.97 36.8012 48.05 36.4012 45.21 35.9312V42.5412C45.21 42.5412 46.42 43.3212 47.09 45.8112C47.28 46.5112 44.99 47.5812 39.34 46.8112C34.93 46.2112 33.51 43.0012 33.51 43.0012V29.4812V22.1412C33.51 22.1412 33.55 13.6812 39.58 10.3612C45.63 7.04124 51.32 7.83124 54.27 9.13124Z" fill="#F28F8F"/>
<path d="M33.52 22.1407C33.52 22.1407 39.05 12.2707 47.1 11.0607C55.15 9.85074 56.93 13.9007 56.93 13.9007C56.93 13.9007 55.91 4.76074 47.1 5.00074C34.96 5.33074 33.52 14.6307 33.52 22.1407Z" fill="#14A0BD"/>
<path opacity="0.4" d="M33.52 22.1407C33.52 22.1407 39.05 12.2707 47.1 11.0607C55.15 9.85074 56.93 13.9007 56.93 13.9007C56.93 13.9007 55.91 4.76074 47.1 5.00074C34.96 5.33074 33.52 14.6307 33.52 22.1407Z" fill="black"/>
<path d="M45.29 21.5011C45.32 22.1711 44.83 22.7411 44.18 22.7711C43.53 22.8011 42.98 22.2811 42.95 21.6111C42.92 20.9411 43.41 20.3711 44.06 20.3411C44.7 20.3111 45.25 20.8311 45.29 21.5011Z" fill="black"/>
<path d="M44.1985 29L53 31.274C52.2648 33.3173 49.7122 34.4542 47.2821 33.8281C44.8316 33.2019 43.4634 31.0433 44.1985 29Z" fill="#B16668"/>
<path d="M55.4301 18.051L53.0601 16.401C53.4901 15.721 54.3701 15.541 55.0301 16.001C55.6801 16.451 55.8601 17.371 55.4301 18.051Z" fill="black"/>
<path d="M41.8801 17.9006L44.2501 16.2506C43.8201 15.5706 42.9401 15.3906 42.2801 15.8506C41.6301 16.3006 41.4501 17.2206 41.8801 17.9006Z" fill="black"/>
<path d="M54.8301 21.2608C54.8601 21.9308 54.3701 22.5008 53.7201 22.5308C53.0701 22.5608 52.5201 22.0408 52.4901 21.3708C52.4601 20.7008 52.9501 20.1308 53.6001 20.1008C54.2401 20.0708 54.8001 20.5908 54.8301 21.2608Z" fill="black"/>
<path d="M49.1602 20.7305L49.3502 27.7905L53.0602 26.6405L49.1602 20.7305Z" fill="#B16668"/>
<path d="M45.2201 35.9401C42.2301 35.5501 36.0701 33.7701 35.1101 31.3301C35.1101 31.3301 35.4301 32.8601 37.2701 34.4401C39.1101 36.0201 45.2201 37.8001 45.2201 37.8001V35.9401Z" fill="#B16668"/>
<path d="M49.0101 37.1691L45.2201 35.9391C45.2201 36.6191 44.6701 37.1691 43.9901 37.1691H38.0601C35.5501 37.1691 33.5201 35.1291 33.5201 32.6191L29.7501 37.1691H24.3301V44.3491C24.3301 46.7991 26.3101 48.7891 28.7601 48.7891H45.1101C51.0701 48.7891 55.9101 43.9391 55.9101 37.9691V37.1691H49.0101Z" fill="#14A0BD"/>
<path opacity="0.15" d="M49.0101 37.1691L45.2201 35.9391C45.2201 36.6191 44.6701 37.1691 43.9901 37.1691H38.0601C35.5501 37.1691 33.5201 35.1291 33.5201 32.6191L29.7501 37.1691H24.3301V44.3491C24.3301 46.7991 26.3101 48.7891 28.7601 48.7891H45.1101C51.0701 48.7891 55.9101 43.9391 55.9101 37.9691V37.1691H49.0101Z" fill="black"/>
</svg>
