<svg width="104" height="274" viewBox="0 0 104 274" fill="none" xmlns="http://www.w3.org/2000/svg">
<path d="M51.84 273.962C80.4704 273.962 103.68 260.562 103.68 244.032C103.68 227.502 80.4704 214.102 51.84 214.102C23.2096 214.102 0 227.502 0 244.032C0 260.562 23.2096 273.962 51.84 273.962Z" fill="#E0E0E0"/>
<path d="M69.91 228.782C69.8 225.892 72.11 197.362 72.11 197.362L58.27 206.512C59.73 223.212 60.67 228.442 60.73 231.222C60.71 231.282 60.64 231.522 60.65 231.932C60.66 235.232 64.75 237.012 67.94 239.222C69.2 240.092 72.86 242.662 76.57 244.352C78.89 245.412 83.59 245.512 84.18 244.152C80.3 241.452 74.65 237.402 71.57 234.322C70.08 232.842 70.02 231.672 69.91 228.782Z" fill="#9E6767"/>
<path d="M90.79 247.702C90.99 247.702 91.29 249.702 90.21 250.552C88.96 251.532 85.3 253.142 80.46 252.572C75.62 252.002 73 250.632 71.06 249.162C69.12 247.682 66.41 245.602 64.22 245.162C62.19 244.752 59.98 243.912 59.33 243.342C58.68 242.772 58.77 240.222 58.77 240.222L90.79 247.702Z" fill="#455A64"/>
<path d="M60.7 230.402C60.7 230.402 60.09 230.412 59.97 231.002C59.82 231.702 59.66 233.742 59.34 234.902C58.9 236.502 58.6 239.782 58.86 241.092C59.13 242.402 62.44 243.302 64.56 244.042C66.72 244.792 69.23 246.342 71.42 247.992C73.69 249.702 78.48 251.482 81.63 251.462C85.36 251.442 89.56 250.332 90.53 248.762C91.72 246.812 90.79 245.682 85.25 243.342C84.2 242.902 80.52 240.912 79.27 240.192C75.88 238.242 72.52 235.532 70.96 232.092C70.78 231.692 70.59 231.242 70.16 231.042C69.84 230.882 69.45 230.912 69.08 230.952C68.16 231.072 67.26 231.322 66.42 231.682C65.68 232.002 64.62 232.382 64.64 233.252C64.65 233.552 64.74 233.852 64.85 234.132C64.92 234.312 64.97 234.542 64.8 234.652C64.64 234.752 64.43 234.642 64.28 234.522C63.7 234.052 63.28 233.442 62.79 232.892C62.53 232.592 62.24 232.312 61.91 232.082C61.61 231.872 61.23 231.762 60.96 231.522C60.63 231.192 60.71 230.812 60.7 230.402Z" fill="#14A0BD"/>
<path opacity="0.9" d="M60.7 230.402C60.7 230.402 60.09 230.412 59.97 231.002C59.82 231.702 59.66 233.742 59.34 234.902C58.9 236.502 58.6 239.782 58.86 241.092C59.13 242.402 62.44 243.302 64.56 244.042C66.72 244.792 69.23 246.342 71.42 247.992C73.69 249.702 78.48 251.482 81.63 251.462C85.36 251.442 89.56 250.332 90.53 248.762C91.72 246.812 90.79 245.682 85.25 243.342C84.2 242.902 80.52 240.912 79.27 240.192C75.88 238.242 72.52 235.532 70.96 232.092C70.78 231.692 70.59 231.242 70.16 231.042C69.84 230.882 69.45 230.912 69.08 230.952C68.16 231.072 67.26 231.322 66.42 231.682C65.68 232.002 64.62 232.382 64.64 233.252C64.65 233.552 64.74 233.852 64.85 234.132C64.92 234.312 64.97 234.542 64.8 234.652C64.64 234.752 64.43 234.642 64.28 234.522C63.7 234.052 63.28 233.442 62.79 232.892C62.53 232.592 62.24 232.312 61.91 232.082C61.61 231.872 61.23 231.762 60.96 231.522C60.63 231.192 60.71 230.812 60.7 230.402Z" fill="white"/>
<path d="M71.42 247.992C70.45 247.262 69.43 246.562 68.4 245.942C68.4 245.942 74.91 249.552 77.54 247.912C79.23 246.862 78.43 245.572 78.39 245.162C78.35 244.752 82.53 243.002 84.17 242.822C84.63 243.052 85.01 243.242 85.25 243.342C90.78 245.682 91.72 246.812 90.53 248.762C89.57 250.342 86.52 251.572 81.7 251.572C78.54 251.562 73.69 249.702 71.42 247.992Z" fill="#14A0BD"/>
<path opacity="0.8" d="M71.42 247.992C70.45 247.262 69.43 246.562 68.4 245.942C68.4 245.942 74.91 249.552 77.54 247.912C79.23 246.862 78.43 245.572 78.39 245.162C78.35 244.752 82.53 243.002 84.17 242.822C84.63 243.052 85.01 243.242 85.25 243.342C90.78 245.682 91.72 246.812 90.53 248.762C89.57 250.342 86.52 251.572 81.7 251.572C78.54 251.562 73.69 249.702 71.42 247.992Z" fill="white"/>
<path d="M77.93 243.962C81.37 245.212 79.9 245.802 78.94 245.932C77.98 246.062 72.18 242.972 68.65 240.422C64.97 237.762 62.64 234.862 61.27 233.882C60.76 233.522 60.21 233.072 59.72 232.652C59.81 231.962 59.88 231.332 59.95 231.002C60.08 230.412 60.68 230.402 60.68 230.402C60.7 230.812 60.62 231.192 60.95 231.492C61.22 231.732 61.6 231.842 61.9 232.052C62.23 232.282 62.51 232.572 62.78 232.862C63.27 233.412 63.69 234.022 64.27 234.492C67.29 237.982 74.49 242.702 77.93 243.962Z" fill="#14A0BD"/>
<path d="M78.7 245.462C78.62 245.462 78.55 245.442 78.48 245.392C78.33 245.282 78.31 245.092 78.43 244.952C79.4 243.872 82.2 242.432 84.73 242.682C84.92 242.702 85.05 242.852 85.03 243.022C85.01 243.192 84.86 243.312 84.65 243.302C82.29 243.072 79.72 244.482 78.95 245.342C78.89 245.422 78.8 245.462 78.7 245.462Z" fill="#FAFAFA"/>
<path d="M75.7 243.782C75.62 243.782 75.55 243.762 75.48 243.712C75.33 243.602 75.31 243.412 75.43 243.272C76.4 242.192 79.2 240.752 81.73 241.002C81.92 241.022 82.05 241.172 82.03 241.342C82.01 241.512 81.85 241.632 81.66 241.622C79.29 241.392 76.73 242.802 75.96 243.662C75.89 243.742 75.79 243.782 75.7 243.782Z" fill="#FAFAFA"/>
<path d="M72.69 242.182C72.61 242.182 72.54 242.162 72.47 242.112C72.32 242.002 72.3 241.812 72.42 241.672C73.39 240.592 76.19 239.152 78.72 239.402C78.91 239.422 79.04 239.572 79.02 239.742C79 239.912 78.84 240.032 78.65 240.022C76.28 239.792 73.72 241.202 72.95 242.062C72.89 242.142 72.79 242.182 72.69 242.182Z" fill="#FAFAFA"/>
<path d="M69.91 240.362C69.83 240.362 69.76 240.342 69.69 240.292C69.54 240.182 69.52 239.992 69.64 239.852C70.61 238.772 73.42 237.332 75.94 237.582C76.13 237.602 76.26 237.752 76.24 237.922C76.22 238.092 76.06 238.212 75.86 238.202C73.5 237.972 70.93 239.382 70.16 240.242C70.11 240.322 70.01 240.362 69.91 240.362Z" fill="#FAFAFA"/>
<path d="M67.19 238.542C67.12 238.542 67.04 238.522 66.98 238.472C66.83 238.362 66.81 238.172 66.92 238.032C68.26 236.492 71.27 235.482 73.8 235.732C73.99 235.752 74.12 235.902 74.1 236.072C74.08 236.242 73.92 236.362 73.73 236.352C71.45 236.122 68.64 237.052 67.45 238.412C67.39 238.502 67.29 238.542 67.19 238.542Z" fill="#FAFAFA"/>
<path d="M43.17 207.522L29.16 207.272C29.37 216.622 30.85 227.002 31.1 235.772C31.15 237.422 31.06 248.602 31.68 252.002C32.62 257.102 38.67 256.422 39 253.362C39.32 250.312 38.61 237.252 38.63 235.912C38.58 230.282 41.21 220.792 42.6 210.692C42.66 210.182 43.1 208.002 43.17 207.522Z" fill="#9E6767"/>
<path d="M41.89 255.482C42.03 258.482 41.74 260.502 40.77 262.362C39.8 264.222 37.66 264.972 35.38 264.662C33.1 264.352 30.09 263.242 29.17 260.732C28.25 258.222 28.18 256.442 28.38 253.632L41.89 255.482Z" fill="#455A64"/>
<path d="M30.64 234.692C29.73 234.842 29.9 238.872 29.82 242.932C29.73 247.282 28.51 249.192 28.4 252.762C28.27 256.842 28.7 258.622 30.52 260.912C32.34 263.202 38.11 265.092 40.43 261.352C42.32 258.312 42.07 255.152 41.42 251.142C40.75 247.002 40.24 244.102 40.08 240.932C39.92 237.902 39.83 234.962 39 234.692C38.99 235.142 38.99 235.712 38.97 236.152C38.96 236.492 39.05 238.132 38.53 238.192C38.44 237.812 38.41 237.452 38.39 237.062C38.38 236.722 38.3 236.352 38.03 236.112C37.75 235.872 37.35 235.822 36.97 235.792C36.05 235.712 35.12 235.652 34.2 235.662C33.74 235.662 33.28 235.692 32.82 235.732C32.45 235.772 32.01 235.842 31.67 235.992C31.46 236.082 31.28 236.242 31.22 236.442C31.18 236.592 31.21 236.752 31.22 236.902C31.25 237.182 31.24 237.462 31.2 237.742C31.18 237.862 31.11 238.022 30.97 238.002C30.86 237.992 30.81 237.872 30.79 237.772C30.73 237.282 30.76 236.922 30.72 236.362C30.7 236.102 30.71 235.742 30.68 235.472C30.67 235.212 30.65 234.952 30.64 234.692Z" fill="#14A0BD"/>
<path opacity="0.9" d="M30.64 234.692C29.73 234.842 29.9 238.872 29.82 242.932C29.73 247.282 28.51 249.192 28.4 252.762C28.27 256.842 28.7 258.622 30.52 260.912C32.34 263.202 38.11 265.092 40.43 261.352C42.32 258.312 42.07 255.152 41.42 251.142C40.75 247.002 40.24 244.102 40.08 240.932C39.92 237.902 39.83 234.962 39 234.692C38.99 235.142 38.99 235.712 38.97 236.152C38.96 236.492 39.05 238.132 38.53 238.192C38.44 237.812 38.41 237.452 38.39 237.062C38.38 236.722 38.3 236.352 38.03 236.112C37.75 235.872 37.35 235.822 36.97 235.792C36.05 235.712 35.12 235.652 34.2 235.662C33.74 235.662 33.28 235.692 32.82 235.732C32.45 235.772 32.01 235.842 31.67 235.992C31.46 236.082 31.28 236.242 31.22 236.442C31.18 236.592 31.21 236.752 31.22 236.902C31.25 237.182 31.24 237.462 31.2 237.742C31.18 237.862 31.11 238.022 30.97 238.002C30.86 237.992 30.81 237.872 30.79 237.772C30.73 237.282 30.76 236.922 30.72 236.362C30.7 236.102 30.71 235.742 30.68 235.472C30.67 235.212 30.65 234.952 30.64 234.692Z" fill="white"/>
<path d="M28.47 251.592C28.45 252.182 28.33 256.072 29.56 256.662C30.89 257.302 31.24 254.212 31.24 254.212C31.24 254.212 34.08 253.132 38.53 254.432C38.38 255.072 39.27 257.072 40.39 256.532C41.5 255.992 41.47 251.542 41.47 251.482C42.07 255.322 42.26 258.382 40.43 261.342C38.11 265.072 32.34 263.192 30.52 260.902C28.7 258.612 28.26 256.832 28.4 252.752C28.4 252.342 28.43 251.962 28.47 251.592Z" fill="#14A0BD"/>
<path opacity="0.8" d="M28.47 251.592C28.45 252.182 28.33 256.072 29.56 256.662C30.89 257.302 31.24 254.212 31.24 254.212C31.24 254.212 34.08 253.132 38.53 254.432C38.38 255.072 39.27 257.072 40.39 256.532C41.5 255.992 41.47 251.542 41.47 251.482C42.07 255.322 42.26 258.382 40.43 261.342C38.11 265.072 32.34 263.192 30.52 260.902C28.7 258.612 28.26 256.832 28.4 252.752C28.4 252.342 28.43 251.962 28.47 251.592Z" fill="white"/>
<path d="M31.61 254.432C31.75 255.892 30.12 255.542 29.82 253.492C29.52 251.442 30.22 246.452 29.82 242.922C29.9 238.862 29.73 234.832 30.64 234.682C30.64 234.732 30.65 234.782 30.65 234.832L30.75 236.882C30.76 237.182 30.76 237.442 30.79 237.762C31.1 240.732 31.27 246.512 31.29 249.252C31.32 251.992 31.46 252.982 31.61 254.432Z" fill="#14A0BD"/>
<path d="M38.03 254.432C38.17 252.972 38.32 251.982 38.34 249.242C38.36 246.522 38.53 240.812 38.83 237.822C39 237.302 38.96 236.382 38.97 236.132C38.99 235.722 38.99 235.202 38.99 234.772C38.99 234.742 39 234.712 39 234.682C39.6 234.882 39.82 236.492 39.95 238.512C39.96 239.682 39.92 241.142 39.82 242.912C39.42 246.442 40.12 251.462 39.83 253.512C39.53 255.572 37.89 255.892 38.03 254.432Z" fill="#14A0BD"/>
<path d="M38.63 254.542C38.59 254.542 38.54 254.532 38.5 254.522C38.47 254.512 34.96 253.272 31.36 254.502C31.18 254.562 30.99 254.482 30.92 254.322C30.85 254.162 30.94 253.982 31.12 253.922C34.98 252.602 38.6 253.892 38.76 253.942C38.93 254.002 39.02 254.182 38.95 254.342C38.9 254.472 38.77 254.542 38.63 254.542Z" fill="#FAFAFA"/>
<path d="M39.05 251.312C39.01 251.312 38.97 251.302 38.93 251.292C38.89 251.282 34.97 250.032 30.93 251.272C30.75 251.322 30.56 251.242 30.5 251.082C30.44 250.922 30.54 250.742 30.71 250.692C34.98 249.382 38.99 250.662 39.16 250.712C39.34 250.772 39.43 250.952 39.37 251.112C39.32 251.232 39.19 251.312 39.05 251.312Z" fill="#FAFAFA"/>
<path d="M30.83 248.252C30.7 248.252 30.58 248.182 30.52 248.072C30.44 247.912 30.52 247.732 30.69 247.662C34.66 246.022 38.94 247.552 39.12 247.612C39.3 247.672 39.38 247.852 39.31 248.012C39.24 248.172 39.04 248.242 38.87 248.182C38.83 248.172 34.68 246.692 30.98 248.222C30.92 248.242 30.88 248.252 30.83 248.252Z" fill="#FAFAFA"/>
<path d="M30.75 245.402C30.62 245.402 30.5 245.332 30.44 245.222C30.36 245.062 30.43 244.882 30.6 244.812C34.96 242.932 39.02 244.652 39.19 244.722C39.36 244.792 39.43 244.982 39.35 245.132C39.27 245.282 39.06 245.352 38.89 245.282C38.85 245.262 34.95 243.612 30.89 245.372C30.85 245.392 30.8 245.402 30.75 245.402Z" fill="#FAFAFA"/>
<path d="M30.68 242.202C30.55 242.202 30.43 242.142 30.37 242.032C30.29 241.882 30.36 241.692 30.52 241.612C34.6 239.782 39 241.532 39.18 241.612C39.35 241.682 39.43 241.862 39.35 242.022C39.27 242.182 39.07 242.252 38.9 242.182C38.86 242.162 34.61 240.482 30.82 242.182C30.78 242.192 30.73 242.202 30.68 242.202Z" fill="#EBEBEB"/>
<path d="M36.18 110.792C34.33 114.712 32.17 122.252 31.78 127.292C30.19 147.992 29.39 178.042 29.39 178.042C29.21 180.202 27.84 185.112 26.91 194.632C25.82 205.882 28.85 243.652 28.85 243.652C28.85 243.652 35.58 247.662 40.81 243.102C40.81 243.102 46.89 190.712 48.31 179.522C49.54 169.762 52.98 148.652 52.98 148.652L55.63 180.942C55.63 180.942 55.26 189.722 55.52 195.402C55.82 202.002 59.05 234.562 59.05 234.562C59.05 234.562 68.29 237.692 72.43 233.252C72.43 233.252 73.41 186.602 73.55 178.652C73.82 163.072 73.01 134.012 72.46 118.182L36.18 110.792Z" fill="#14A0BD"/>
<path opacity="0.6" d="M36.18 110.792C34.33 114.712 32.17 122.252 31.78 127.292C30.19 147.992 29.39 178.042 29.39 178.042C29.21 180.202 27.84 185.112 26.91 194.632C25.82 205.882 28.85 243.652 28.85 243.652C28.85 243.652 35.58 247.662 40.81 243.102C40.81 243.102 46.89 190.712 48.31 179.522C49.54 169.762 52.98 148.652 52.98 148.652L55.63 180.942C55.63 180.942 55.26 189.722 55.52 195.402C55.82 202.002 59.05 234.562 59.05 234.562C59.05 234.562 68.29 237.692 72.43 233.252C72.43 233.252 73.41 186.602 73.55 178.652C73.82 163.072 73.01 134.012 72.46 118.182L36.18 110.792Z" fill="white"/>
<path opacity="0.2" d="M52.98 148.642L54.42 138.712C54.42 138.712 62.81 137.592 66.61 134.022C66.61 134.022 63.75 139.252 56.72 140.272L55.24 149.252L55.14 177.202L52.98 148.642Z" fill="black"/>
<path d="M79.9 113.672L73.34 121.792C73.34 121.792 68.78 114.232 68.97 114.232C69.16 114.232 74.74 105.062 74.74 105.062L79.9 113.672Z" fill="#9E6767"/>
<path d="M58.9 62.3619C64.04 62.2819 69.75 62.1419 74.72 68.0519C78.58 72.6419 89.01 86.8719 91.11 90.5119C93.48 94.6319 93.81 96.3019 91.95 99.3819C90.19 102.312 78.95 115.242 78.95 115.242C76.49 113.322 74.71 110.432 73.34 106.972L79.9 96.0119L67.3 77.3919L58.9 62.3619Z" fill="#37474F"/>
<path d="M58.57 62.1419C66.59 61.4619 70.07 62.5919 73.13 65.8319C75.27 68.1019 88.38 85.6219 88.38 85.6219C88.38 85.6219 87.83 89.0819 78.09 94.2619L67.45 81.8119L58.57 62.1419Z" fill="#14A0BD"/>
<path opacity="0.6" d="M58.57 62.1419C66.59 61.4619 70.07 62.5919 73.13 65.8319C75.27 68.1019 88.38 85.6219 88.38 85.6219C88.38 85.6219 87.83 89.0819 78.09 94.2619L67.45 81.8119L58.57 62.1419Z" fill="white"/>
<path d="M46.09 62.5118C44.28 62.9418 37.83 62.9518 33.58 64.4618C31.27 65.2818 30.75 68.1618 30.47 71.4718C29.86 78.5418 30.97 91.8018 30.97 91.8018L30.88 125.622C36.74 129.892 60.81 132.052 73.13 123.052C73.13 123.052 71.62 82.7718 71.62 76.5018C71.62 70.2318 68.14 62.7018 58.52 62.1418L46.09 62.5118Z" fill="#14A0BD"/>
<path opacity="0.75" d="M46.09 62.5118C44.28 62.9418 37.83 62.9518 33.58 64.4618C31.27 65.2818 30.75 68.1618 30.47 71.4718C29.86 78.5418 30.97 91.8018 30.97 91.8018L30.88 125.622C36.74 129.892 60.81 132.052 73.13 123.052C73.13 123.052 71.62 82.7718 71.62 76.5018C71.62 70.2318 68.14 62.7018 58.52 62.1418L46.09 62.5118Z" fill="white"/>
<path d="M57.75 64.3218C55.61 66.0618 49.89 66.5518 45.92 64.9518C48.92 68.4018 54.22 73.4218 58.06 76.4118C59.21 73.5018 59.33 68.4818 57.75 64.3218Z" fill="#455A64"/>
<path d="M48.07 37.3002C48.07 43.2973 53.12 48.1681 59.36 48.1681C65.59 48.1681 70.65 43.3069 70.65 37.3002C70.65 31.3032 65.6 26.4324 59.36 26.4324C53.12 26.4324 48.07 31.3032 48.07 37.3002Z" fill="black"/>
<path d="M39.84 45.03C39.84 45.03 41.67 53.2989 42.4 54.6658C43.13 56.023 44.65 56.4081 44.65 56.4081L44.52 50.5843L39.84 45.03Z" fill="black"/>
<path d="M42.14 33.1803C42.14 33.1803 40.17 32.853 38.63 34.3643C37.12 35.8467 37.97 40.4865 39.84 45.03L43.29 45.4151L42.14 33.1803Z" fill="black"/>
<path d="M44.32 45.4055C43.63 45.8001 42.64 44.5295 41.79 43.6631C40.94 42.8064 38.16 41.632 36.77 44.4428C35.36 47.3114 37.99 51.1041 40.18 51.7587C43.95 52.8946 44.52 50.565 44.52 50.565L44.8 64.0705C47.41 67.2952 53.68 73.1094 58.06 76.3919C59.35 73.2441 59.35 67.5455 57.09 63.3293L57.08 59.344C57.08 59.344 60.5 59.8446 62.17 59.5943C64.95 59.1804 66.69 57.0723 67.53 54.1845C68.88 49.5351 69.4 45.7905 68.25 36.6553C66.99 26.6442 54.9 26.5383 48.36 30.4946C41.83 34.4606 44.32 45.4055 44.32 45.4055Z" fill="#9E6767"/>
<path d="M68.05 32.1984C65.77 33.9792 64.28 34.9322 59.87 35.0862C54.88 35.2595 51.12 33.4306 51.12 33.4306C50.89 34.3354 50.66 35.3558 49.82 36.1836C48.25 37.7238 47.34 37.7623 46.73 38.1377C46.49 39.9378 46.5 42.2481 46.39 44.0674C46.35 44.6835 46.35 47.8697 44.85 46.9552C44.36 46.6568 43.9 45.9349 43.54 45.5402C42.98 44.9145 42.44 44.2407 41.81 43.6824C40.62 42.6427 42.16 33.1899 42.16 33.1899C42.16 33.1899 40.69 30.5138 42.98 28.0881C44.61 26.3554 46.89 24.2472 54.3 25.0943C59.58 25.6912 65.33 27.2795 69.97 25.0847C70.59 27.626 69.68 30.9181 68.05 32.1984Z" fill="black"/>
<path d="M42.14 33.9119L37.96 31.7556C38.55 30.6005 39.97 30.1481 41.12 30.7449C42.28 31.3417 42.74 32.7567 42.14 33.9119Z" fill="black"/>
<path d="M57.08 59.3536C57.08 59.3536 50.88 58.1504 48.72 57.0434C47.27 56.3021 46.08 55.0122 45.73 54.194C45.73 54.194 46.14 55.9652 47.43 57.5535C49.01 59.498 57.08 60.9419 57.08 60.9419V59.3536Z" fill="#874C4C"/>
<path d="M55.93 43.8845C55.93 44.6161 55.33 45.2129 54.6 45.2129C53.87 45.2129 53.27 44.6161 53.27 43.8845C53.27 43.153 53.86 42.5561 54.6 42.5561C55.33 42.5465 55.93 43.1433 55.93 43.8845Z" fill="black"/>
<path d="M54.6 39.5431L51.85 41.0063C51.44 40.2458 51.73 39.3025 52.49 38.8982C53.25 38.4939 54.19 38.7827 54.6 39.5431Z" fill="black"/>
<path d="M54.9 51.3351L59.4 52.962C58.95 54.2037 57.59 54.8487 56.34 54.3962C55.1 53.9438 54.46 52.5769 54.9 51.3351Z" fill="#874C4C"/>
<path d="M67.15 40.525L64.64 38.6672C65.15 37.9741 66.13 37.8297 66.82 38.3495C67.51 38.8501 67.66 39.8319 67.15 40.525Z" fill="black"/>
<path d="M66.32 43.7402C66.32 44.4525 65.74 45.0204 65.03 45.0204C64.32 45.0204 63.74 44.4429 63.74 43.7305C63.74 43.0182 64.32 42.4503 65.03 42.4503C65.74 42.4599 66.32 43.0374 66.32 43.7402Z" fill="black"/>
<path d="M59.97 42.0363L60.41 49.8238L64.64 48.4377L59.97 42.0363Z" fill="#874C4C"/>
<path d="M43.81 63.3918C42.17 63.7418 41.72 70.6718 42.12 79.0618C42.19 80.4518 42.28 81.5418 42.25 82.0918L41.32 82.0518C41.34 81.5518 41.27 80.4818 41.19 79.1218C40.77 72.4918 40.72 62.8518 43.62 62.4118C44.56 62.2518 44.79 62.3018 44.79 62.3018V63.2918L43.81 63.3918Z" fill="#14A0BD"/>
<path opacity="0.2" d="M43.81 63.3918C42.17 63.7418 41.72 70.6718 42.12 79.0618C42.19 80.4518 42.28 81.5418 42.25 82.0918L41.32 82.0518C41.34 81.5518 41.27 80.4818 41.19 79.1218C40.77 72.4918 40.72 62.8518 43.62 62.4118C44.56 62.2518 44.79 62.3018 44.79 62.3018V63.2918L43.81 63.3918Z" fill="black"/>
<path d="M39.98 104.052C39.95 104.052 39.93 104.052 39.9 104.052L39.92 103.402C40.5 103.422 41.3 103.092 42.07 102.602C41.36 102.122 40.72 101.542 40.28 100.982C39.23 99.6218 36.92 89.8818 37.63 87.6118C38.23 85.7118 40.1 81.5118 41.76 81.4418C41.77 81.4418 41.79 81.4418 41.8 81.4418C43.46 81.4418 45.65 85.4118 46.39 87.2418C47.29 89.4418 45.82 99.3418 44.88 100.792C44.49 101.392 43.91 102.012 43.24 102.552C44.04 102.982 44.84 103.242 45.45 103.162L45.53 103.812C44.72 103.912 43.66 103.552 42.67 102.982C41.77 103.612 40.78 104.052 39.98 104.052ZM41.81 82.0918C41.8 82.0918 41.8 82.0918 41.79 82.0918C40.81 82.1318 39.06 85.2518 38.26 87.8018C37.61 89.8818 39.83 99.3118 40.8 100.582C41.23 101.142 41.91 101.722 42.64 102.192C43.33 101.662 43.96 101.022 44.34 100.432C45.21 99.0918 46.62 89.5118 45.79 87.4918C44.79 85.0218 42.8 82.0918 41.81 82.0918Z" fill="#455A64"/>
<path d="M46.46 103.442C46.48 103.972 46.07 104.422 45.54 104.442C45.01 104.462 44.56 104.052 44.54 103.522C44.52 102.992 44.93 102.542 45.46 102.522C45.99 102.502 46.44 102.912 46.46 103.442Z" fill="#263238"/>
<path d="M40.87 103.682C40.89 104.212 40.48 104.662 39.95 104.682C39.42 104.702 38.97 104.292 38.95 103.762C38.93 103.232 39.34 102.782 39.87 102.762C40.4 102.742 40.85 103.152 40.87 103.682Z" fill="#263238"/>
<path d="M46.57 91.5318L46.02 91.4918C45.9 91.4818 45.81 91.3818 45.82 91.2618C45.93 89.4318 45.87 88.0818 45.65 87.5518C44.68 85.1918 42.68 82.2318 41.8 82.2618C40.93 82.3018 39.18 85.4218 38.42 87.8518C38.25 88.4118 38.3 89.7518 38.57 91.5718C38.59 91.6918 38.51 91.8018 38.39 91.8218L37.84 91.9018C37.72 91.9218 37.61 91.8318 37.59 91.7118C37.29 89.6818 37.25 88.2818 37.48 87.5618C37.89 86.2518 39.82 81.3618 41.76 81.2818C43.7 81.2018 46.04 85.9118 46.56 87.1818C46.85 87.8818 46.93 89.2718 46.8 91.3318C46.79 91.4418 46.69 91.5318 46.57 91.5318Z" fill="#14A0BD"/>
<g opacity="0.2">
<g opacity="0.2">
<path opacity="0.2" d="M46.57 91.5318L46.02 91.4918C45.9 91.4818 45.81 91.3818 45.82 91.2618C45.93 89.4318 45.87 88.0818 45.65 87.5518C44.68 85.1918 42.68 82.2318 41.8 82.2618C40.93 82.3018 39.18 85.4218 38.42 87.8518C38.25 88.4118 38.3 89.7518 38.57 91.5718C38.59 91.6918 38.51 91.8018 38.39 91.8218L37.84 91.9018C37.72 91.9218 37.61 91.8318 37.59 91.7118C37.29 89.6818 37.25 88.2818 37.48 87.5618C37.89 86.2518 39.82 81.3618 41.76 81.2818C43.7 81.2018 46.04 85.9118 46.56 87.1818C46.85 87.8818 46.93 89.2718 46.8 91.3318C46.79 91.4418 46.69 91.5318 46.57 91.5318Z" fill="black"/>
</g>
</g>
<path d="M57.08 61.3818C58.56 61.5818 63.11 63.8318 65.26 70.5918C67.41 77.3518 67.28 87.9418 67.21 90.9018C67.14 93.8618 66.94 96.0818 66.94 96.0818H65.88C65.88 96.0818 66.03 92.3118 66.07 90.4118C66.23 82.0918 65.71 75.0018 64.06 70.7118C62.09 65.5918 59.81 63.9618 57.08 62.6618V61.3818Z" fill="#14A0BD"/>
<path opacity="0.2" d="M57.08 61.3818C58.56 61.5818 63.11 63.8318 65.26 70.5918C67.41 77.3518 67.28 87.9418 67.21 90.9018C67.14 93.8618 66.94 96.0818 66.94 96.0818H65.88C65.88 96.0818 66.03 92.3118 66.07 90.4118C66.23 82.0918 65.71 75.0018 64.06 70.7118C62.09 65.5918 59.81 63.9618 57.08 62.6618V61.3818Z" fill="black"/>
<path d="M66.24 100.402C68.3497 100.402 70.06 98.6916 70.06 96.5818C70.06 94.4721 68.3497 92.7618 66.24 92.7618C64.1303 92.7618 62.42 94.4721 62.42 96.5818C62.42 98.6916 64.1303 100.402 66.24 100.402Z" fill="#455A64"/>
<path d="M66.24 98.7519C67.4384 98.7519 68.41 97.7803 68.41 96.5819C68.41 95.3834 67.4384 94.4119 66.24 94.4119C65.0415 94.4119 64.07 95.3834 64.07 96.5819C64.07 97.7803 65.0415 98.7519 66.24 98.7519Z" fill="#37474F"/>
<path d="M44.73 126.592V158.582C44.73 158.872 44.64 159.082 44.48 159.182L43.03 160.022C42.96 160.062 42.89 160.072 42.8 160.072C42.67 160.072 42.53 160.032 42.38 159.952L6.10999 139.012C5.59999 138.712 5.17999 137.992 5.17999 137.382L5.18999 105.432C5.18999 105.142 5.29 104.932 5.45 104.832C5.45 104.832 5.46999 104.812 5.50999 104.792H5.52L6.88 103.992C6.95 103.952 7.03 103.932 7.12 103.932C7.25 103.932 7.37999 103.982 7.53999 104.062L26.55 115.022L28.8 116.322C28.8 116.322 31.56 117.912 32.16 118.242C32.21 118.272 32.23 118.292 32.25 118.292L43.79 124.952C43.85 124.992 43.92 125.032 43.98 125.092C44.16 125.232 44.32 125.432 44.45 125.662C44.63 125.962 44.73 126.292 44.73 126.592Z" fill="#14A0BD"/>
<path opacity="0.5" d="M44.46 125.672L43.06 126.482H43.05C43 126.412 42.96 126.342 42.91 126.272C42.81 126.132 42.69 126.012 42.58 125.912C42.52 125.862 42.45 125.812 42.39 125.772L30.85 119.122C30.56 118.952 27.96 117.462 27.43 117.162L26.05 116.362L6.13999 104.892C5.90999 104.752 5.7 104.732 5.53 104.802L6.88999 104.002C6.95999 103.962 7.04 103.942 7.13 103.942C7.26 103.942 7.4 103.982 7.55 104.072L26.56 115.032L28.81 116.332C28.81 116.332 31.57 117.922 32.17 118.252C32.22 118.282 32.24 118.302 32.26 118.302L43.8 124.962C43.86 125.002 43.93 125.042 43.99 125.102C44.17 125.242 44.33 125.442 44.46 125.672Z" fill="white"/>
<path d="M5.20999 105.432L5.18999 137.392C5.18999 137.992 5.61 138.722 6.13 139.022L42.5 160.022C42.87 160.232 43.33 159.972 43.33 159.542V127.422C43.33 127.122 43.23 126.792 43.06 126.502C42.89 126.212 42.65 125.952 42.4 125.802L30.86 119.142C30.57 118.972 27.96 117.482 27.44 117.192L6.14999 104.892C5.91999 104.752 5.69999 104.732 5.53999 104.802L5.49999 104.822C5.48999 104.822 5.49 104.832 5.48 104.832L5.46999 104.842C5.30999 104.942 5.20999 105.142 5.20999 105.432Z" fill="#14A0BD"/>
<path d="M43.06 126.482C43.01 126.412 42.96 126.342 42.92 126.272C42.97 126.342 43.01 126.412 43.06 126.482Z" fill="#14A0BD"/>
<path opacity="0.2" d="M42.99 160.042C43 160.042 43.02 160.032 43.03 160.032L44.48 159.192C44.64 159.092 44.73 158.882 44.73 158.592V126.592C44.73 126.292 44.62 125.962 44.45 125.672L43.05 126.492C43.22 126.782 43.32 127.112 43.32 127.412V159.532C43.33 159.772 43.18 159.962 42.99 160.042Z" fill="black"/>
<path d="M14.35 107.772C22.12 76.0118 26.12 66.2618 35.56 66.3918C38.31 69.6818 35.41 79.9318 33.59 84.9118C33.59 84.9118 25.24 105.302 23.69 112.592C22.33 118.992 20.79 127.042 20.88 132.532C20.9 133.502 21.3 134.432 21.96 135.152C23.73 137.072 23.74 138.622 24.89 140.742C25.79 142.402 26.77 143.032 26.49 143.402C26.13 143.882 24.99 144.512 23.58 143.622C22.87 143.172 22.4 142.642 21.37 141.502C21.37 141.502 21.62 145.482 23.09 148.802L25.06 149.942C25.06 149.942 24.46 151.992 19.69 150.622C14.3 149.072 12.37 148.412 11.8 139.272C11.64 136.642 11.39 132.492 11.7 129.162C12.51 120.492 13.1 112.882 14.35 107.772Z" fill="#9E6767"/>
<path d="M35.79 63.8318C35.79 63.8318 28.53 64.0918 26.25 67.5818C23.62 71.6118 21.31 78.7919 16.88 94.5419C12.45 110.302 11.1 121.802 10.87 130.672C10.87 130.672 16.42 133.262 21.54 130.302C21.54 130.302 23.81 116.592 25.82 109.302C27.83 102.012 34.28 86.2118 34.28 86.2118C34.28 86.2118 39.38 74.8018 35.79 63.8318Z" fill="#37474F"/>
<path d="M37.86 63.4518C32.48 64.0118 27.66 63.8418 25 68.8318C22.01 74.4518 15.3 94.7818 15.3 94.7818C15.3 94.7818 20.2 100.952 29.46 101.322L35.92 83.2218C35.92 83.2118 40.19 71.2318 37.86 63.4518Z" fill="#14A0BD"/>
<g opacity="0.6">
<path opacity="0.6" d="M37.86 63.4518C32.48 64.0118 27.66 63.8418 25 68.8318C22.01 74.4518 15.3 94.7818 15.3 94.7818C15.3 94.7818 20.2 100.952 29.46 101.322L35.92 83.2218C35.92 83.2118 40.19 71.2318 37.86 63.4518Z" fill="white"/>
</g>
<path d="M45.4 152.952C45.84 153.222 46.02 152.402 46.13 151.202L46.17 148.982C46.17 148.982 47.87 150.502 48.28 145.362C48.74 139.712 46.21 138.672 46.21 138.672C46.21 138.672 46.2 137.732 46.2 135.872C46.2 134.012 45.81 133.562 45.38 133.242L44.74 132.922V152.552C44.73 152.552 44.96 152.682 45.4 152.952Z" fill="#37474F"/>
<path d="M43.33 150.162C43.33 148.482 43.17 147.482 42.09 146.822C40.86 146.062 40.32 145.812 40.32 145.812L40 135.402C40 135.402 41.78 136.602 42.39 136.962C43 137.322 43.35 135.202 43.32 134.572L44.78 135.232L44.95 151.312L43.33 150.162Z" fill="#37474F"/>
<path d="M39.81 149.152C39.81 149.152 40.38 149.492 41.08 149.922C41.78 150.342 42.1 148.182 41.78 145.092L42.08 138.212C41.76 135.122 41.71 132.292 41 131.872L39.73 131.102L39.81 149.152Z" fill="#37474F"/>
<g clip-path="url(#clip0)">
<path d="M50.7138 35.3698L24.1995 41.3915L23.9179 40.8061L39.6022 14.9036L69.6413 13.4988L69.9301 14.099L50.7138 35.3698Z" fill="url(#paint0_linear)"/>
<path opacity="0.2" d="M69.6413 13.4987L39.7118 14.8979L39.6023 14.9036L39.599 14.9078L40.1001 15.9491L40.1955 15.9032L46.4733 28.9505L47.3103 28.9421L69.9301 14.0989L69.6413 13.4987Z" fill="url(#paint1_linear)"/>
<path opacity="0.9" d="M40.1005 15.9499L39.5994 14.9086L23.9183 40.8069L24.1999 41.3923L46.5994 28.99L40.2023 15.9009L40.1005 15.9499Z" fill="url(#paint2_linear)"/>
<path d="M50.7138 35.3698L24.1995 41.3915L39.89 15.5017L69.9248 14.0989L50.7138 35.3698Z" fill="url(#paint3_linear)"/>
<path d="M63.3763 28.5798C63.7998 29.46 58.8114 33.6075 51.7909 37.2988C44.7704 40.9902 38.3107 42.6932 37.9515 41.9467C34.8207 35.44 31.1757 32.2288 44.9733 25.0676C59.6261 17.4636 59.2502 21.0738 63.3763 28.5798Z" fill="url(#paint4_linear)"/>
<path opacity="0.2" d="M49.5129 33.0747C42.4924 36.766 37.3151 40.738 37.9515 41.9467C38.5879 43.1553 44.7944 41.1432 51.8149 37.4518C58.8354 33.7605 64.0127 29.7885 63.3763 28.5798C62.7399 27.3712 56.5334 29.3833 49.5129 33.0747ZM51.596 37.0348C50.729 37.4911 49.856 37.9295 48.9992 38.3417C42.2507 41.5888 38.7443 42.145 38.3655 41.7214C38.2002 41.0304 41.9526 37.5821 49.7318 33.4917C50.5988 33.0354 51.4718 32.597 52.3286 32.1848C59.077 28.9377 62.5835 28.3815 62.9623 28.8051C63.1276 29.4961 59.3751 32.9444 51.596 37.0348Z" fill="url(#paint5_linear)"/>
</g>
<defs>
<linearGradient id="paint0_linear" x1="36.0511" y1="10.6632" x2="52.9862" y2="36.8117" gradientUnits="userSpaceOnUse">
<stop stop-color="#4D5273"/>
<stop offset="0.1352" stop-color="#40445D"/>
<stop offset="0.3408" stop-color="#303243"/>
<stop offset="0.5514" stop-color="#242630"/>
<stop offset="0.7681" stop-color="#1D1E25"/>
<stop offset="1" stop-color="#1B1C21"/>
</linearGradient>
<linearGradient id="paint1_linear" x1="47.6662" y1="5.18179" x2="59.3162" y2="23.1698" gradientUnits="userSpaceOnUse">
<stop stop-color="#4D5273"/>
<stop offset="0.1352" stop-color="#40445D"/>
<stop offset="0.3408" stop-color="#303243"/>
<stop offset="0.5514" stop-color="#242630"/>
<stop offset="0.7681" stop-color="#1D1E25"/>
<stop offset="1" stop-color="#1B1C21"/>
</linearGradient>
<linearGradient id="paint2_linear" x1="26.1258" y1="19.2344" x2="37.5213" y2="36.8295" gradientUnits="userSpaceOnUse">
<stop stop-color="#4D5273"/>
<stop offset="0.1352" stop-color="#40445D"/>
<stop offset="0.3408" stop-color="#303243"/>
<stop offset="0.5514" stop-color="#242630"/>
<stop offset="0.7681" stop-color="#1D1E25"/>
<stop offset="1" stop-color="#1B1C21"/>
</linearGradient>
<linearGradient id="paint3_linear" x1="36.4572" y1="11.3702" x2="52.912" y2="36.7771" gradientUnits="userSpaceOnUse">
<stop stop-color="#4D5273"/>
<stop offset="0.1352" stop-color="#40445D"/>
<stop offset="0.3408" stop-color="#303243"/>
<stop offset="0.5514" stop-color="#242630"/>
<stop offset="0.7681" stop-color="#1D1E25"/>
<stop offset="1" stop-color="#1B1C21"/>
</linearGradient>
<linearGradient id="paint4_linear" x1="35.639" y1="37.3084" x2="61.5714" y2="24.8308" gradientUnits="userSpaceOnUse">
<stop stop-color="#4D5273"/>
<stop offset="0.1352" stop-color="#40445D"/>
<stop offset="0.3408" stop-color="#303243"/>
<stop offset="0.5514" stop-color="#242630"/>
<stop offset="0.7681" stop-color="#1D1E25"/>
<stop offset="1" stop-color="#1B1C21"/>
</linearGradient>
<linearGradient id="paint5_linear" x1="37.7297" y1="41.4867" x2="63.5972" y2="29.0404" gradientUnits="userSpaceOnUse">
<stop stop-color="#4D5273"/>
<stop offset="0.1352" stop-color="#40445D"/>
<stop offset="0.3408" stop-color="#303243"/>
<stop offset="0.5514" stop-color="#242630"/>
<stop offset="0.7681" stop-color="#1D1E25"/>
<stop offset="1" stop-color="#1B1C21"/>
</linearGradient>
<clipPath id="clip0">
<rect x="16.7462" y="25.901" width="59.7378" height="26.035" transform="rotate(-25.6949 16.7462 25.901)" fill="white"/>
</clipPath>
</defs>
</svg>
