<?xml version="1.0" encoding="utf-8"?>
<!-- Generator: Adobe Illustrator 24.1.2, SVG Export Plug-In . SVG Version: 6.00 Build 0)  -->
<svg version="1.1" id="Lager_1" xmlns="http://www.w3.org/2000/svg" xmlns:xlink="http://www.w3.org/1999/xlink" x="0px" y="0px"
	 viewBox="0 0 288 560" style="enable-background:new 0 0 288 560;" xml:space="preserve">
<style type="text/css">
	.st0{fill:#9E6767;}
	.st1{fill:#455A64;}
	.st2{fill:#14A0BD;}
	.st3{opacity:0.9;fill:#FFFFFF;enable-background:new    ;}
	.st4{opacity:0.8;fill:#FFFFFF;enable-background:new    ;}
	.st5{fill:#FAFAFA;}
	.st6{fill:#EBEBEB;}
	.st7{opacity:0.6;fill:#FFFFFF;enable-background:new    ;}
	.st8{opacity:0.2;enable-background:new    ;}
	.st9{fill:#37474F;}
	.st10{opacity:0.75;fill:#FFFFFF;enable-background:new    ;}
	.st11{fill:#874C4C;}
	.st12{fill:#263238;}
	.st13{opacity:0.2;}
	.st14{opacity:0.5;fill:#FFFFFF;enable-background:new    ;}
	.st15{opacity:0.6;}
	.st16{fill:url(#SVGID_1_);}
	.st17{opacity:0.2;fill:url(#SVGID_2_);enable-background:new    ;}
	.st18{opacity:0.9;fill:url(#SVGID_3_);enable-background:new    ;}
	.st19{fill:url(#SVGID_4_);}
	.st20{fill:url(#SVGID_5_);}
	.st21{fill:url(#SVGID_6_);}
	.st22{fill:url(#SVGID_7_);}
	.st23{opacity:0.5;fill:url(#SVGID_8_);enable-background:new    ;}
	.st24{opacity:0.5;fill:url(#SVGID_9_);enable-background:new    ;}
</style>
<path class="st0" d="M164.91,370.96c-0.11-2.89,2.2-31.42,2.2-31.42l-13.84,9.15c1.46,16.7,2.4,21.93,2.46,24.71
	c-0.02,0.06-0.09,0.3-0.08,0.71c0.01,3.3,4.1,5.08,7.29,7.29c1.26,0.87,4.92,3.44,8.63,5.13c2.32,1.06,7.02,1.16,7.61-0.2
	c-3.88-2.7-9.53-6.75-12.61-9.83C165.08,375.02,165.02,373.85,164.91,370.96z"/>
<path class="st1" d="M185.79,389.88c0.2,0,0.5,2-0.58,2.85c-1.25,0.98-4.91,2.59-9.75,2.02s-7.46-1.94-9.4-3.41
	c-1.94-1.48-4.65-3.56-6.84-4c-2.03-0.41-4.24-1.25-4.89-1.82s-0.56-3.12-0.56-3.12L185.79,389.88z"/>
<path class="st2" d="M155.7,372.58c0,0-0.61,0.01-0.73,0.6c-0.15,0.7-0.31,2.74-0.63,3.9c-0.44,1.6-0.74,4.88-0.48,6.19
	c0.27,1.31,3.58,2.21,5.7,2.95c2.16,0.75,4.67,2.3,6.86,3.95c2.27,1.71,7.06,3.49,10.21,3.47c3.73-0.02,7.93-1.13,8.9-2.7
	c1.19-1.95,0.26-3.08-5.28-5.42c-1.05-0.44-4.73-2.43-5.98-3.15c-3.39-1.95-6.75-4.66-8.31-8.1c-0.18-0.4-0.37-0.85-0.8-1.05
	c-0.32-0.16-0.71-0.13-1.08-0.09c-0.92,0.12-1.82,0.37-2.66,0.73c-0.74,0.32-1.8,0.7-1.78,1.57c0.01,0.3,0.1,0.6,0.21,0.88
	c0.07,0.18,0.12,0.41-0.05,0.52c-0.16,0.1-0.37-0.01-0.52-0.13c-0.58-0.47-1-1.08-1.49-1.63c-0.26-0.3-0.55-0.58-0.88-0.81
	c-0.3-0.21-0.68-0.32-0.95-0.56C155.63,373.37,155.71,372.99,155.7,372.58z"/>
<path class="st3" d="M155.7,372.58c0,0-0.61,0.01-0.73,0.6c-0.15,0.7-0.31,2.74-0.63,3.9c-0.44,1.6-0.74,4.88-0.48,6.19
	c0.27,1.31,3.58,2.21,5.7,2.95c2.16,0.75,4.67,2.3,6.86,3.95c2.27,1.71,7.06,3.49,10.21,3.47c3.73-0.02,7.93-1.13,8.9-2.7
	c1.19-1.95,0.26-3.08-5.28-5.42c-1.05-0.44-4.73-2.43-5.98-3.15c-3.39-1.95-6.75-4.66-8.31-8.1c-0.18-0.4-0.37-0.85-0.8-1.05
	c-0.32-0.16-0.71-0.13-1.08-0.09c-0.92,0.12-1.82,0.37-2.66,0.73c-0.74,0.32-1.8,0.7-1.78,1.57c0.01,0.3,0.1,0.6,0.21,0.88
	c0.07,0.18,0.12,0.41-0.05,0.52c-0.16,0.1-0.37-0.01-0.52-0.13c-0.58-0.47-1-1.08-1.49-1.63c-0.26-0.3-0.55-0.58-0.88-0.81
	c-0.3-0.21-0.68-0.32-0.95-0.56C155.63,373.37,155.71,372.99,155.7,372.58z"/>
<path class="st2" d="M166.42,390.17c-0.97-0.73-1.99-1.43-3.02-2.05c0,0,6.51,3.61,9.14,1.97c1.69-1.05,0.89-2.34,0.85-2.75
	c-0.04-0.41,4.14-2.16,5.78-2.34c0.46,0.23,0.84,0.42,1.08,0.52c5.53,2.34,6.47,3.47,5.28,5.42c-0.96,1.58-4.01,2.81-8.83,2.81
	C173.54,393.74,168.69,391.88,166.42,390.17z"/>
<path class="st4" d="M166.42,390.17c-0.97-0.73-1.99-1.43-3.02-2.05c0,0,6.51,3.61,9.14,1.97c1.69-1.05,0.89-2.34,0.85-2.75
	c-0.04-0.41,4.14-2.16,5.78-2.34c0.46,0.23,0.84,0.42,1.08,0.52c5.53,2.34,6.47,3.47,5.28,5.42c-0.96,1.58-4.01,2.81-8.83,2.81
	C173.54,393.74,168.69,391.88,166.42,390.17z"/>
<path class="st2" d="M172.93,386.14c3.44,1.25,1.97,1.84,1.01,1.97c-0.96,0.13-6.76-2.96-10.29-5.51c-3.68-2.66-6.01-5.56-7.38-6.54
	c-0.51-0.36-1.06-0.81-1.55-1.23c0.09-0.69,0.16-1.32,0.23-1.65c0.13-0.59,0.73-0.6,0.73-0.6c0.02,0.41-0.06,0.79,0.27,1.09
	c0.27,0.24,0.65,0.35,0.95,0.56c0.33,0.23,0.61,0.52,0.88,0.81c0.49,0.55,0.91,1.16,1.49,1.63
	C162.29,380.16,169.49,384.88,172.93,386.14z"/>
<path class="st5" d="M173.7,387.64c-0.08,0-0.15-0.02-0.22-0.07c-0.15-0.11-0.17-0.3-0.05-0.44c0.97-1.08,3.77-2.52,6.3-2.27
	c0.19,0.02,0.32,0.17,0.3,0.34c-0.02,0.17-0.17,0.29-0.38,0.28c-2.36-0.23-4.93,1.18-5.7,2.04
	C173.89,387.6,173.8,387.64,173.7,387.64z"/>
<path class="st5" d="M170.7,385.96c-0.08,0-0.15-0.02-0.22-0.07c-0.15-0.11-0.17-0.3-0.05-0.44c0.97-1.08,3.77-2.52,6.3-2.27
	c0.19,0.02,0.32,0.17,0.3,0.34c-0.02,0.17-0.18,0.29-0.37,0.28c-2.37-0.23-4.93,1.18-5.7,2.04
	C170.89,385.92,170.79,385.96,170.7,385.96z"/>
<path class="st5" d="M167.69,384.36c-0.08,0-0.15-0.02-0.22-0.07c-0.15-0.11-0.17-0.3-0.05-0.44c0.97-1.08,3.77-2.52,6.3-2.27
	c0.19,0.02,0.32,0.17,0.3,0.34c-0.02,0.17-0.18,0.29-0.37,0.28c-2.37-0.23-4.93,1.18-5.7,2.04
	C167.89,384.32,167.79,384.36,167.69,384.36z"/>
<path class="st5" d="M164.91,382.54c-0.08,0-0.15-0.02-0.22-0.07c-0.15-0.11-0.17-0.3-0.05-0.44c0.97-1.08,3.78-2.52,6.3-2.27
	c0.19,0.02,0.32,0.17,0.3,0.34c-0.02,0.17-0.18,0.29-0.38,0.28c-2.36-0.23-4.93,1.18-5.7,2.04
	C165.11,382.5,165.01,382.54,164.91,382.54z"/>
<path class="st5" d="M162.19,380.72c-0.07,0-0.15-0.02-0.21-0.07c-0.15-0.11-0.17-0.3-0.06-0.44c1.34-1.54,4.35-2.55,6.88-2.3
	c0.19,0.02,0.32,0.17,0.3,0.34c-0.02,0.17-0.18,0.29-0.37,0.28c-2.28-0.23-5.09,0.7-6.28,2.06
	C162.39,380.68,162.29,380.72,162.19,380.72z"/>
<path class="st0" d="M138.17,349.7l-14.01-0.25c0.21,9.35,1.69,19.73,1.94,28.5c0.05,1.65-0.04,12.83,0.58,16.23
	c0.94,5.1,6.99,4.42,7.32,1.36c0.32-3.05-0.39-16.11-0.37-17.45c-0.05-5.63,2.58-15.12,3.97-25.22
	C137.66,352.36,138.1,350.18,138.17,349.7z"/>
<path class="st1" d="M136.89,397.66c0.14,3-0.15,5.02-1.12,6.88c-0.97,1.86-3.11,2.61-5.39,2.3s-5.29-1.42-6.21-3.93
	c-0.92-2.51-0.99-4.29-0.79-7.1L136.89,397.66z"/>
<path class="st2" d="M125.64,376.87c-0.91,0.15-0.74,4.18-0.82,8.24c-0.09,4.35-1.31,6.26-1.42,9.83c-0.13,4.08,0.3,5.86,2.12,8.15
	c1.82,2.29,7.59,4.18,9.91,0.44c1.89-3.04,1.64-6.2,0.99-10.21c-0.67-4.14-1.18-7.04-1.34-10.21c-0.16-3.03-0.25-5.97-1.08-6.24
	c-0.01,0.45-0.01,1.02-0.03,1.46c-0.01,0.34,0.08,1.98-0.44,2.04c-0.09-0.38-0.12-0.74-0.14-1.13c-0.01-0.34-0.09-0.71-0.36-0.95
	c-0.28-0.24-0.68-0.29-1.06-0.32c-0.92-0.08-1.85-0.14-2.77-0.13c-0.46,0-0.92,0.03-1.38,0.07c-0.37,0.04-0.81,0.11-1.15,0.26
	c-0.21,0.09-0.39,0.25-0.45,0.45c-0.04,0.15-0.01,0.31,0,0.46c0.03,0.28,0.02,0.56-0.02,0.84c-0.02,0.12-0.09,0.28-0.23,0.26
	c-0.11-0.01-0.16-0.13-0.18-0.23c-0.06-0.49-0.03-0.85-0.07-1.41c-0.02-0.26-0.01-0.62-0.04-0.89
	C125.67,377.39,125.65,377.13,125.64,376.87z"/>
<path class="st3" d="M125.64,376.87c-0.91,0.15-0.74,4.18-0.82,8.24c-0.09,4.35-1.31,6.26-1.42,9.83c-0.13,4.08,0.3,5.86,2.12,8.15
	c1.82,2.29,7.59,4.18,9.91,0.44c1.89-3.04,1.64-6.2,0.99-10.21c-0.67-4.14-1.18-7.04-1.34-10.21c-0.16-3.03-0.25-5.97-1.08-6.24
	c-0.01,0.45-0.01,1.02-0.03,1.46c-0.01,0.34,0.08,1.98-0.44,2.04c-0.09-0.38-0.12-0.74-0.14-1.13c-0.01-0.34-0.09-0.71-0.36-0.95
	c-0.28-0.24-0.68-0.29-1.06-0.32c-0.92-0.08-1.85-0.14-2.77-0.13c-0.46,0-0.92,0.03-1.38,0.07c-0.37,0.04-0.81,0.11-1.15,0.26
	c-0.21,0.09-0.39,0.25-0.45,0.45c-0.04,0.15-0.01,0.31,0,0.46c0.03,0.28,0.02,0.56-0.02,0.84c-0.02,0.12-0.09,0.28-0.23,0.26
	c-0.11-0.01-0.16-0.13-0.18-0.23c-0.06-0.49-0.03-0.85-0.07-1.41c-0.02-0.26-0.01-0.62-0.04-0.89
	C125.67,377.39,125.65,377.13,125.64,376.87z"/>
<path class="st2" d="M123.47,393.77c-0.02,0.59-0.14,4.48,1.09,5.07c1.33,0.64,1.68-2.45,1.68-2.45s2.84-1.08,7.29,0.22
	c-0.15,0.64,0.74,2.64,1.86,2.1c1.11-0.54,1.08-4.99,1.08-5.05c0.6,3.84,0.79,6.9-1.04,9.86c-2.32,3.73-8.09,1.85-9.91-0.44
	s-2.26-4.07-2.12-8.15C123.4,394.52,123.43,394.14,123.47,393.77z"/>
<path class="st4" d="M123.47,393.77c-0.02,0.59-0.14,4.48,1.09,5.07c1.33,0.64,1.68-2.45,1.68-2.45s2.84-1.08,7.29,0.22
	c-0.15,0.64,0.74,2.64,1.86,2.1c1.11-0.54,1.08-4.99,1.08-5.05c0.6,3.84,0.79,6.9-1.04,9.86c-2.32,3.73-8.09,1.85-9.91-0.44
	s-2.26-4.07-2.12-8.15C123.4,394.52,123.43,394.14,123.47,393.77z"/>
<path class="st2" d="M126.61,396.61c0.14,1.46-1.49,1.11-1.79-0.94c-0.3-2.05,0.4-7.04,0-10.57c0.08-4.06-0.09-8.09,0.82-8.24
	c0,0.05,0.01,0.1,0.01,0.15l0.1,2.05c0.01,0.3,0.01,0.56,0.04,0.88c0.31,2.97,0.48,8.75,0.5,11.49
	C126.32,394.17,126.46,395.16,126.61,396.61z"/>
<path class="st2" d="M133.03,396.61c0.14-1.46,0.29-2.45,0.31-5.19c0.02-2.72,0.19-8.43,0.49-11.42c0.17-0.52,0.13-1.44,0.14-1.69
	c0.02-0.41,0.02-0.93,0.02-1.36c0-0.03,0.01-0.06,0.01-0.09c0.6,0.2,0.82,1.81,0.95,3.83c0.01,1.17-0.03,2.63-0.13,4.4
	c-0.4,3.53,0.3,8.55,0.01,10.6C134.53,397.75,132.89,398.07,133.03,396.61z"/>
<path class="st5" d="M133.63,396.72c-0.04,0-0.09-0.01-0.13-0.02c-0.03-0.01-3.54-1.25-7.14-0.02c-0.18,0.06-0.37-0.02-0.44-0.18
	c-0.07-0.16,0.02-0.34,0.2-0.4c3.86-1.32,7.48-0.03,7.64,0.02c0.17,0.06,0.26,0.24,0.19,0.4
	C133.9,396.65,133.77,396.72,133.63,396.72z"/>
<path class="st5" d="M134.05,393.49c-0.04,0-0.08-0.01-0.12-0.02c-0.04-0.01-3.96-1.26-8-0.02c-0.18,0.05-0.37-0.03-0.43-0.19
	s0.04-0.34,0.21-0.39c4.27-1.31,8.28-0.03,8.45,0.02c0.18,0.06,0.27,0.24,0.21,0.4C134.32,393.41,134.19,393.49,134.05,393.49z"/>
<path class="st5" d="M125.83,390.43c-0.13,0-0.25-0.07-0.31-0.18c-0.08-0.16,0-0.34,0.17-0.41c3.97-1.64,8.25-0.11,8.43-0.05
	c0.18,0.06,0.26,0.24,0.19,0.4c-0.07,0.16-0.27,0.23-0.44,0.17c-0.04-0.01-4.19-1.49-7.89,0.04
	C125.92,390.42,125.88,390.43,125.83,390.43z"/>
<path class="st5" d="M125.75,387.58c-0.13,0-0.25-0.07-0.31-0.18c-0.08-0.16-0.01-0.34,0.16-0.41c4.36-1.88,8.42-0.16,8.59-0.09
	s0.24,0.26,0.16,0.41c-0.08,0.15-0.29,0.22-0.46,0.15c-0.04-0.02-3.94-1.67-8,0.09C125.85,387.57,125.8,387.58,125.75,387.58z"/>
<path class="st6" d="M125.68,384.38c-0.13,0-0.25-0.06-0.31-0.17c-0.08-0.15-0.01-0.34,0.15-0.42c4.08-1.83,8.48-0.08,8.66,0
	c0.17,0.07,0.25,0.25,0.17,0.41s-0.28,0.23-0.45,0.16c-0.04-0.02-4.29-1.7-8.08,0C125.78,384.37,125.73,384.38,125.68,384.38z"/>
<path class="st2" d="M131.18,252.97c-1.85,3.92-4.01,11.46-4.4,16.5c-1.59,20.7-2.39,50.75-2.39,50.75
	c-0.18,2.16-1.55,7.07-2.48,16.59c-1.09,11.25,1.94,49.02,1.94,49.02s6.73,4.01,11.96-0.55c0,0,6.08-52.39,7.5-63.58
	c1.23-9.76,4.67-30.87,4.67-30.87l2.65,32.29c0,0-0.37,8.78-0.11,14.46c0.3,6.6,3.53,39.16,3.53,39.16s9.24,3.13,13.38-1.31
	c0,0,0.98-46.65,1.12-54.6c0.27-15.58-0.54-44.64-1.09-60.47L131.18,252.97z"/>
<path class="st7" d="M131.18,252.97c-1.85,3.92-4.01,11.46-4.4,16.5c-1.59,20.7-2.39,50.75-2.39,50.75
	c-0.18,2.16-1.55,7.07-2.48,16.59c-1.09,11.25,1.94,49.02,1.94,49.02s6.73,4.01,11.96-0.55c0,0,6.08-52.39,7.5-63.58
	c1.23-9.76,4.67-30.87,4.67-30.87l2.65,32.29c0,0-0.37,8.78-0.11,14.46c0.3,6.6,3.53,39.16,3.53,39.16s9.24,3.13,13.38-1.31
	c0,0,0.98-46.65,1.12-54.6c0.27-15.58-0.54-44.64-1.09-60.47L131.18,252.97z"/>
<path class="st8" d="M147.98,290.82l1.44-9.93c0,0,8.39-1.12,12.19-4.69c0,0-2.86,5.23-9.89,6.25l-1.48,8.98l-0.1,27.95
	L147.98,290.82z"/>
<path class="st0" d="M174.9,255.85l-6.56,8.12c0,0-4.56-7.56-4.37-7.56s5.77-9.17,5.77-9.17L174.9,255.85z"/>
<path class="st9" d="M153.9,204.54c5.14-0.08,10.85-0.22,15.82,5.69c3.86,4.59,14.29,18.82,16.39,22.46
	c2.37,4.12,2.7,5.79,0.84,8.87c-1.76,2.93-13,15.86-13,15.86c-2.46-1.92-4.24-4.81-5.61-8.27l6.56-10.96l-12.6-18.62L153.9,204.54z"
	/>
<path class="st2" d="M153.57,204.32c8.02-0.68,11.5,0.45,14.56,3.69c2.14,2.27,15.25,19.79,15.25,19.79s-0.55,3.46-10.29,8.64
	l-10.64-12.45L153.57,204.32z"/>
<path class="st7" d="M153.57,204.32c8.02-0.68,11.5,0.45,14.56,3.69c2.14,2.27,15.25,19.79,15.25,19.79s-0.55,3.46-10.29,8.64
	l-10.64-12.45L153.57,204.32z"/>
<path class="st2" d="M141.09,204.69c-1.81,0.43-8.26,0.44-12.51,1.95c-2.31,0.82-2.83,3.7-3.11,7.01c-0.61,7.07,0.5,20.33,0.5,20.33
	l-0.09,33.82c5.86,4.27,29.93,6.43,42.25-2.57c0,0-1.51-40.28-1.51-46.55s-3.48-13.8-13.1-14.36L141.09,204.69z"/>
<path class="st10" d="M141.09,204.69c-1.81,0.43-8.26,0.44-12.51,1.95c-2.31,0.82-2.83,3.7-3.11,7.01
	c-0.61,7.07,0.5,20.33,0.5,20.33l-0.09,33.82c5.86,4.27,29.93,6.43,42.25-2.57c0,0-1.51-40.28-1.51-46.55s-3.48-13.8-13.1-14.36
	L141.09,204.69z"/>
<path class="st1" d="M152.75,206.5c-2.14,1.74-7.86,2.23-11.83,0.63c3,3.45,8.3,8.47,12.14,11.46
	C154.21,215.68,154.33,210.66,152.75,206.5z"/>
<path d="M143.07,179.47c0,6,5.05,10.87,11.29,10.87c6.23,0,11.29-4.86,11.29-10.87c0-6-5.05-10.87-11.29-10.87
	S143.07,173.48,143.07,179.47z"/>
<path d="M134.84,187.2c0,0,1.83,8.27,2.56,9.64c0.73,1.36,2.25,1.74,2.25,1.74l-0.13-5.82L134.84,187.2z"/>
<path d="M137.14,175.36c0,0-1.97-0.33-3.51,1.18c-1.51,1.48-0.66,6.12,1.21,10.67l3.45,0.39L137.14,175.36z"/>
<path class="st0" d="M139.32,187.58c-0.69,0.39-1.68-0.88-2.53-1.74c-0.85-0.86-3.63-2.03-5.02,0.78c-1.41,2.87,1.22,6.66,3.41,7.32
	c3.77,1.14,4.34-1.19,4.34-1.19l0.28,13.51c2.61,3.22,8.88,9.04,13.26,12.32c1.29-3.15,1.29-8.85-0.97-13.06l-0.01-3.99
	c0,0,3.42,0.5,5.09,0.25c2.78-0.41,4.52-2.52,5.36-5.41c1.35-4.65,1.87-8.39,0.72-17.53c-1.26-10.01-13.35-10.12-19.89-6.16
	C136.83,176.64,139.32,187.58,139.32,187.58z"/>
<path d="M163.05,174.37c-2.28,1.78-3.77,2.73-8.18,2.89c-4.99,0.17-8.75-1.66-8.75-1.66c-0.23,0.9-0.46,1.93-1.3,2.75
	c-1.57,1.54-2.48,1.58-3.09,1.95c-0.24,1.8-0.23,4.11-0.34,5.93c-0.04,0.62-0.04,3.8-1.54,2.89c-0.49-0.3-0.95-1.02-1.31-1.42
	c-0.56-0.63-1.1-1.3-1.73-1.86c-1.19-1.04,0.35-10.49,0.35-10.49s-1.47-2.68,0.82-5.1c1.63-1.73,3.91-3.84,11.32-2.99
	c5.28,0.6,11.03,2.19,15.67-0.01C165.59,169.8,164.68,173.09,163.05,174.37z"/>
<path d="M137.14,176.09l-4.18-2.16c0.59-1.16,2.01-1.61,3.16-1.01C137.28,173.52,137.74,174.93,137.14,176.09z"/>
<path class="st11" d="M152.08,201.53c0,0-6.2-1.2-8.36-2.31c-1.45-0.74-2.64-2.03-2.99-2.85c0,0,0.41,1.77,1.7,3.36
	c1.58,1.94,9.65,3.39,9.65,3.39V201.53z"/>
<path d="M150.93,186.06c0,0.73-0.6,1.33-1.33,1.33c-0.73,0-1.33-0.6-1.33-1.33s0.59-1.33,1.33-1.33
	C150.33,184.72,150.93,185.32,150.93,186.06z"/>
<path d="M149.6,181.72l-2.75,1.46c-0.41-0.76-0.12-1.7,0.64-2.11C148.25,180.67,149.19,180.96,149.6,181.72z"/>
<path class="st11" d="M149.9,193.51l4.5,1.63c-0.45,1.24-1.81,1.89-3.06,1.43C150.1,196.12,149.46,194.75,149.9,193.51z"/>
<path d="M162.15,182.7l-2.51-1.86c0.51-0.69,1.49-0.84,2.18-0.32C162.51,181.02,162.66,182.01,162.15,182.7z"/>
<path d="M161.32,185.91c0,0.71-0.58,1.28-1.29,1.28c-0.71,0-1.29-0.58-1.29-1.29c0-0.71,0.58-1.28,1.29-1.28
	C160.74,184.63,161.32,185.21,161.32,185.91z"/>
<path class="st11" d="M154.97,184.21l0.44,7.79l4.23-1.39L154.97,184.21z"/>
<path class="st2" d="M138.81,205.57c-1.64,0.35-2.09,7.28-1.69,15.67c0.07,1.39,0.16,2.48,0.13,3.03l-0.93-0.04
	c0.02-0.5-0.05-1.57-0.13-2.93c-0.42-6.63-0.47-16.27,2.43-16.71c0.94-0.16,1.17-0.11,1.17-0.11v0.99L138.81,205.57z"/>
<path class="st8" d="M138.81,205.57c-1.64,0.35-2.09,7.28-1.69,15.67c0.07,1.39,0.16,2.48,0.13,3.03l-0.93-0.04
	c0.02-0.5-0.05-1.57-0.13-2.93c-0.42-6.63-0.47-16.27,2.43-16.71c0.94-0.16,1.17-0.11,1.17-0.11v0.99L138.81,205.57z"/>
<path class="st1" d="M134.98,246.23c-0.03,0-0.05,0-0.08,0l0.02-0.65c0.58,0.02,1.38-0.31,2.15-0.8c-0.71-0.48-1.35-1.06-1.79-1.62
	c-1.05-1.36-3.36-11.1-2.65-13.37c0.6-1.9,2.47-6.1,4.13-6.17c0.01,0,0.03,0,0.04,0c1.66,0,3.85,3.97,4.59,5.8
	c0.9,2.2-0.57,12.1-1.51,13.55c-0.39,0.6-0.97,1.22-1.64,1.76c0.8,0.43,1.6,0.69,2.21,0.61l0.08,0.65c-0.81,0.1-1.87-0.26-2.86-0.83
	C136.77,245.79,135.78,246.23,134.98,246.23z M136.81,224.27c-0.01,0-0.01,0-0.02,0c-0.98,0.04-2.73,3.16-3.53,5.71
	c-0.65,2.08,1.57,11.51,2.54,12.78c0.43,0.56,1.11,1.14,1.84,1.61c0.69-0.53,1.32-1.17,1.7-1.76c0.87-1.34,2.28-10.92,1.45-12.94
	C139.79,227.2,137.8,224.27,136.81,224.27z"/>
<path class="st12" d="M141.46,245.62c0.02,0.53-0.39,0.98-0.92,1c-0.53,0.02-0.98-0.39-1-0.92c-0.02-0.53,0.39-0.98,0.92-1
	C140.99,244.68,141.44,245.09,141.46,245.62z"/>
<path class="st12" d="M135.87,245.86c0.02,0.53-0.39,0.98-0.92,1s-0.98-0.39-1-0.92c-0.02-0.53,0.39-0.98,0.92-1
	C135.4,244.92,135.85,245.33,135.87,245.86z"/>
<path class="st2" d="M141.57,233.71l-0.55-0.04c-0.12-0.01-0.21-0.11-0.2-0.23c0.11-1.83,0.05-3.18-0.17-3.71
	c-0.97-2.36-2.97-5.32-3.85-5.29c-0.87,0.04-2.62,3.16-3.38,5.59c-0.17,0.56-0.12,1.9,0.15,3.72c0.02,0.12-0.06,0.23-0.18,0.25
	l-0.55,0.08c-0.12,0.02-0.23-0.07-0.25-0.19c-0.3-2.03-0.34-3.43-0.11-4.15c0.41-1.31,2.34-6.2,4.28-6.28
	c1.94-0.08,4.28,4.63,4.8,5.9c0.29,0.7,0.37,2.09,0.24,4.15C141.79,233.62,141.69,233.71,141.57,233.71z"/>
<g class="st13">
	<g class="st13">
		<path class="st8" d="M141.57,233.71l-0.55-0.04c-0.12-0.01-0.21-0.11-0.2-0.23c0.11-1.83,0.05-3.18-0.17-3.71
			c-0.97-2.36-2.97-5.32-3.85-5.29c-0.87,0.04-2.62,3.16-3.38,5.59c-0.17,0.56-0.12,1.9,0.15,3.72c0.02,0.12-0.06,0.23-0.18,0.25
			l-0.55,0.08c-0.12,0.02-0.23-0.07-0.25-0.19c-0.3-2.03-0.34-3.43-0.11-4.15c0.41-1.31,2.34-6.2,4.28-6.28
			c1.94-0.08,4.28,4.63,4.8,5.9c0.29,0.7,0.37,2.09,0.24,4.15C141.79,233.62,141.69,233.71,141.57,233.71z"/>
	</g>
</g>
<path class="st2" d="M152.08,203.56c1.48,0.2,6.03,2.45,8.18,9.21c2.15,6.76,2.02,17.35,1.95,20.31c-0.07,2.96-0.27,5.18-0.27,5.18
	h-1.06c0,0,0.15-3.77,0.19-5.67c0.16-8.32-0.36-15.41-2.01-19.7c-1.97-5.12-4.25-6.75-6.98-8.05V203.56L152.08,203.56z"/>
<path class="st8" d="M152.08,203.56c1.48,0.2,6.03,2.45,8.18,9.21c2.15,6.76,2.02,17.35,1.95,20.31c-0.07,2.96-0.27,5.18-0.27,5.18
	h-1.06c0,0,0.15-3.77,0.19-5.67c0.16-8.32-0.36-15.41-2.01-19.7c-1.97-5.12-4.25-6.75-6.98-8.05V203.56L152.08,203.56z"/>
<path class="st1" d="M161.24,242.58c2.11,0,3.82-1.71,3.82-3.82c0-2.11-1.71-3.82-3.82-3.82c-2.11,0-3.82,1.71-3.82,3.82
	C157.42,240.87,159.13,242.58,161.24,242.58z"/>
<path class="st9" d="M161.24,240.93c1.2,0,2.17-0.97,2.17-2.17c0-1.2-0.97-2.17-2.17-2.17c-1.2,0-2.17,0.97-2.17,2.17
	C159.07,239.95,160.04,240.93,161.24,240.93z"/>
<path class="st2" d="M139.73,268.77v31.99c0,0.29-0.09,0.5-0.25,0.6l-1.45,0.84c-0.07,0.04-0.14,0.05-0.23,0.05
	c-0.13,0-0.27-0.04-0.42-0.12l-36.27-20.94c-0.51-0.3-0.93-1.02-0.93-1.63l0.01-31.95c0-0.29,0.1-0.5,0.26-0.6
	c0,0,0.02-0.02,0.06-0.04h0.01l1.36-0.8c0.07-0.04,0.15-0.06,0.24-0.06c0.13,0,0.26,0.05,0.42,0.13l19.01,10.96l2.25,1.3
	c0,0,2.76,1.59,3.36,1.92c0.05,0.03,0.07,0.05,0.09,0.05l11.54,6.66c0.06,0.04,0.13,0.08,0.19,0.14c0.18,0.14,0.34,0.34,0.47,0.57
	C139.63,268.14,139.73,268.47,139.73,268.77z"/>
<path class="st14" d="M139.46,267.85l-1.4,0.81h-0.01c-0.05-0.07-0.09-0.14-0.14-0.21c-0.1-0.14-0.22-0.26-0.33-0.36
	c-0.06-0.05-0.13-0.1-0.19-0.14l-11.54-6.65c-0.29-0.17-2.89-1.66-3.42-1.96l-1.38-0.8l-19.91-11.47c-0.23-0.14-0.44-0.16-0.61-0.09
	l1.36-0.8c0.07-0.04,0.15-0.06,0.24-0.06c0.13,0,0.27,0.04,0.42,0.13l19.01,10.96l2.25,1.3c0,0,2.76,1.59,3.36,1.92
	c0.05,0.03,0.07,0.05,0.09,0.05l11.54,6.66c0.06,0.04,0.13,0.08,0.19,0.14C139.17,267.42,139.33,267.62,139.46,267.85z"/>
<path class="st2" d="M100.21,247.61l-0.02,31.96c0,0.6,0.42,1.33,0.94,1.63l36.37,21c0.37,0.21,0.83-0.05,0.83-0.48V269.6
	c0-0.3-0.1-0.63-0.27-0.92s-0.41-0.55-0.66-0.7l-11.54-6.66c-0.29-0.17-2.9-1.66-3.42-1.95l-21.29-12.3
	c-0.23-0.14-0.45-0.16-0.61-0.09L100.5,247c-0.01,0-0.01,0.01-0.02,0.01l-0.01,0.01C100.31,247.12,100.21,247.32,100.21,247.61z"/>
<path class="st2" d="M138.06,268.66c-0.05-0.07-0.1-0.14-0.14-0.21C137.97,268.52,138.01,268.59,138.06,268.66z"/>
<path class="st8" d="M137.99,302.22c0.01,0,0.03-0.01,0.04-0.01l1.45-0.84c0.16-0.1,0.25-0.31,0.25-0.6v-32
	c0-0.3-0.11-0.63-0.28-0.92l-1.4,0.82c0.17,0.29,0.27,0.62,0.27,0.92v32.12C138.33,301.95,138.18,302.14,137.99,302.22z"/>
<path class="st0" d="M109.35,249.95c7.77-31.76,11.77-41.51,21.21-41.38c2.75,3.29-0.15,13.54-1.97,18.52c0,0-8.35,20.39-9.9,27.68
	c-1.36,6.4-2.9,14.45-2.81,19.94c0.02,0.97,0.42,1.9,1.08,2.62c1.77,1.92,1.78,3.47,2.93,5.59c0.9,1.66,1.88,2.29,1.6,2.66
	c-0.36,0.48-1.5,1.11-2.91,0.22c-0.71-0.45-1.18-0.98-2.21-2.12c0,0,0.25,3.98,1.72,7.3l1.97,1.14c0,0-0.6,2.05-5.37,0.68
	c-5.39-1.55-7.32-2.21-7.89-11.35c-0.16-2.63-0.41-6.78-0.1-10.11C107.51,262.67,108.1,255.06,109.35,249.95z"/>
<path class="st9" d="M130.79,206.01c0,0-7.26,0.26-9.54,3.75c-2.63,4.03-4.94,11.21-9.37,26.96c-4.43,15.76-5.78,27.26-6.01,36.13
	c0,0,5.55,2.59,10.67-0.37c0,0,2.27-13.71,4.28-21s8.46-23.09,8.46-23.09S134.38,216.98,130.79,206.01z"/>
<path class="st2" d="M132.86,205.63c-5.38,0.56-10.2,0.39-12.86,5.38c-2.99,5.62-9.7,25.95-9.7,25.95s4.9,6.17,14.16,6.54l6.46-18.1
	C130.92,225.39,135.19,213.41,132.86,205.63z"/>
<g class="st15">
	<path class="st7" d="M132.86,205.63c-5.38,0.56-10.2,0.39-12.86,5.38c-2.99,5.62-9.7,25.95-9.7,25.95s4.9,6.17,14.16,6.54
		l6.46-18.1C130.92,225.39,135.19,213.41,132.86,205.63z"/>
</g>
<path class="st9" d="M140.4,295.13c0.44,0.27,0.62-0.55,0.73-1.75l0.04-2.22c0,0,1.7,1.52,2.11-3.62c0.46-5.65-2.07-6.69-2.07-6.69
	s-0.01-0.94-0.01-2.8c0-1.86-0.39-2.31-0.82-2.63l-0.64-0.32v19.63C139.73,294.73,139.96,294.86,140.4,295.13z"/>
<path class="st9" d="M138.33,292.34c0-1.68-0.16-2.68-1.24-3.34c-1.23-0.76-1.77-1.01-1.77-1.01L135,277.58c0,0,1.78,1.2,2.39,1.56
	c0.61,0.36,0.96-1.76,0.93-2.39l1.46,0.66l0.17,16.08L138.33,292.34z"/>
<path class="st9" d="M134.81,291.33c0,0,0.57,0.34,1.27,0.77c0.7,0.42,1.02-1.74,0.7-4.83l0.3-6.88c-0.32-3.09-0.37-5.92-1.08-6.34
	l-1.27-0.77L134.81,291.33z"/>
<linearGradient id="SVGID_1_" gradientUnits="userSpaceOnUse" x1="-186.7848" y1="1120.9518" x2="-169.8497" y2="1094.8032" gradientTransform="matrix(1 0 0 -1 315 1270)">
	<stop  offset="0" style="stop-color:#4D5273"/>
	<stop  offset="0.1352" style="stop-color:#40445D"/>
	<stop  offset="0.3408" style="stop-color:#303243"/>
	<stop  offset="0.5514" style="stop-color:#242630"/>
	<stop  offset="0.7681" style="stop-color:#1D1E25"/>
	<stop  offset="1" style="stop-color:#1B1C21"/>
</linearGradient>
<path class="st16" d="M142.88,173.76l-26.51,6.02l-0.28-0.59l15.68-25.9l30.04-1.4l0.29,0.6L142.88,173.76z"/>
<linearGradient id="SVGID_2_" gradientUnits="userSpaceOnUse" x1="-175.1693" y1="1126.4331" x2="-163.5193" y2="1108.4451" gradientTransform="matrix(1 0 0 -1 315 1270)">
	<stop  offset="0" style="stop-color:#4D5273"/>
	<stop  offset="0.1352" style="stop-color:#40445D"/>
	<stop  offset="0.3408" style="stop-color:#303243"/>
	<stop  offset="0.5514" style="stop-color:#242630"/>
	<stop  offset="0.7681" style="stop-color:#1D1E25"/>
	<stop  offset="1" style="stop-color:#1B1C21"/>
</linearGradient>
<path class="st17" d="M161.81,151.88l-29.93,1.4l-0.11,0.01l0,0l0.5,1.04l0.1-0.05l6.28,13.05l0.84-0.01l22.62-14.84L161.81,151.88z
	"/>
<linearGradient id="SVGID_3_" gradientUnits="userSpaceOnUse" x1="-196.7108" y1="1112.38" x2="-185.3154" y2="1094.7849" gradientTransform="matrix(1 0 0 -1 315 1270)">
	<stop  offset="0" style="stop-color:#4D5273"/>
	<stop  offset="0.1352" style="stop-color:#40445D"/>
	<stop  offset="0.3408" style="stop-color:#303243"/>
	<stop  offset="0.5514" style="stop-color:#242630"/>
	<stop  offset="0.7681" style="stop-color:#1D1E25"/>
	<stop  offset="1" style="stop-color:#1B1C21"/>
</linearGradient>
<path class="st18" d="M132.26,154.34l-0.5-1.04l-15.68,25.9l0.28,0.59l22.4-12.4l-6.4-13.09L132.26,154.34z"/>
<linearGradient id="SVGID_4_" gradientUnits="userSpaceOnUse" x1="-186.3792" y1="1120.2443" x2="-169.9244" y2="1094.8374" gradientTransform="matrix(1 0 0 -1 315 1270)">
	<stop  offset="0" style="stop-color:#4D5273"/>
	<stop  offset="0.1352" style="stop-color:#40445D"/>
	<stop  offset="0.3408" style="stop-color:#303243"/>
	<stop  offset="0.5514" style="stop-color:#242630"/>
	<stop  offset="0.7681" style="stop-color:#1D1E25"/>
	<stop  offset="1" style="stop-color:#1B1C21"/>
</linearGradient>
<path class="st19" d="M142.88,173.76l-26.51,6.02l15.69-25.89l30.03-1.4L142.88,173.76z"/>
<linearGradient id="SVGID_5_" gradientUnits="userSpaceOnUse" x1="-187.197" y1="1094.3063" x2="-161.2639" y2="1106.7842" gradientTransform="matrix(1 0 0 -1 315 1270)">
	<stop  offset="0" style="stop-color:#4D5273"/>
	<stop  offset="0.1352" style="stop-color:#40445D"/>
	<stop  offset="0.3408" style="stop-color:#303243"/>
	<stop  offset="0.5514" style="stop-color:#242630"/>
	<stop  offset="0.7681" style="stop-color:#1D1E25"/>
	<stop  offset="1" style="stop-color:#1B1C21"/>
</linearGradient>
<path class="st20" d="M155.54,166.97c0.42,0.88-4.56,5.03-11.59,8.72c-7.02,3.69-13.48,5.39-13.84,4.65
	c-3.13-6.51-6.78-9.72,7.02-16.88C151.79,155.85,151.41,159.46,155.54,166.97z"/>
<radialGradient id="SVGID_6_" cx="-454.7556" cy="1413.6256" r="1" gradientTransform="matrix(-1.3235 10.2804 10.2804 1.3235 -15014.4746 2972.375)" gradientUnits="userSpaceOnUse">
	<stop  offset="0" style="stop-color:#FFE7A1"/>
	<stop  offset="0.3557" style="stop-color:#FFCF4D"/>
	<stop  offset="0.5309" style="stop-color:#FFC529"/>
	<stop  offset="0.869" style="stop-color:#996E00"/>
</radialGradient>
<path class="st21" d="M125.92,162.5c0,0-1.58,2.91-4.24,3.99c-3.13,1.26-6.34,1.78-8.1,3.96c-1.76,2.18-1.84,4.21-1.84,4.21
	l0.55,0.07c0,0,0.36-4.21,4.83-5.86C119.95,167.83,125.51,166.99,125.92,162.5z"/>
<radialGradient id="SVGID_7_" cx="-522.3751" cy="1362.0081" r="1" gradientTransform="matrix(-2.4336 -6.7113 -6.7113 2.4336 7979.6348 -6648.6509)" gradientUnits="userSpaceOnUse">
	<stop  offset="0" style="stop-color:#FFE7A1"/>
	<stop  offset="0.3557" style="stop-color:#FFCF4D"/>
	<stop  offset="0.5309" style="stop-color:#FFC529"/>
	<stop  offset="0.869" style="stop-color:#996E00"/>
</radialGradient>
<path class="st22" d="M114.4,173.23c0,0-2.23,2.24-4.21,2.94c-1.98,0.7-3.26,0.38-3.42,0.07s-0.16-1.36,2.19-2.37
	c2.35-1.01,3.95-2.34,3.95-2.34C113.39,171.82,113.89,172.36,114.4,173.23z"/>
<radialGradient id="SVGID_8_" cx="-458.3014" cy="1331.6735" r="1" gradientTransform="matrix(5.7931 -3.0873 -3.0873 -5.7931 6876.7397 6471.4199)" gradientUnits="userSpaceOnUse">
	<stop  offset="0" style="stop-color:#FFE7A1"/>
	<stop  offset="0.3557" style="stop-color:#FFCF4D"/>
	<stop  offset="0.5309" style="stop-color:#FFC529"/>
	<stop  offset="0.869" style="stop-color:#996E00"/>
</radialGradient>
<path class="st23" d="M113.29,170.82c-0.43,0.4-1.08,0.95-1.87,1.41c-1.42,0.83-2.56,1.22-2.56,1.22s1.46-0.31,3.29-1.38
	c0.68-0.4,1.15-0.71,1.47-0.94C113.51,171.02,113.4,170.91,113.29,170.82z"/>
<radialGradient id="SVGID_9_" cx="-442.701" cy="1284.6689" r="1" gradientTransform="matrix(3.0791 -1.6409 -1.6409 -3.0791 3583.9138 3401.4424)" gradientUnits="userSpaceOnUse">
	<stop  offset="0" style="stop-color:#FFE7A1"/>
	<stop  offset="0.3557" style="stop-color:#FFCF4D"/>
	<stop  offset="0.5309" style="stop-color:#FFC529"/>
	<stop  offset="0.869" style="stop-color:#996E00"/>
</radialGradient>
<path class="st24" d="M114.04,171.66c-0.11,0.11-0.23,0.21-0.35,0.32c-1.24,1.09-2.28,1.68-2.28,1.68s1.26-0.53,2.77-1.8
	C114.13,171.8,114.08,171.73,114.04,171.66z"/>
</svg>
