<svg width="132" height="75" viewBox="0 0 132 75" fill="none" xmlns="http://www.w3.org/2000/svg">
<path d="M10.5943 72.367L35.5469 67.0883L37.0487 73.4675V74.9249C37.0487 74.9249 59.1548 70.6136 75 72.8774L72.3496 28.7763L65.9408 29.1426L69.8915 10.4989L0 31.1012L10.5943 72.367Z" fill="#BCBEC0"/>
<path d="M70.0729 10.4954L33.7642 0L21.9328 40.9304L58.2416 51.4259L70.0729 10.4954Z" fill="#007C7C"/>
<path d="M67.7316 11.8756L35.0068 2.41614L26.0107 33.5382L58.7355 42.9976L67.7316 11.8756Z" fill="#FAFBCD"/>
<path d="M36.6066 21.7036L26.9445 23.5439L26.384 25.4342L36.6066 21.7036Z" fill="#BCBEC0"/>
<path d="M38.5854 30.7629L64.9381 28.155L64.3407 30.2487L38.5854 30.7629Z" fill="#BCBEC0"/>
<path d="M72.3503 28.7729L34.6167 30.9309L37.0494 73.4675L74.783 71.3095L72.3503 28.7729Z" fill="#007C7C"/>
<path d="M70.601 30.852L36.592 32.797L38.4418 65.1404L72.4508 63.1953L70.601 30.852Z" fill="#14A0BD"/>
<path d="M36.6076 21.7005L0.000244141 31.0999L10.5961 72.3669L47.2034 62.9675L36.6076 21.7005Z" fill="#007C7C"/>
<path d="M35.2925 24.0774L2.29858 32.549L10.3553 63.9269L43.3492 55.4553L35.2925 24.0774Z" fill="#F8A5A5"/>
<path d="M43.3454 55.4563L41.1074 46.7393C40.2233 46.8115 39.2042 47.1518 38.666 47.2313C38.5217 47.2535 38.3682 47.272 38.235 47.2128C38.0852 47.1444 37.9964 46.9909 37.9187 46.8466C37.6654 46.3787 37.4379 45.7258 37.8411 45.3762C37.952 45.28 38.0926 45.2301 38.2295 45.1801C38.9859 44.9083 39.7424 44.6382 40.4989 44.3663L39.772 41.5346C39.5223 41.6179 39.2782 41.7418 39.0229 41.8084C38.629 41.912 38.0982 41.788 38.0168 41.3885C37.719 41.5827 37.3805 41.7825 37.0291 41.7233C36.6777 41.6641 36.4095 41.1906 36.661 40.9391C36.7665 40.8337 36.9237 40.8041 37.0698 40.78C37.8707 40.6413 38.6715 40.5044 39.4724 40.3657L38.3941 36.1672C37.7689 36.2578 37.1419 36.3928 36.5575 36.6018C36.0636 36.7794 35.5347 37.1419 34.9964 36.7942C34.3065 36.3466 33.9773 34.4101 33.7979 33.6592C33.4613 33.6592 33.1709 34.0106 33.2338 34.3398C33.2763 34.5599 33.4391 34.7338 33.5871 34.9002C33.735 35.0686 33.883 35.2646 33.8793 35.4884C33.8756 35.7122 33.637 35.9341 33.4354 35.8361C33.4557 35.5568 33.4687 35.2517 33.2985 35.0297C33.1284 34.8078 32.703 34.793 32.6197 35.0593C32.7936 35.2757 32.973 35.5032 33.0303 35.7751C33.0877 36.047 32.9841 36.3743 32.727 36.4798C33.0192 37.1382 32.4459 38.0075 31.7245 37.9983C31.8559 38.0001 32.1832 40.7134 32.3331 40.9761C32.7991 41.7899 33.4206 40.9058 33.9477 41.4255C33.994 41.4699 34.0051 41.5383 34.0143 41.6031C34.1586 42.6 34.2696 43.6025 34.3472 44.6068C34.3731 44.9378 34.3232 45.3743 33.9995 45.4483C33.8959 45.4724 33.7831 45.4483 33.6832 45.4835C33.5001 45.5464 33.4298 45.7794 33.4742 45.9662C33.5186 46.153 33.6481 46.3084 33.7591 46.4637C34.0106 46.8133 34.203 47.2091 34.3195 47.6253C34.338 47.6919 34.3546 47.7658 34.3287 47.8306C34.2991 47.9046 34.2233 47.9452 34.153 47.9804C32.7122 48.6721 30.6093 48.8423 29.0242 48.9866C28.9021 48.9977 28.7671 49.0124 28.6802 49.1012C28.4675 49.3213 28.7541 49.6524 28.9779 49.8614C29.3774 50.2332 29.6364 50.751 29.6956 51.293C28.7227 51.5741 28.1105 52.7819 27.0988 52.7597C26.5291 52.7467 26.0612 52.3343 25.5895 52.0143C25.1179 51.6943 24.4705 51.4539 24.0026 51.7794C23.2461 52.3065 23.7529 53.6808 23.063 54.2911C22.8855 54.4483 22.6543 54.526 22.4305 54.5981C20.1684 55.3269 17.8491 55.8836 15.502 56.2628C15.0803 56.3312 14.235 56.6234 13.83 56.4995C13.3213 56.3441 13.4157 56.0519 13.2991 55.5155C13.0513 54.3725 12.6185 53.2702 12.0192 52.2658C11.825 51.9403 11.6086 51.6185 11.3312 51.3633C11.2554 51.293 11.174 51.2282 11.0889 51.169C10.3176 50.6419 9.28743 50.7233 8.37929 50.9397C7.95574 51.0414 7.53219 51.1764 7.12158 51.3448L10.3509 63.9237L43.3454 55.4563Z" fill="#F8A5A5"/>
</svg>
