<svg width="132" height="117" viewBox="0 0 132 117" fill="none" xmlns="http://www.w3.org/2000/svg">
<rect x="35.7966" y="24.2062" width="59.2881" height="67.5226" fill="white"/>
<path d="M125.975 20.7441C119.2 8.06964 107.833 0.121685 96.3064 0C96.2171 0 96.1214 0 96.0321 0C87.9691 0 76.5635 3.63774 66 19.9692C55.4365 3.63774 44.0309 0 35.9679 0C35.8786 0 35.7829 0 35.6936 0C24.1669 0.121685 12.7996 8.06964 6.02514 20.7441C-0.742922 33.4186 -3.83671 53.3621 7.78573 71.3394C18.4322 87.8054 37.0396 102.408 64.6732 115.985L66 116.638L67.3268 115.985C94.9604 102.408 113.568 87.8054 124.214 71.3394C135.837 53.3621 132.743 33.4186 125.975 20.7441ZM91.4456 64.0127C91.4456 65.5434 90.2081 66.7859 88.6835 66.7859H74.2926V81.2344C74.2926 82.765 73.0551 84.0075 71.5305 84.0075H60.4695C58.9449 84.0075 57.7074 82.765 57.7074 81.2344V66.7859H43.3165C41.7919 66.7859 40.5544 65.5434 40.5544 64.0127V52.9138C40.5544 51.3831 41.7919 50.1406 43.3165 50.1406H57.7074V35.6857C57.7074 34.1551 58.9449 32.9126 60.4695 32.9126H71.5242C73.0487 32.9126 74.2863 34.1551 74.2863 35.6857V47.8158L74.3118 50.1342H88.6772C90.2017 50.1342 91.4392 51.3767 91.4392 52.9074V64.0127H91.4456Z" fill="url(#paint0_linear)"/>
<path d="M63.8503 114.659C55.7044 109.472 49.0639 102.241 42.8381 94.8375C36.0126 86.7166 29.5124 78.2179 24.7665 68.72C24.0393 67.2662 23.344 65.774 22.6997 64.2561C19.0382 55.6805 16.8247 46.1955 17.839 36.9282C19.3954 22.627 28.4727 9.11357 39.8846 0.704492C40.0441 0.589212 40.2035 0.480336 40.363 0.365055C38.8193 0.108876 37.3458 0 35.9679 0C35.8786 0 35.7829 0 35.6936 0C24.1669 0.121685 12.7996 8.06964 6.02514 20.7441C-0.742922 33.4186 -3.83671 53.3621 7.78573 71.3394C18.4322 87.8054 37.0396 102.408 64.6732 115.985L66 116.638L66.657 116.312C65.7002 115.793 64.7625 115.242 63.8503 114.659Z" fill="url(#paint1_linear)"/>
<path opacity="0.3" d="M63.8503 114.659C55.7044 109.472 49.0639 102.241 42.8381 94.8375C36.0126 86.7166 29.5124 78.2179 24.7665 68.72C24.0393 67.2662 23.344 65.774 22.6997 64.2561C19.0382 55.6805 16.8247 46.1955 17.839 36.9282C19.3954 22.627 28.4727 9.11357 39.8846 0.704492C40.0441 0.589212 40.2035 0.480336 40.363 0.365055C38.8193 0.108876 37.3458 0 35.9679 0C35.8786 0 35.7829 0 35.6936 0C24.1669 0.121685 12.7996 8.06964 6.02514 20.7441C-0.742922 33.4186 -3.83671 53.3621 7.78573 71.3394C18.4322 87.8054 37.0396 102.408 64.6732 115.985L66 116.638L66.657 116.312C65.7002 115.793 64.7625 115.242 63.8503 114.659Z" fill="white"/>
<defs>
<linearGradient id="paint0_linear" x1="141.041" y1="120.361" x2="34.5348" y2="14.28" gradientUnits="userSpaceOnUse">
<stop stop-color="#FC8A8A"/>
<stop offset="0.8166" stop-color="#F8A5A5"/>
</linearGradient>
<linearGradient id="paint1_linear" x1="9.19089" y1="22.1775" x2="68.2367" y2="80.988" gradientUnits="userSpaceOnUse">
<stop stop-color="#FC8A8A"/>
<stop offset="0.0001" stop-color="#FA9898"/>
<stop offset="0.0002" stop-color="#ED7474"/>
</linearGradient>
</defs>
</svg>
