<svg width="34" height="35" viewBox="0 0 34 35" fill="none" xmlns="http://www.w3.org/2000/svg">
<path fill-rule="evenodd" clip-rule="evenodd" d="M28.4838 19.3034H31.6087C32.3771 19.3034 33 18.6731 33 17.8955V16.4875C33 15.7099 32.3771 15.0796 31.6087 15.0796H28.4824C28.1988 13.6525 27.731 12.2693 27.0911 10.9655L29.3019 8.72968C29.8451 8.17987 29.8451 7.28864 29.3019 6.73883L27.329 4.74798C26.7857 4.19834 25.905 4.19834 25.3617 4.74798L23.1496 6.98522C21.8623 6.33746 20.4964 5.86407 19.087 5.57727V2.40796C19.087 1.63036 18.464 1 17.6957 1H16.3043C15.536 1 14.913 1.63036 14.913 2.40796V5.57445C13.5032 5.86126 12.1368 6.33465 10.849 6.98241L8.63687 4.74798C8.09357 4.19834 7.21287 4.19834 6.66957 4.74798L4.70087 6.74024C4.15773 7.29005 4.15773 8.18128 4.70087 8.73109L6.91304 10.9683C6.2736 12.2718 5.80584 13.6544 5.52174 15.081H2.3913C1.62291 15.081 1 15.7113 1 16.4889V17.8969C1 18.6745 1.62291 19.3048 2.3913 19.3048H5.51617C5.80028 20.7314 6.26804 22.114 6.90748 23.4175L4.6953 25.6561C4.15216 26.2059 4.15216 27.0972 4.6953 27.647L6.66957 29.6378C7.21287 30.1875 8.09357 30.1875 8.63687 29.6378L10.8477 27.3992C12.136 28.0467 13.5028 28.5201 14.913 28.8071V31.975C14.913 32.7526 15.536 33.383 16.3043 33.383H17.6957C18.464 33.383 19.087 32.7526 19.087 31.975V28.8142C20.4962 28.5269 21.8621 28.0535 23.1496 27.4062L25.3631 29.6435C25.9064 30.1931 26.7871 30.1931 27.3304 29.6435L29.2977 27.6526C29.8409 27.1028 29.8409 26.2116 29.2977 25.6618L27.087 23.4231C27.7289 22.1177 28.1985 20.7327 28.4838 19.3034Z" stroke="#007C7C" stroke-width="1.39803" stroke-linecap="round" stroke-linejoin="round"/>
<path fill-rule="evenodd" clip-rule="evenodd" d="M17 23.5286C20.4577 23.5286 23.2608 20.6919 23.2608 17.1928C23.2608 13.6936 20.4577 10.857 17 10.857C13.5422 10.857 10.7391 13.6936 10.7391 17.1928C10.7391 20.6919 13.5422 23.5286 17 23.5286Z" stroke="#007C7C" stroke-width="1.39803" stroke-linecap="round" stroke-linejoin="round"/>
</svg>
