<svg width="25" height="35" viewBox="0 0 25 35" fill="none" xmlns="http://www.w3.org/2000/svg">
<path d="M1.61959 1.2508L14.3474 6.40087C14.8882 6.61949 15.243 7.1492 15.2434 7.73848V32.0229C15.2426 32.5007 15.0079 32.947 14.6168 33.2146C14.2257 33.4822 13.729 33.5364 13.2906 33.3591L1.89591 28.7467C1.35564 28.5282 1.00095 27.9993 1 27.4105V2.44139C1 1.64533 1.6377 1 2.42434 1H22.365C23.1517 1 23.7894 1.64533 23.7894 2.44139V26.9449C23.7894 27.741 23.1517 28.3863 22.365 28.3863H19.5164" stroke="#007C7C" stroke-width="1.43122" stroke-linecap="round" stroke-linejoin="round"/>
<path d="M1.78632 1.15169L18.3599 4.37607C19.031 4.50607 19.5163 5.10004 19.5164 5.79151V29.8266C19.5164 30.6227 18.8788 31.268 18.0921 31.268H15.2434" stroke="#007C7C" stroke-width="1.43122" stroke-linecap="round" stroke-linejoin="round"/>
</svg>
