<svg width="69" height="60" viewBox="0 0 69 60" fill="none" xmlns="http://www.w3.org/2000/svg">
<path d="M63.3633 56.5412H5.64353C3.18957 56.5412 1.68689 53.7842 2.97322 51.6442L31.5528 4.09045C32.7709 2.0633 35.6433 2.05068 36.8791 4.06688L66.0193 51.6198C67.3301 53.7597 65.8291 56.5412 63.3633 56.5412Z" fill="#221F1F"/>
<path d="M63.3635 59.0822H5.64368C4.60317 59.0822 3.59043 58.7926 2.71661 58.2446C1.89666 57.7311 1.21393 57.0012 0.740812 56.1341C0.267699 55.267 0.0201987 54.2888 0.0227242 53.3038C0.0260916 52.2541 0.315684 51.2186 0.861195 50.3111L29.4408 2.75903C30.4653 1.05431 32.2441 0.0306352 34.1988 0.0222168C34.2072 0.0222168 34.2157 0.0222168 34.2241 0.0222168C36.1687 0.0222168 37.945 1.02821 38.9796 2.7161L68.1199 50.269C69.2058 52.0419 69.2664 54.2804 68.2781 56.1122C67.2898 57.9449 65.4066 59.0822 63.3635 59.0822ZM34.2232 5.10355C34.2224 5.10355 34.2207 5.10355 34.2199 5.10355C34.0532 5.10439 33.8225 5.15996 33.6643 5.42345L5.0847 52.9764C4.91801 53.2542 4.98536 53.4991 5.07039 53.6566C5.15625 53.814 5.32462 54.0009 5.64284 54.0009H63.3626C63.6825 54.0009 63.8509 53.8123 63.9368 53.654C64.0218 53.4958 64.0883 53.2491 63.9182 52.9713L34.7789 5.4184C34.6197 5.15827 34.3891 5.10355 34.2232 5.10355Z" fill="#F28F8F"/>
<path d="M63.3627 59.1038H5.64287C4.59815 59.1038 3.58205 58.8133 2.70402 58.2628C1.8807 57.7467 1.19544 57.0143 0.720647 56.1447C0.245851 55.2743 -0.00333367 54.2927 3.36815e-05 53.3043C0.00340103 52.2504 0.293835 51.2115 0.841872 50.3007L29.4214 2.74776C30.4502 1.0363 32.2357 0.00926022 34.1972 0H34.2224C36.1738 0 37.9585 1.01105 38.9965 2.70483L68.1376 50.2577C69.2278 52.0374 69.2884 54.2842 68.2967 56.1228C67.3042 57.9614 65.4134 59.1038 63.3627 59.1038ZM34.2233 0.0437756H34.198C32.2509 0.052194 30.4796 1.07166 29.4585 2.77049L0.878913 50.3226C0.335085 51.2267 0.0463348 52.2579 0.0429674 53.3043C0.0404419 54.2851 0.287101 55.2599 0.75853 56.1237C1.22912 56.9874 1.91016 57.7139 2.72675 58.2257C3.59805 58.7712 4.60573 59.06 5.64203 59.06H63.3618C65.3965 59.06 67.273 57.9269 68.2571 56.1018C69.2421 54.2767 69.1814 52.0458 68.0997 50.2805L38.9603 2.72756C37.9299 1.0464 36.1595 0.0437756 34.2233 0.0437756ZM63.3627 54.0224H5.64287C5.31372 54.0224 5.13946 53.8288 5.05106 53.6672C4.96267 53.5047 4.89364 53.2522 5.06537 52.9651L33.6449 5.41134C33.8083 5.14026 34.0473 5.08218 34.2191 5.08134H34.2224C34.3933 5.08134 34.6316 5.13774 34.7957 5.40628L63.9368 52.96C64.1119 53.2463 64.0437 53.5013 63.9562 53.6647C63.8678 53.8271 63.6927 54.0224 63.3627 54.0224ZM34.2191 5.12511C34.0583 5.12595 33.8344 5.17983 33.682 5.43407L5.10241 52.987C4.94078 53.2555 5.0056 53.4938 5.08895 53.6453C5.17145 53.7968 5.33476 53.9787 5.64287 53.9787H63.3627C63.6716 53.9787 63.8349 53.796 63.9174 53.6436C63.9999 53.4904 64.0639 53.2513 63.8998 52.9828L34.7595 5.42901C34.6055 5.1773 34.3824 5.12427 34.2233 5.12427H34.2191V5.12511Z" fill="#F28F8F"/>
<path d="M63.3633 56.5415H5.64353C3.18957 56.5415 1.68689 53.7845 2.97322 51.6445L31.5528 4.09076C32.7709 2.06361 35.6433 2.05098 36.8791 4.06718L66.0193 51.6201C67.3301 53.76 65.8291 56.5415 63.3633 56.5415Z" fill="#F28F8F"/>
<path d="M63.3635 56.5631H5.64367C4.50383 56.5631 3.48268 55.9603 2.91191 54.951C2.31926 53.9037 2.33525 52.6629 2.95484 51.6324L31.5336 4.07953C32.1102 3.12068 33.1103 2.5457 34.2089 2.54065C34.2131 2.54065 34.2182 2.54065 34.2224 2.54065C35.3159 2.54065 36.3144 3.10636 36.8961 4.05596L66.0363 51.6089C66.6677 52.6384 66.6912 53.8835 66.1003 54.9392C65.532 55.9561 64.5084 56.5631 63.3635 56.5631ZM34.2232 2.58443C34.219 2.58443 34.214 2.58443 34.2098 2.58443C33.1255 2.58948 32.1397 3.15687 31.5714 4.10226L2.99188 51.6552C2.38071 52.6721 2.36471 53.8961 2.94979 54.9299C3.51298 55.925 4.51982 56.5193 5.64367 56.5193H63.3635C64.4924 56.5193 65.5026 55.9208 66.0641 54.9173C66.6475 53.8759 66.6239 52.6477 66.0009 51.6308L36.8607 4.07869C36.2866 3.14172 35.3016 2.58443 34.2232 2.58443Z" fill="white"/>
<path d="M63.3635 57.6019H5.6437C4.11071 57.6019 2.74946 56.7837 2.00191 55.4123C1.25435 54.041 1.28803 52.4246 2.09114 51.0869L30.6707 3.53487C31.4317 2.26875 32.7534 1.50857 34.2047 1.50183C34.2106 1.50183 34.2174 1.50183 34.2233 1.50183C35.6679 1.50183 36.987 2.24854 37.7556 3.50288L66.8958 51.0558C67.715 52.3926 67.7587 54.0149 67.0137 55.3963C66.2687 56.7778 64.9041 57.6019 63.3635 57.6019ZM34.2241 3.62326C34.2207 3.62326 34.2174 3.62326 34.214 3.62326C33.4723 3.62663 32.8233 3.99957 32.4344 4.64694L3.85479 52.1999C3.44987 52.8733 3.43303 53.6874 3.80933 54.3777C4.18564 55.068 4.87089 55.4797 5.64286 55.4797H63.3626C64.138 55.4797 64.8258 55.0646 65.2004 54.3693C65.5758 53.6739 65.554 52.8565 65.1415 52.1839L36.0021 4.63094C35.6089 3.9903 34.9616 3.62326 34.2241 3.62326Z" fill="white"/>
<path d="M34.501 13.2657C31.9654 13.2657 30.2514 16.8713 30.6218 20.5787L32.8931 43.3084C32.9495 43.869 33.671 44.3 34.501 44.3C35.3302 44.3 36.0525 43.869 36.1089 43.3084L38.3802 20.5787C38.7506 16.8704 37.0358 13.2657 34.501 13.2657Z" fill="white"/>
<path d="M36.7807 48.5889C37.3086 47.3277 36.7142 45.8772 35.4529 45.3493C34.1916 44.8214 32.7412 45.4158 32.2132 46.6771C31.6853 47.9384 32.2798 49.3888 33.541 49.9167C34.8023 50.4447 36.2527 49.8502 36.7807 48.5889Z" fill="white"/>
<mask id="mask0" mask-type="alpha" maskUnits="userSpaceOnUse" x="0" y="0" width="50" height="56">
<path d="M49.016 19.0949C48.8881 39.4388 31.7684 55.8916 10.6678 55.8916C7.01671 55.8916 3.48436 55.3992 0.138892 54.479C0.0606012 54.0935 0.0218767 53.7003 0.0227185 53.3055C0.0260859 52.2549 0.315678 51.2203 0.861189 50.3128L29.4408 2.75902C30.4653 1.05346 32.2441 0.0306225 34.1988 0.0222041C34.2072 0.0213623 34.2157 0.0213623 34.2241 0.0213623C36.1687 0.0213623 37.945 1.02736 38.9796 2.71609L49.016 19.0949Z" fill="url(#paint0_linear)"/>
</mask>
<g mask="url(#mask0)">
<path opacity="0.19" d="M49.016 19.0949C48.8881 39.4388 31.7684 55.8916 10.6678 55.8916C7.01671 55.8916 3.48436 55.3992 0.138892 54.479C0.0606012 54.0935 0.0218767 53.7003 0.0227185 53.3055C0.0260859 52.2549 0.315678 51.2203 0.861189 50.3128L29.4408 2.75902C30.4653 1.05346 32.2441 0.0306225 34.1988 0.0222041C34.2072 0.0213623 34.2157 0.0213623 34.2241 0.0213623C36.1687 0.0213623 37.945 1.02736 38.9796 2.71609L49.016 19.0949Z" fill="url(#paint1_linear)"/>
</g>
<defs>
<linearGradient id="paint0_linear" x1="0.0225165" y1="27.9566" x2="49.0157" y2="27.9566" gradientUnits="userSpaceOnUse">
<stop offset="0.00537634"/>
<stop offset="0.0507" stop-color="#2C2C2C"/>
<stop offset="0.1037" stop-color="#585858"/>
<stop offset="0.1622" stop-color="#808080"/>
<stop offset="0.2251" stop-color="#A2A2A2"/>
<stop offset="0.2935" stop-color="#BFBFBF"/>
<stop offset="0.3693" stop-color="#D7D7D7"/>
<stop offset="0.4556" stop-color="#E9E9E9"/>
<stop offset="0.5587" stop-color="#F6F6F6"/>
<stop offset="0.6953" stop-color="#FDFDFD"/>
<stop offset="1" stop-color="white"/>
</linearGradient>
<linearGradient id="paint1_linear" x1="0.0225165" y1="27.9566" x2="49.0157" y2="27.9566" gradientUnits="userSpaceOnUse">
<stop offset="0.00537634" stop-color="white"/>
<stop offset="0.1516" stop-color="white"/>
<stop offset="1" stop-color="white"/>
</linearGradient>
</defs>
</svg>
