<svg width="142" height="142" viewBox="0 0 142 142" fill="none" xmlns="http://www.w3.org/2000/svg">
<circle cx="71" cy="71" r="60" stroke="white" stroke-width="22"/>
<path d="M57.224 72.256C57.224 71.32 57.272 70.348 57.368 69.34C57.464 68.332 57.632 67.348 57.872 66.388C58.136 65.404 58.472 64.468 58.88 63.58C59.312 62.692 59.852 61.924 60.5 61.276C61.172 60.604 61.952 60.076 62.84 59.692C63.752 59.284 64.808 59.08 66.008 59.08C67.208 59.08 68.252 59.284 69.14 59.692C70.052 60.076 70.832 60.604 71.48 61.276C72.152 61.924 72.692 62.692 73.1 63.58C73.532 64.468 73.868 65.404 74.108 66.388C74.372 67.348 74.552 68.332 74.648 69.34C74.744 70.348 74.792 71.32 74.792 72.256C74.792 73.6 74.672 75.04 74.432 76.576C74.192 78.112 73.748 79.54 73.1 80.86C72.452 82.18 71.552 83.272 70.4 84.136C69.272 85 67.808 85.432 66.008 85.432C64.208 85.432 62.732 85 61.58 84.136C60.452 83.272 59.564 82.18 58.916 80.86C58.268 79.54 57.824 78.112 57.584 76.576C57.344 75.04 57.224 73.6 57.224 72.256ZM60.68 72.256C60.68 73.096 60.728 74.092 60.824 75.244C60.944 76.396 61.184 77.512 61.544 78.592C61.904 79.648 62.432 80.548 63.128 81.292C63.848 82.036 64.808 82.408 66.008 82.408C67.208 82.408 68.156 82.036 68.852 81.292C69.572 80.548 70.112 79.648 70.472 78.592C70.832 77.512 71.06 76.396 71.156 75.244C71.276 74.092 71.336 73.096 71.336 72.256C71.336 71.68 71.312 71.032 71.264 70.312C71.24 69.568 71.156 68.824 71.012 68.08C70.892 67.312 70.712 66.58 70.472 65.884C70.232 65.164 69.908 64.528 69.5 63.976C69.116 63.4 68.636 62.944 68.06 62.608C67.484 62.272 66.8 62.104 66.008 62.104C65.216 62.104 64.532 62.272 63.956 62.608C63.38 62.944 62.888 63.4 62.48 63.976C62.096 64.528 61.784 65.164 61.544 65.884C61.304 66.58 61.112 67.312 60.968 68.08C60.848 68.824 60.764 69.568 60.716 70.312C60.692 71.032 60.68 71.68 60.68 72.256ZM80.7039 85.62L79.5039 85L88.4039 70.2L89.6039 70.82L80.7039 85.62ZM76.7439 74.02C76.7439 73.5267 76.8372 73.0667 77.0239 72.64C77.2106 72.2133 77.4639 71.84 77.7839 71.52C78.1039 71.2 78.4772 70.9467 78.9039 70.76C79.3306 70.5733 79.7906 70.48 80.2839 70.48C80.7772 70.48 81.2372 70.5733 81.6639 70.76C82.0906 70.9467 82.4639 71.2 82.7839 71.52C83.1039 71.84 83.3572 72.2133 83.5439 72.64C83.7306 73.0667 83.8239 73.5267 83.8239 74.02C83.8239 74.5133 83.7306 74.9733 83.5439 75.4C83.3572 75.8267 83.1039 76.2 82.7839 76.52C82.4639 76.84 82.0906 77.0933 81.6639 77.28C81.2372 77.4667 80.7772 77.56 80.2839 77.56C79.7906 77.56 79.3306 77.4667 78.9039 77.28C78.4772 77.0933 78.1039 76.84 77.7839 76.52C77.4639 76.2 77.2106 75.8267 77.0239 75.4C76.8372 74.9733 76.7439 74.5133 76.7439 74.02ZM78.3039 74.02C78.3039 74.58 78.4906 75.0533 78.8639 75.44C79.2506 75.8133 79.7239 76 80.2839 76C80.8439 76 81.3106 75.8133 81.6839 75.44C82.0706 75.0533 82.2639 74.58 82.2639 74.02C82.2639 73.46 82.0706 72.9933 81.6839 72.62C81.3106 72.2333 80.8439 72.04 80.2839 72.04C79.7239 72.04 79.2506 72.2333 78.8639 72.62C78.4906 72.9933 78.3039 73.46 78.3039 74.02ZM85.2239 81.82C85.2239 81.3267 85.3172 80.8667 85.5039 80.44C85.6906 80.0133 85.9439 79.64 86.2639 79.32C86.5839 79 86.9572 78.7467 87.3839 78.56C87.8106 78.3733 88.2706 78.28 88.7639 78.28C89.2572 78.28 89.7172 78.3733 90.1439 78.56C90.5706 78.7467 90.9439 79 91.2639 79.32C91.5839 79.64 91.8372 80.0133 92.0239 80.44C92.2106 80.8667 92.3039 81.3267 92.3039 81.82C92.3039 82.3133 92.2106 82.7733 92.0239 83.2C91.8372 83.6267 91.5839 84 91.2639 84.32C90.9439 84.64 90.5706 84.8933 90.1439 85.08C89.7172 85.2667 89.2572 85.36 88.7639 85.36C88.2706 85.36 87.8106 85.2667 87.3839 85.08C86.9572 84.8933 86.5839 84.64 86.2639 84.32C85.9439 84 85.6906 83.6267 85.5039 83.2C85.3172 82.7733 85.2239 82.3133 85.2239 81.82ZM86.7839 81.82C86.7839 82.38 86.9706 82.8533 87.3439 83.24C87.7306 83.6133 88.2039 83.8 88.7639 83.8C89.3239 83.8 89.7906 83.6133 90.1639 83.24C90.5506 82.8533 90.7439 82.38 90.7439 81.82C90.7439 81.26 90.5506 80.7933 90.1639 80.42C89.7906 80.0333 89.3239 79.84 88.7639 79.84C88.2039 79.84 87.7306 80.0333 87.3439 80.42C86.9706 80.7933 86.7839 81.26 86.7839 81.82Z" fill="white"/>
</svg>
