<?xml version="1.0" encoding="utf-8"?>
<!-- Generator: Adobe Illustrator 24.1.2, SVG Export Plug-In . SVG Version: 6.00 Build 0)  -->
<svg version="1.1" id="Lager_1" xmlns="http://www.w3.org/2000/svg" xmlns:xlink="http://www.w3.org/1999/xlink" x="0px" y="0px"
	 viewBox="0 0 288 560" style="enable-background:new 0 0 288 560;" xml:space="preserve">
<style type="text/css">
	.st0{fill:#221F1F;}
	.st1{fill:#F28F8F;}
	.st2{fill:#FFFFFF;}
	.st3{fill:url(#SVGID_1_);filter:url(#Adobe_OpacityMaskFilter);}
	.st4{mask:url(#mask0_2_);}
	.st5{opacity:0.19;fill:url(#SVGID_2_);enable-background:new    ;}
</style>
<path class="st0" d="M184.65,288.23h-57.72c-2.45,0-3.96-2.76-2.67-4.9l28.58-47.55c1.22-2.03,4.09-2.04,5.33-0.02l29.14,47.55
	C188.62,285.44,187.12,288.23,184.65,288.23z"/>
<path class="st1" d="M184.65,290.77h-57.72c-1.04,0-2.05-0.29-2.93-0.84c-0.82-0.51-1.5-1.24-1.98-2.11
	c-0.47-0.87-0.72-1.85-0.72-2.83c0-1.05,0.29-2.09,0.84-2.99l28.58-47.55c1.02-1.7,2.8-2.73,4.76-2.74c0.01,0,0.02,0,0.03,0
	c1.94,0,3.72,1.01,4.76,2.69l29.14,47.55c1.09,1.77,1.15,4.01,0.16,5.84C188.58,289.63,186.7,290.77,184.65,290.77z M155.51,236.79
	C155.51,236.79,155.51,236.79,155.51,236.79c-0.17,0-0.4,0.06-0.56,0.32l-28.58,47.55c-0.17,0.28-0.1,0.52-0.01,0.68
	c0.09,0.16,0.25,0.34,0.57,0.34h57.72c0.32,0,0.49-0.19,0.57-0.35c0.09-0.16,0.15-0.4-0.02-0.68l-29.14-47.55
	C155.91,236.84,155.68,236.79,155.51,236.79z"/>
<path class="st1" d="M184.65,290.79h-57.72c-1.04,0-2.06-0.29-2.94-0.84c-0.82-0.52-1.51-1.25-1.98-2.12
	c-0.47-0.87-0.72-1.85-0.72-2.84c0-1.05,0.29-2.09,0.84-3l28.58-47.55c1.03-1.71,2.81-2.74,4.78-2.75h0.03
	c1.95,0,3.74,1.01,4.77,2.7l29.14,47.55c1.09,1.78,1.15,4.03,0.16,5.87C188.59,289.65,186.7,290.79,184.65,290.79z M155.51,231.73
	h-0.03c-1.95,0.01-3.72,1.03-4.74,2.73l-28.58,47.55c-0.54,0.9-0.83,1.94-0.84,2.98c0,0.98,0.24,1.96,0.72,2.82
	c0.47,0.86,1.15,1.59,1.97,2.1c0.87,0.55,1.88,0.83,2.92,0.83h57.72c2.03,0,3.91-1.13,4.9-2.96c0.99-1.83,0.92-4.06-0.16-5.82
	l-29.14-47.55C159.22,232.73,157.45,231.73,155.51,231.73z M184.65,285.71h-57.72c-0.33,0-0.5-0.19-0.59-0.36
	c-0.09-0.16-0.16-0.42,0.01-0.7l28.58-47.55c0.16-0.27,0.4-0.33,0.57-0.33h0c0.17,0,0.41,0.06,0.57,0.32l29.14,47.55
	c0.18,0.29,0.11,0.54,0.02,0.7C185.16,285.51,184.98,285.71,184.65,285.71z M155.51,236.81c-0.16,0-0.38,0.05-0.54,0.31
	l-28.58,47.55c-0.16,0.27-0.1,0.51-0.01,0.66c0.08,0.15,0.25,0.33,0.55,0.33h57.72c0.31,0,0.47-0.18,0.55-0.34
	c0.08-0.15,0.15-0.39-0.02-0.66l-29.14-47.55C155.89,236.86,155.67,236.81,155.51,236.81L155.51,236.81L155.51,236.81z"/>
<path class="st1" d="M184.65,288.23h-57.72c-2.45,0-3.96-2.76-2.67-4.9l28.58-47.55c1.22-2.03,4.09-2.04,5.33-0.02l29.14,47.55
	C188.62,285.44,187.12,288.23,184.65,288.23z"/>
<path class="st2" d="M184.65,288.25h-57.72c-1.14,0-2.16-0.6-2.73-1.61c-0.59-1.05-0.58-2.29,0.04-3.32l28.58-47.55
	c0.58-0.96,1.58-1.53,2.68-1.54c0,0,0.01,0,0.01,0c1.09,0,2.09,0.57,2.67,1.52l29.14,47.55c0.63,1.03,0.65,2.27,0.06,3.33
	C186.82,287.64,185.8,288.25,184.65,288.25z M155.51,234.27c0,0-0.01,0-0.01,0c-1.08,0.01-2.07,0.57-2.64,1.52l-28.58,47.55
	c-0.61,1.02-0.63,2.24-0.04,3.27c0.56,0.99,1.57,1.59,2.69,1.59h57.72c1.13,0,2.14-0.6,2.7-1.6c0.58-1.04,0.56-2.27-0.06-3.29
	l-29.14-47.55C157.58,234.83,156.59,234.27,155.51,234.27z"/>
<path class="st2" d="M184.65,289.29h-57.72c-1.53,0-2.89-0.82-3.64-2.19c-0.75-1.37-0.71-2.99,0.09-4.33l28.58-47.55
	c0.76-1.27,2.08-2.03,3.53-2.03c0.01,0,0.01,0,0.02,0c1.44,0,2.76,0.75,3.53,2l29.14,47.55c0.82,1.34,0.86,2.96,0.12,4.34
	C187.56,288.46,186.19,289.29,184.65,289.29z M155.51,235.31c0,0-0.01,0-0.01,0c-0.74,0-1.39,0.38-1.78,1.02l-28.58,47.55
	c-0.4,0.67-0.42,1.49-0.05,2.18c0.38,0.69,1.06,1.1,1.83,1.1h57.72c0.78,0,1.46-0.42,1.84-1.11c0.38-0.7,0.35-1.51-0.06-2.19
	l-29.14-47.55C156.9,235.67,156.25,235.31,155.51,235.31z"/>
<path class="st2" d="M155.79,244.95c-2.54,0-4.25,3.61-3.88,7.31l2.27,22.73c0.06,0.56,0.78,0.99,1.61,0.99
	c0.83,0,1.55-0.43,1.61-0.99l2.27-22.73C160.04,248.55,158.32,244.95,155.79,244.95z"/>
<path class="st2" d="M158.07,280.27c0.53-1.26-0.07-2.71-1.33-3.24c-1.26-0.53-2.71,0.07-3.24,1.33c-0.53,1.26,0.07,2.71,1.33,3.24
	C156.09,282.13,157.54,281.53,158.07,280.27z"/>
<defs>
	<filter id="Adobe_OpacityMaskFilter" filterUnits="userSpaceOnUse" x="121.31" y="231.71" width="48.99" height="55.87">
		<feColorMatrix  type="matrix" values="1 0 0 0 0  0 1 0 0 0  0 0 1 0 0  0 0 0 1 0"/>
	</filter>
</defs>
<mask maskUnits="userSpaceOnUse" x="121.31" y="231.71" width="48.99" height="55.87" id="mask0_2_">
	
		<linearGradient id="SVGID_1_" gradientUnits="userSpaceOnUse" x1="-193.6882" y1="1010.3597" x2="-144.6949" y2="1010.3597" gradientTransform="matrix(1 0 0 -1 315 1270)">
		<stop  offset="5.376340e-03" style="stop-color:#000000"/>
		<stop  offset="0.0507" style="stop-color:#2C2C2C"/>
		<stop  offset="0.1037" style="stop-color:#585858"/>
		<stop  offset="0.1622" style="stop-color:#808080"/>
		<stop  offset="0.2251" style="stop-color:#A2A2A2"/>
		<stop  offset="0.2935" style="stop-color:#BFBFBF"/>
		<stop  offset="0.3693" style="stop-color:#D7D7D7"/>
		<stop  offset="0.4556" style="stop-color:#E9E9E9"/>
		<stop  offset="0.5587" style="stop-color:#F6F6F6"/>
		<stop  offset="0.6953" style="stop-color:#FDFDFD"/>
		<stop  offset="1" style="stop-color:#FFFFFF"/>
	</linearGradient>
	<path class="st3" d="M170.31,250.78c-0.13,20.34-17.25,36.8-38.35,36.8c-3.65,0-7.18-0.49-10.53-1.41
		c-0.08-0.39-0.12-0.78-0.12-1.17c0-1.05,0.29-2.09,0.84-2.99l28.58-47.55c1.02-1.71,2.8-2.73,4.76-2.74c0.01,0,0.02,0,0.03,0
		c1.94,0,3.72,1.01,4.76,2.69L170.31,250.78z"/>
</mask>
<g class="st4">
	
		<linearGradient id="SVGID_2_" gradientUnits="userSpaceOnUse" x1="-193.6882" y1="1010.3597" x2="-144.6949" y2="1010.3597" gradientTransform="matrix(1 0 0 -1 315 1270)">
		<stop  offset="5.376340e-03" style="stop-color:#FFFFFF"/>
		<stop  offset="0.1516" style="stop-color:#FFFFFF"/>
		<stop  offset="1" style="stop-color:#FFFFFF"/>
	</linearGradient>
	<path class="st5" d="M170.31,250.78c-0.13,20.34-17.25,36.8-38.35,36.8c-3.65,0-7.18-0.49-10.53-1.41
		c-0.08-0.39-0.12-0.78-0.12-1.17c0-1.05,0.29-2.09,0.84-2.99l28.58-47.55c1.02-1.71,2.8-2.73,4.76-2.74c0.01,0,0.02,0,0.03,0
		c1.94,0,3.72,1.01,4.76,2.69L170.31,250.78z"/>
</g>
</svg>
