<?xml version="1.0" encoding="utf-8"?>
<!-- Generator: Adobe Illustrator 24.1.2, SVG Export Plug-In . SVG Version: 6.00 Build 0)  -->
<svg version="1.1" id="Lager_1" xmlns="http://www.w3.org/2000/svg" xmlns:xlink="http://www.w3.org/1999/xlink" x="0px" y="0px"
	 viewBox="0 0 1242 2208" style="enable-background:new 0 0 1242 2208;" xml:space="preserve">
<style type="text/css">
	.st0{fill:none;stroke:#007C7C;stroke-width:1.4312;stroke-linecap:round;stroke-linejoin:round;}
</style>
<path class="st0" d="M609.87,1088.29l12.73,5.15c0.54,0.22,0.9,0.75,0.9,1.34v24.28c0,0.48-0.24,0.92-0.63,1.19
	c-0.39,0.27-0.89,0.32-1.33,0.14l-11.39-4.61c-0.54-0.22-0.89-0.75-0.9-1.34v-24.97c0-0.8,0.64-1.44,1.42-1.44h19.94
	c0.79,0,1.42,0.65,1.42,1.44v24.5c0,0.8-0.64,1.44-1.42,1.44h-2.85"/>
<path class="st0" d="M610.04,1088.19l16.57,3.22c0.67,0.13,1.16,0.72,1.16,1.42v24.04c0,0.8-0.64,1.44-1.42,1.44h-2.85"/>
</svg>
