<?xml version="1.0" encoding="utf-8"?>
<!-- Generator: Adobe Illustrator 24.1.2, SVG Export Plug-In . SVG Version: 6.00 Build 0)  -->
<svg version="1.1" id="Lager_1" xmlns="http://www.w3.org/2000/svg" xmlns:xlink="http://www.w3.org/1999/xlink" x="0px" y="0px"
	 viewBox="0 0 288 560" style="enable-background:new 0 0 288 560;" xml:space="preserve">
<style type="text/css">
	.st0{fill:none;stroke:#007C7C;stroke-width:1.398;stroke-linecap:round;stroke-linejoin:round;}
</style>
<path class="st0" d="M155.48,265.92h3.12c0.77,0,1.39-0.63,1.39-1.41v-1.41c0-0.78-0.62-1.41-1.39-1.41h-3.13
	c-0.28-1.43-0.75-2.81-1.39-4.11l2.21-2.24c0.54-0.55,0.54-1.44,0-1.99l-1.97-1.99c-0.54-0.55-1.42-0.55-1.97,0l-2.21,2.24
	c-1.29-0.65-2.65-1.12-4.06-1.41v-3.17c0-0.78-0.62-1.41-1.39-1.41h-1.39c-0.77,0-1.39,0.63-1.39,1.41v3.17
	c-1.41,0.29-2.78,0.76-4.06,1.41l-2.21-2.23c-0.54-0.55-1.42-0.55-1.97,0l-1.97,1.99c-0.54,0.55-0.54,1.44,0,1.99l2.21,2.24
	c-0.64,1.3-1.11,2.69-1.39,4.11h-3.13c-0.77,0-1.39,0.63-1.39,1.41v1.41c0,0.78,0.62,1.41,1.39,1.41h3.12
	c0.28,1.43,0.75,2.81,1.39,4.11l-2.21,2.24c-0.54,0.55-0.54,1.44,0,1.99l1.97,1.99c0.54,0.55,1.42,0.55,1.97,0l2.21-2.24
	c1.29,0.65,2.66,1.12,4.07,1.41v3.17c0,0.78,0.62,1.41,1.39,1.41h1.39c0.77,0,1.39-0.63,1.39-1.41v-3.16
	c1.41-0.29,2.78-0.76,4.06-1.41l2.21,2.24c0.54,0.55,1.42,0.55,1.97,0l1.97-1.99c0.54-0.55,0.54-1.44,0-1.99l-2.21-2.24
	C154.73,268.73,155.2,267.35,155.48,265.92z"/>
<path class="st0" d="M144,270.15c3.46,0,6.26-2.84,6.26-6.34c0-3.5-2.8-6.34-6.26-6.34c-3.46,0-6.26,2.84-6.26,6.34
	C137.74,267.31,140.54,270.15,144,270.15z"/>
</svg>
