<svg width="414" height="422" viewBox="0 0 414 422" fill="none" xmlns="http://www.w3.org/2000/svg">
<path fill-rule="evenodd" clip-rule="evenodd" d="M437.36 -0.286786L0.362859 -9.99994L-7.32262 335.772C-7.32905 335.975 -7.33455 336.179 -7.33911 336.385C-7.34368 336.59 -7.34728 336.795 -7.3499 336.999L-7.47277 342.527L-7.17671 342.534C-2.74683 399.898 83.5564 413.391 189.502 415.746C295.307 418.098 419.28 409.096 429.057 352.23L429.525 352.241L437.36 -0.286786Z" fill="#9AD4C6" fill-opacity="0.8"/>
<g clip-path="url(#clip0)">
<path d="M265.307 294.058C265.245 294.058 265.183 294.058 265.122 294.037C264.915 293.955 264.75 293.748 264.729 293.501C264.709 293.398 263.719 283.762 262.79 274.209C260.871 254.526 261.057 254.361 261.428 254.052C261.676 253.825 262.047 253.887 262.254 254.155C262.377 254.34 262.419 254.567 262.336 254.774C262.192 256.507 264.234 277.407 265.74 291.995L290.314 263.852C290.541 263.604 290.912 263.584 291.139 263.831C291.366 264.079 291.387 264.471 291.16 264.739L265.72 293.872C265.617 293.996 265.472 294.058 265.307 294.058Z" fill="#A1D1CE"/>
<path d="M276.26 327.895C276.012 327.895 275.785 327.73 275.703 327.462L264.768 293.624C264.706 293.418 264.747 293.171 264.871 293.006C264.995 292.84 265.221 292.758 265.428 292.779L300.255 299.298C300.585 299.36 300.792 299.69 300.73 300.041C300.668 300.392 300.379 300.619 300.049 300.557L266.191 294.223L276.796 327.028C276.899 327.358 276.734 327.73 276.445 327.833C276.384 327.874 276.322 327.895 276.26 327.895Z" fill="#A1D1CE"/>
<path d="M243.993 318.507C243.849 318.507 243.704 318.445 243.58 318.321C243.353 318.074 243.333 317.682 243.56 317.414L264.316 293.604L235.534 278.46C235.245 278.315 235.121 277.923 235.265 277.614C235.41 277.304 235.761 277.16 236.05 277.325L265.554 292.861C265.719 292.944 265.843 293.129 265.884 293.315C265.925 293.521 265.863 293.728 265.739 293.872L244.426 318.321C244.302 318.445 244.158 318.507 243.993 318.507Z" fill="#A1D1CE"/>
<path d="M260.52 293.418C260.52 290.55 262.666 288.219 265.307 288.219C267.948 288.219 270.093 290.55 270.093 293.418C270.093 296.286 267.948 298.618 265.307 298.618C262.666 298.618 260.52 296.307 260.52 293.418Z" fill="#A1D1CE"/>
<path d="M267.389 247.573C245.209 247.573 227.218 267.091 227.218 291.169C227.218 315.247 245.209 334.766 267.389 334.766C289.59 334.766 307.56 315.247 307.56 291.169C307.581 267.091 289.59 247.573 267.389 247.573ZM267.389 329.319C247.974 329.319 232.232 312.235 232.232 291.169C232.232 270.104 247.974 253.02 267.389 253.02C286.804 253.02 302.547 270.104 302.547 291.169C302.547 312.256 286.804 329.319 267.389 329.319Z" fill="#D9E8E8"/>
<path d="M267.533 329.092C248.263 329.092 232.562 312.111 232.562 291.231C232.562 270.351 248.242 253.371 267.533 253.371C286.804 253.371 302.485 270.351 302.485 291.231C302.485 312.111 286.804 329.092 267.533 329.092ZM267.533 255.29C249.315 255.29 234.48 271.424 234.48 291.231C234.48 311.059 249.315 327.173 267.533 327.173C285.752 327.173 300.586 311.038 300.586 291.231C300.566 271.424 285.752 255.29 267.533 255.29Z" fill="#81C1C1"/>
<path d="M262.833 312.462C262.235 312.462 261.698 312.029 261.574 311.41L239.395 189.163L225.323 193.97C224.663 194.197 223.941 193.847 223.714 193.166C223.487 192.506 223.838 191.783 224.498 191.556L239.972 186.275C240.323 186.151 240.715 186.192 241.025 186.378C241.334 186.563 241.561 186.894 241.623 187.244L264.071 310.956C264.195 311.658 263.741 312.318 263.039 312.442C262.998 312.442 262.915 312.462 262.833 312.462Z" fill="#C4941C"/>
<path d="M312.064 247.718C311.424 247.718 310.867 247.222 310.805 246.562C310.784 246.356 308.866 226.838 307.978 220.772C307.112 214.892 306.183 211.797 295.847 211.528C284.829 211.26 261.411 215.263 261.184 215.304C260.483 215.428 259.823 214.953 259.719 214.273C259.596 213.571 260.07 212.911 260.751 212.808C261.721 212.643 284.664 208.702 295.929 208.991C307.999 209.3 309.526 213.716 310.516 220.4C311.403 226.528 313.281 245.51 313.364 246.315C313.425 247.016 312.93 247.635 312.229 247.718C312.146 247.718 312.105 247.718 312.064 247.718Z" fill="#C4941C"/>
<path d="M252.868 256.755C252.229 256.755 251.692 256.301 251.61 255.661C251.506 254.96 252.002 254.32 252.703 254.217L317.159 245.49C317.86 245.387 318.5 245.882 318.582 246.583C318.685 247.285 318.19 247.924 317.489 248.007L253.033 256.734C252.971 256.755 252.93 256.755 252.868 256.755Z" fill="#C4941C"/>
<path d="M259.756 259.54L285.093 257.167L309.769 247.573L270.609 247.717L258.869 253.556L259.756 259.54Z" fill="#9F761C"/>
<path d="M224.291 319.972C223.693 319.972 223.156 319.539 223.032 318.92L201.079 199.314L187.008 204.121C186.348 204.348 185.626 203.998 185.399 203.317C185.172 202.656 185.523 201.934 186.203 201.707L201.678 196.425C202.029 196.302 202.421 196.343 202.73 196.529C203.04 196.714 203.266 197.024 203.328 197.395L225.529 318.466C225.653 319.147 225.199 319.828 224.497 319.951C224.435 319.972 224.353 319.972 224.291 319.972Z" fill="#C4941C"/>
<path d="M280.264 256.713C280.161 256.012 279.501 255.537 278.82 255.641C278.118 255.744 277.644 256.383 277.747 257.085L283.545 296.905L262.871 299.918C262.19 300.021 261.695 300.64 261.798 301.341L263.057 311.74L203.656 320.839C202.955 320.942 202.48 321.602 202.583 322.283C202.686 322.923 203.223 323.356 203.842 323.356C203.904 323.356 203.966 323.356 204.028 323.335L264.645 314.051C265.326 313.948 265.801 313.329 265.718 312.627L264.46 302.228L285.154 299.216C285.856 299.113 286.33 298.473 286.227 297.772L280.264 256.713Z" fill="#C4941C"/>
<path d="M321.842 294.223L319.47 295.584L317.179 296.905C317.179 296.905 295.433 279.677 288.645 266.266C281.877 252.855 282.682 239.155 282.682 239.155C282.682 239.155 268.446 249.884 257.015 254.691C245.585 259.498 229.471 262.593 221.899 257.807C220.867 257.146 219.98 256.445 219.196 255.681C214.162 250.771 213.687 244.127 213.687 244.127C213.687 244.127 218.268 242.704 231.142 237.174C235.021 235.627 239.23 233.956 243.398 232.305C249.464 229.891 255.468 227.518 260.255 225.62C264.402 223.99 267.641 222.711 269.271 222.113C276.657 219.327 285.777 216.872 292.008 220.771C292.503 221.081 292.998 221.432 293.452 221.824C297.496 225.331 299.993 232.099 303.067 240.971C304.717 245.716 306.533 251.06 308.844 256.837C309.38 258.157 309.896 259.498 310.433 260.881C311.32 264.347 318.376 283.391 318.417 283.494C320.501 289.807 321.842 294.223 321.842 294.223Z" fill="#F95F02"/>
<path d="M260.541 213.963C262.17 218.585 261.283 225.084 261.283 225.084L260.252 225.579C255.465 227.477 249.482 229.85 243.395 232.264C240.218 233.42 236.132 234.988 231.139 237.133C227.735 238.474 224.599 239.733 221.937 240.806C216.944 242.787 213.664 244.107 213.664 244.107L205.617 215.593C205.617 215.593 199.118 206.123 196.436 196.818C194.166 188.915 192.804 180.704 194.93 173.4C195.301 172.1 195.796 170.821 196.436 169.562C197.839 166.736 199.531 164.899 201.326 163.641C204.73 161.268 208.485 161.082 211.374 160.629C222.247 158.937 230.025 160.402 235.988 163.6C243.024 167.375 247.521 173.544 251.483 179.755C258.869 191.206 261.551 199.294 261.551 199.294C258.704 199.727 256.765 202.182 255.774 203.853C255.321 204.596 255.052 205.174 254.99 205.359C254.97 205.401 254.97 205.421 254.97 205.421C254.97 205.421 255.341 205.958 256.125 207.072C256.847 208.104 257.941 209.651 259.447 211.756C259.901 212.374 260.272 213.138 260.541 213.963Z" fill="#87154E"/>
<path d="M236.011 163.558C233.638 165.869 229.388 168.943 222.909 169.996C213.522 171.543 204.175 165.745 201.328 163.6C204.732 161.227 208.487 161.041 211.376 160.587C222.27 158.916 230.048 160.381 236.011 163.558Z" fill="#700841"/>
<path d="M221.937 240.806C216.944 242.786 213.663 244.107 213.663 244.107L205.617 215.593C205.617 215.593 203.863 213.035 201.8 209.259C201.243 208.248 200.665 207.154 200.108 205.999C198.725 203.172 197.364 199.974 196.456 196.818C194.186 188.915 192.825 180.704 194.95 173.4C196.27 179.074 198.746 188.482 202.212 195.992C207.474 207.381 209.991 209.259 213.973 214.273C214.014 214.334 214.076 214.396 214.117 214.458C214.117 214.458 213.766 215.449 213.333 217.017C212.962 218.378 213.003 219.988 213.024 220.421C213.024 220.483 213.024 220.524 213.024 220.524L213.292 221.968C213.292 221.968 213.787 222.113 218.986 233.626C220.348 236.494 221.277 238.866 221.937 240.806Z" fill="#700841"/>
<path d="M255.756 203.853C255.302 204.596 255.034 205.174 254.972 205.36L250.247 199.294C248.968 190.772 241.066 181.364 241.066 181.364C241.066 181.364 242.757 181.529 247.606 187.471C252.455 193.413 251.794 198.468 251.794 198.468C253.197 200.532 254.704 202.492 255.756 203.853Z" fill="#700841"/>
<path d="M186.884 326.554L183.933 326.121L183.562 326.059L183.129 325.997C183.129 325.997 183.088 325.894 183.005 325.708C183.005 325.708 183.005 325.687 182.984 325.687C181.602 322.551 170.584 296.967 168.81 284.959C166.932 272.167 172.4 263.316 172.4 263.316C172.4 263.316 169.016 257.848 164.291 248.069C161.589 242.415 154.986 227.684 149.89 216.212V216.191C149.395 215.057 148.9 213.963 148.425 212.911C145.475 206.247 143.288 201.295 143.205 201.089C143.205 201.089 135.489 237.34 134.168 256.363C132.848 275.365 130.97 327.524 130.97 327.524L128.102 326.657L128.061 326.637L127.628 326.513L126.637 326.203C126.637 326.203 114.01 294.388 113.082 279.141C112.133 263.894 118.983 254.279 118.983 254.279C118.983 254.279 114.402 211.735 114.402 193.62C114.402 175.504 123.584 163.765 123.584 163.765C123.584 163.765 126.266 166.88 130.805 170.759C130.929 170.842 131.032 170.945 131.156 171.048C131.775 171.564 132.414 172.079 133.095 172.616C135.282 174.37 137.779 176.165 140.544 177.857C150.715 184.088 162.579 185.594 169.635 184.975C169.635 184.975 169.924 184.603 170.44 183.943C170.44 183.943 187.297 254.65 188.039 261.789C188.782 268.948 186.884 326.554 186.884 326.554Z" fill="#4AAEA7"/>
<path d="M128.061 326.616L126.637 326.183C126.637 326.183 114.01 294.367 113.082 279.12C112.133 263.873 118.983 254.258 118.983 254.258C118.983 254.258 114.402 211.714 114.402 193.599C114.402 175.484 123.584 163.744 123.584 163.744C123.584 163.744 127.194 167.932 133.075 172.595C128.948 180.745 125.523 187.616 124.162 222.113C122.759 257.25 122.181 300.825 128.061 326.616Z" fill="#319B91"/>
<path d="M183.956 326.12L183.13 325.997C183.13 325.997 170.71 297.751 168.812 284.959C166.934 272.167 172.402 263.315 172.402 263.315C172.402 263.315 169.018 257.848 164.293 248.068C159.63 238.35 143.454 201.666 143.207 201.088C143.372 201.171 145.951 202.636 155.07 218.089C164.479 234.059 176.714 260.86 176.714 260.86C176.714 260.86 175.661 267.793 176.714 287.559C177.415 300.536 181.253 316.361 183.956 326.12Z" fill="#319B91"/>
<path d="M180.878 87.2804C179.805 89.5087 178.217 91.118 175.988 92.9956C172.316 96.111 169.386 94.2129 167.612 93.7383C165.817 93.2638 165.445 96.0904 165.445 99.2059C165.445 102.321 160.184 106.076 155.748 105.602C153.891 105.396 151.972 104.508 150.384 103.188C148.176 101.352 146.649 98.7107 146.979 96.0904C147.536 91.5719 152.055 92.521 154.675 92.9749C157.275 93.4495 156.388 89.3024 155.067 86.3726C153.747 83.4634 155.727 80.5336 160.328 78.7386C164.95 76.9436 167.591 77.5213 171.635 78.8418C172.914 79.2544 174.008 79.275 174.915 79.0481C176.174 78.7386 177.061 77.9546 177.577 77.1499C178.155 78.4085 179.207 79.3163 180.837 79.2544C180.837 79.2957 180.342 83.0301 180.878 87.2804Z" fill="#302D22"/>
<path opacity="0.8" d="M180.877 87.2805C179.805 89.5088 178.216 91.1181 175.988 92.9957C172.315 96.1112 169.385 94.213 167.611 93.7384C165.816 93.2639 165.444 96.0905 165.444 99.206C165.444 102.322 160.183 106.077 155.747 105.602C153.89 105.396 151.972 104.509 150.383 103.188C155.458 102.425 160.307 97.1222 160.307 92.975C160.307 87.1774 164.124 88.7454 170.437 89.7977C176.751 90.8499 177.267 85.6299 175.431 80.8845C175.204 80.3068 175.038 79.7084 174.935 79.0688C176.194 78.7593 177.081 77.9753 177.597 77.1707C178.175 78.4292 179.227 79.3371 180.857 79.2752C180.836 79.2958 180.341 83.0302 180.877 87.2805Z" fill="#211F1C"/>
<path d="M207.741 141.708C205.142 142.513 200.706 142.822 197.322 142.925C195.135 142.987 193.381 142.987 192.824 142.967C192.7 142.967 192.638 142.967 192.638 142.967V139.294C192.638 139.294 192.556 139.48 192.411 139.851C191.566 141.915 188.45 149.383 185.211 157.286C184.447 159.163 183.663 161.061 182.9 162.898C179.207 171.935 172.687 180.91 170.417 183.901C169.902 184.562 169.613 184.933 169.613 184.933C169.118 184.974 168.602 185.016 168.045 185.036C167.88 185.036 167.735 185.057 167.57 185.057C160.411 185.242 149.764 183.489 140.521 177.815C137.777 176.144 135.301 174.349 133.114 172.615C132.371 172.017 131.649 171.439 130.989 170.882C130.886 170.779 130.783 170.697 130.679 170.614C126.223 166.797 123.582 163.723 123.582 163.723C125.851 158.916 135.012 145.938 136.436 143.111C137.839 140.285 140.521 129.824 144.482 117.96C148.011 107.417 153.746 101.764 160.741 98.277C161.607 97.8438 162.495 97.4311 163.402 97.0597C167.508 95.3679 171.201 94.7283 174.461 94.7283C176.174 94.7283 177.783 94.8933 179.248 95.1616C179.392 95.1822 179.537 95.2028 179.661 95.2441C180.816 95.471 181.868 95.7599 182.879 96.0694C186.593 97.2454 190.596 99.0198 194.248 101.619C194.372 101.702 194.475 101.785 194.599 101.867C195.052 102.197 195.506 102.548 195.96 102.899C200.314 106.427 203.945 111.255 205.616 117.816C208.876 130.567 207.741 141.708 207.741 141.708Z" fill="white"/>
<path d="M195.961 102.94C193.835 104.054 189.688 105.622 185.438 104.157C181.353 102.754 176.958 97.885 174.462 94.7489C177.701 94.7489 180.507 95.3472 182.88 96.09C187.192 97.4724 191.896 99.6388 195.961 102.94Z" fill="#2B1C1E"/>
<path d="M156.305 134.57C156.305 134.57 155.603 134.467 154.221 134.467C152.096 134.467 150.837 134.467 150.837 134.467L150.92 135.787C149.785 141.172 142.275 157.678 136.622 166.241C135.074 168.593 133.96 170.759 133.135 172.657C127.213 167.974 123.582 163.765 123.582 163.765C125.851 158.957 135.012 145.98 136.436 143.153C137.839 140.326 140.521 129.866 144.483 118.002C148.011 107.459 153.746 101.806 160.741 98.3188C155.459 111.689 156.387 129.577 156.305 134.57Z" fill="#007C7C"/>
<path d="M197.325 142.946C194.663 143.029 192.641 142.988 192.641 142.988V139.315C192.641 139.315 189.03 148.022 185.193 157.307C187.421 144.638 195.984 125.533 195.984 125.533C195.984 125.533 196.396 137.169 197.325 142.946Z" fill="#2B1C1E"/>
<path d="M328.339 270.351C328.339 281.658 327.493 293.377 327.493 293.377H323.264L318.415 283.453C316.311 277.057 313.463 268.7 310.43 260.84C310.43 260.84 310.43 260.84 310.43 260.819C310.43 260.819 309.11 246.624 310.884 236.596L303.065 240.929C302.404 239.01 301.765 237.195 301.125 235.482C298.835 229.272 296.607 224.527 293.45 221.782C292.975 221.39 292.501 221.04 292.006 220.73C292.006 220.73 309.275 215.407 315.073 214.706C320.87 214.025 327.927 214.025 329.33 222.34C330.733 230.675 328.339 259.065 328.339 270.351Z" fill="#FF6927"/>
<path d="M324.688 293.377H323.243L318.395 283.453C316.29 277.057 313.443 268.7 310.41 260.84C310.41 260.84 310.41 260.84 310.41 260.819C310.41 260.819 309.09 246.624 310.864 236.597L303.044 240.929C302.384 239.01 301.744 237.195 301.105 235.482C305.582 232.718 317.136 225.826 317.136 225.826C317.136 225.826 315.259 238.247 316.001 256.899C316.62 271.259 322.171 286.939 324.688 293.377Z" fill="#E25100"/>
<path d="M215.314 72.6725C214.984 74.1787 214.55 75.3754 214.076 76.3657C213.044 78.4702 211.827 79.5018 211.084 79.9557C211.146 79.6875 211.208 79.4399 211.249 79.1717C212.652 71.6822 210.96 70.2173 208.567 68.9793C206.174 67.7414 203.615 68.9793 203.615 68.9793C203.615 68.9793 203.058 66.751 198.54 65.6162C194.042 64.4815 189.668 66.1733 187.274 68.2985C184.881 70.4236 182.323 72.9614 182.323 72.9614C182.323 72.9614 182.22 70.2792 180.817 69.3094C181.642 67.4319 182.632 65.2861 183.767 63.0578C185.335 60.0042 187.46 57.8585 189.688 56.4348C192.701 54.4954 195.899 53.8558 198.168 54.0209C203.017 54.3922 203.533 56.6618 203.533 56.6618C203.533 56.6618 208.34 56.1047 211.765 58.4568C215.211 60.8089 216.737 66.1733 215.314 72.6725Z" fill="#302D22"/>
<path opacity="0.8" d="M214.097 76.3452C213.065 78.4497 211.848 79.4813 211.105 79.9352C211.167 79.667 211.229 79.4194 211.27 79.1512C212.673 71.6616 210.981 70.1967 208.588 68.9588C206.194 67.7208 203.636 68.9588 203.636 68.9588C203.636 68.9588 203.079 66.7305 198.56 65.5957C194.042 64.4816 189.668 66.1734 187.274 68.2985C184.881 70.4237 182.323 72.9615 182.323 72.9615C182.323 72.9615 182.22 70.2793 180.817 69.3095C181.642 67.432 182.632 65.2862 183.767 63.0579C185.335 60.0043 187.46 57.8586 189.688 56.4349C188.554 59.0346 187.398 62.5834 187.109 65.7401C187.109 65.7401 192.907 62.212 197.384 62.3564C201.862 62.5009 205.328 65.8846 205.328 65.8846C209.145 64.0483 212.24 66.1734 213.787 72.6107C214.097 73.7868 214.158 75.066 214.097 76.3452Z" fill="#302D22"/>
<path d="M328.67 326.739C328.278 326.739 327.906 326.574 327.638 326.223L315.093 309.47C314.97 309.305 314.887 309.119 314.867 308.913L312.267 293.315C312.143 292.613 312.618 291.974 313.319 291.85C314.021 291.726 314.681 292.201 314.784 292.902L317.342 308.211L329.701 324.717C330.134 325.274 330.011 326.079 329.454 326.492C329.206 326.657 328.938 326.739 328.67 326.739Z" fill="#C4941C"/>
<path d="M310.412 206.824C310.123 207.567 308.06 205.978 308.245 206.267C308.431 206.556 310.02 207.856 309.648 208.537C309.36 209.032 306.409 208.124 305.006 207.67C304.759 207.567 304.532 207.505 304.387 207.464C304.511 207.505 304.738 207.588 305.006 207.67C305.79 207.98 306.842 208.537 306.533 209.197C306.512 209.259 306.471 209.3 306.409 209.341C305.398 210.022 299.848 208.351 299.848 208.351C299.848 208.351 290.811 211.735 283.177 213.53C276.451 215.118 264.752 214.995 260.543 213.984C260.255 213.158 259.883 212.416 259.429 211.755C257.923 209.651 256.83 208.124 256.107 207.072C255.736 206.494 255.365 205.937 254.952 205.421C254.952 205.421 255.117 204.988 255.468 204.369C256.355 202.739 258.377 199.768 261.534 199.293C261.534 199.293 263.886 201.274 265.867 201.934C267.847 202.595 283.652 203.358 290.233 203.255C296.836 203.152 298.713 202.698 298.713 202.698C298.713 202.698 302.386 199.397 305.584 201.749C308.802 204.08 310.68 206.061 310.412 206.824Z" fill="#F3B6AB"/>
<path d="M306.409 209.321C305.398 210.002 299.848 208.33 299.848 208.33C299.848 208.33 290.811 211.714 283.177 213.509C276.451 215.098 264.752 214.974 260.543 213.963C260.255 213.138 259.883 212.395 259.429 211.735C257.923 209.63 256.83 208.103 256.107 207.051C255.736 206.473 255.365 205.916 254.952 205.401C254.952 205.401 255.117 204.967 255.468 204.348C258.542 206.659 261.946 208.97 267.765 210.29C274.45 211.797 283.301 211.136 288.851 210.29C294.401 209.444 298.92 206.989 298.92 206.989C298.92 206.989 299.662 206.37 302.035 207.629C303.706 208.537 305.522 209.073 306.409 209.321Z" fill="#F4948E"/>
<path d="M211.787 160.649C208.63 161.041 205.473 162.093 203.451 162.856C202.09 163.372 201.244 163.764 201.244 163.764C194.332 156.708 192.64 143.008 192.64 143.008C193.96 143.008 195.59 142.926 197.303 142.802C202.234 142.43 207.743 141.75 207.743 141.75L211.787 160.649Z" fill="#F3B6AB"/>
<path d="M203.451 162.836C202.089 163.352 201.243 163.744 201.243 163.744C194.331 156.687 192.639 142.988 192.639 142.988C193.96 142.988 195.59 142.905 197.302 142.781C198.148 147.341 200.273 157.245 203.451 162.836Z" fill="#F4948E"/>
<path d="M211.272 79.1716C211.23 79.4398 211.168 79.6874 211.107 79.9556C209.312 87.2801 201.636 95.6362 196.87 97.6788C195.467 98.2771 193.879 98.6279 192.269 98.7104C189.525 98.8342 186.74 98.1121 184.677 96.2964C183.707 95.4505 182.902 94.3776 182.324 93.0159C181.54 91.1796 181.107 89.1783 180.86 87.3007C180.323 83.0505 180.839 79.316 180.839 79.316C179.209 79.3573 178.157 78.4701 177.579 77.2115C176.238 74.2817 177.393 69.3093 179.353 69.0204C179.952 68.9379 180.447 69.0617 180.818 69.3299C182.221 70.279 182.324 72.9819 182.324 72.9819C182.324 72.9819 184.47 70.8567 186.678 68.8554C186.864 68.6491 187.07 68.4634 187.276 68.2983C189.67 66.1732 194.044 64.4813 198.583 65.6161C203.101 66.7509 203.658 68.9792 203.658 68.9792C203.658 68.9792 206.196 67.7412 208.61 68.9792C210.983 70.2171 212.695 71.682 211.272 79.1716Z" fill="#F3B6AB"/>
<path d="M184.677 96.2761C183.707 95.4302 182.902 94.3573 182.324 92.9956C181.54 91.1593 181.107 89.158 180.86 87.2804C180.323 83.0302 180.839 79.2957 180.839 79.2957C179.209 79.337 178.157 78.4498 177.579 77.1912C176.238 74.2614 177.393 69.289 179.353 69.0001C179.952 68.9176 180.447 69.0414 180.818 69.3096C182.221 70.2587 182.324 72.9616 182.324 72.9616C182.324 72.9616 184.47 70.8364 186.678 68.8351C184.553 77.1706 181.582 88.1676 184.677 96.2761Z" fill="#F4948E"/>
<path d="M305.023 207.629C304.611 207.464 304.28 207.381 304.28 207.381C304.28 207.381 304.569 207.484 305.023 207.629Z" fill="#F3B6AB"/>
<path d="M234.152 156.068C233.492 158.771 232.13 160.566 230.521 161.784C229.138 162.836 227.57 163.455 226.167 163.805C226.085 163.826 226.002 163.847 225.899 163.867C225.445 163.971 225.012 164.053 224.599 164.115C224.517 164.136 224.434 164.136 224.352 164.136C224.331 164.136 224.31 164.136 224.29 164.136C222.887 164.301 221.917 164.239 221.917 164.239V171.873C220.741 173.255 213.561 169.046 211.807 165.188C211.518 164.569 211.229 163.909 210.961 163.248C210.239 161.598 209.558 159.906 209.063 158.647L208.197 156.44C208.197 156.44 204.153 155.511 203.492 151.447C203.018 148.496 203.864 147.114 206.505 147.588C206.628 147.609 206.732 147.65 206.835 147.671C208.589 149.301 210.136 152.705 210.136 152.705C210.136 152.705 210.817 149.775 210.755 146.681C210.652 142.926 209.331 143.152 207.639 139.583C207.598 139.501 207.578 139.439 207.557 139.377C207.392 138.882 207.227 138.325 207.082 137.664C206.855 135.085 208.836 133.125 211.704 131.825C211.745 131.805 211.787 131.784 211.828 131.763C215.438 130.154 218.76 130.814 224.022 128.565C225.156 128.07 226.147 127.472 227.013 126.791C227.921 127.451 228.932 128.957 229.943 131.392C231.697 135.642 236.318 147.135 234.152 156.068Z" fill="#F3B6AB"/>
<path d="M269.269 222.071C269.269 222.071 269.187 222.113 269.001 222.195C268.856 222.257 268.671 222.34 268.423 222.443C267.474 222.835 265.679 223.536 262.894 224.547C258.375 226.157 256.312 226.879 255.549 227.168C254.806 227.457 244.531 229.994 231.079 228.117C217.626 226.239 214.614 222.195 212.901 220.297C212.901 220.297 213.046 217.202 214.304 214.066C214.449 213.695 214.614 213.323 214.8 212.952C216.492 209.465 219.607 207.402 219.607 207.402C223.754 212.209 234.38 214.933 241.127 216.81C247.853 218.688 256.415 220.483 256.415 220.483C256.415 220.483 257.075 219.451 262.729 219.637C266.814 219.781 268.444 220.999 269.022 221.659C269.187 221.886 269.269 222.071 269.269 222.071Z" fill="#F3B6AB"/>
<path d="M196.396 74.6534C197.345 75.1073 195.447 71.4554 192.62 70.7952C189.793 70.1349 188.658 71.084 188.658 72.1156C188.679 73.1472 194.621 73.7868 196.396 74.6534Z" fill="black"/>
<path d="M203.163 77.0878C202.421 77.0052 204.67 74.9214 207.682 75.4784C210.694 76.0355 211.066 77.6448 210.797 78.3051C210.529 78.9653 206.361 77.4591 203.163 77.0878Z" fill="black"/>
<path d="M233.946 170.202C233.822 169.871 233.719 169.686 233.719 169.686C233.719 169.686 233.802 169.892 233.946 170.202Z" fill="#F3B6AB"/>
<path d="M233.018 171.646C233.018 171.77 233.142 172.512 233.328 173.4C233.183 172.285 233.018 171.522 233.018 171.646Z" fill="#F3B6AB"/>
<path d="M209.042 158.668L208.175 156.461C208.155 156.461 208.506 157.348 209.042 158.668Z" fill="#591712"/>
<path d="M229.015 124.79C228.478 125.491 227.798 126.193 226.972 126.812C226.106 127.472 225.115 128.091 223.981 128.586C218.719 130.835 215.397 130.175 211.787 131.784C208.857 133.084 206.814 135.065 207.041 137.685C207.083 138.221 207.248 138.799 207.516 139.397C207.537 139.459 207.557 139.542 207.598 139.604C209.29 143.173 210.611 142.946 210.714 146.701C210.796 149.817 210.095 152.726 210.095 152.726C210.095 152.726 209.187 148.476 206.794 147.692C206.691 147.65 206.587 147.609 206.464 147.609C203.823 147.135 202.977 148.517 203.451 151.467C204.112 155.511 208.155 156.46 208.155 156.46C208.155 156.46 208.506 157.368 209.022 158.668V158.689C208.981 158.606 204.854 159.555 201.264 152.747C199.696 149.775 198.706 146.763 198.108 143.813C197.324 139.996 197.241 136.282 197.509 132.939C197.984 126.997 201.367 123.531 207.392 121.262C213.417 119.013 229.221 117.486 230.356 119.57C231.037 120.746 230.542 122.809 229.015 124.79Z" fill="#A3C4B5"/>
<path d="M211.787 142.142C210.57 143.091 212.303 139.253 214.573 138.634C216.822 138.015 219.566 138.758 219.463 139.975C219.38 141.193 213.335 140.924 211.787 142.142Z" fill="#87AD9B"/>
<path d="M226.249 138.407C225.155 138.407 225.774 136.117 227.321 135.498C230.045 134.384 231.592 135.705 231.654 135.89C231.737 136.076 227.466 138.407 226.249 138.407Z" fill="#87AD9B"/>
<path d="M126.636 326.183V335.137H145.474L130.969 327.503L126.636 326.183Z" fill="#87154E"/>
<path d="M183.128 325.997L181.808 333.713H198.19L186.883 326.554L183.128 325.997Z" fill="#87154E"/>
<path d="M318.415 283.453C316.31 277.057 313.463 268.7 310.43 260.839C311.317 264.306 318.373 283.349 318.415 283.453Z" fill="#FF6927"/>
<path d="M231.139 237.133C221.4 241.012 213.663 244.107 213.663 244.107C213.663 244.107 218.264 242.683 231.139 237.133Z" fill="#FF6927"/>
<path d="M187.545 211.735C187.277 211.714 187.133 211.384 187.071 210.91C187.071 210.91 187.071 210.91 187.071 210.889C186.947 209.94 187.153 208.496 187.153 208.496C187.153 208.496 187.091 208.64 186.988 208.888C186.617 209.795 185.688 211.921 185.172 211.694C184.904 211.57 184.78 210.868 184.719 210.064C184.636 208.908 184.698 207.547 184.698 207.547C184.698 207.547 184.595 208.083 184.43 208.743C184.161 209.775 183.708 211.075 183.192 211.013C182.862 210.972 182.655 210.414 182.511 209.754C182.305 208.743 182.284 207.505 182.284 207.505C182.284 207.505 182.284 208.764 182.078 209.775V209.795C181.954 210.394 181.747 210.91 181.438 211.013C181.149 211.095 180.613 209.713 180.035 207.877C178.962 204.452 177.765 199.417 177.765 199.417C177.765 199.417 176.775 197.334 173.391 193.578C170.008 189.823 157.154 167.252 154.183 158.792C151.212 150.312 151.356 138.882 150.799 134.446C150.799 134.446 152.821 134.178 156.287 134.549C157.195 134.652 158.185 134.776 159.279 134.983C164.54 135.932 167.759 137.809 167.759 137.809C167.759 142.328 168.502 155.594 168.502 155.594C168.502 155.594 171.431 161.516 173.969 168.861C176.507 176.206 181.314 194.651 181.5 194.94C181.686 195.229 188.948 198.613 189.794 202.946C190.661 207.278 188.391 211.797 187.545 211.735Z" fill="#F3B6AB"/>
<path d="M192.27 98.69C191.816 99.6185 190.991 101.331 190 103.374C186.864 109.811 181.995 119.632 181.624 119.549C181.252 119.467 181.665 108.036 182.016 100.196C182.181 96.111 182.346 92.9955 182.346 92.9955C184.141 97.2458 188.267 98.8757 192.27 98.69Z" fill="#F3B6AB"/>
<path d="M192.271 98.6899C191.817 99.6184 190.992 101.331 190.001 103.373C186.824 103.126 183.667 101.31 182.017 100.196C182.182 96.1108 182.347 92.9954 182.347 92.9954C184.142 97.2456 188.268 98.8756 192.271 98.6899Z" fill="#F4948E"/>
<path d="M180.075 207.897C179.002 204.472 177.806 199.438 177.806 199.438C177.806 199.438 176.815 197.354 173.432 193.599C170.048 189.844 157.194 167.272 154.223 158.812C151.252 150.333 151.396 138.902 150.839 134.466C150.839 134.466 152.861 134.198 156.327 134.569C156.245 144.927 156.575 151.55 159.608 160.504C162.847 170.098 168.789 181.921 172.875 188.791C176.96 195.662 178.672 198.179 178.941 198.488C179.106 198.654 179.456 203.688 180.075 207.897Z" fill="#F4948E"/>
<path d="M224.29 164.157C222.887 164.322 221.917 164.26 221.917 164.26V166.241C218.863 165.147 214.531 163.723 210.961 163.27C210.239 161.619 209.558 159.927 209.063 158.669L208.197 156.461C208.197 156.461 204.153 155.532 203.492 151.468C203.018 148.517 203.864 147.135 206.505 147.61C206.628 147.63 206.732 147.671 206.835 147.692C209.393 148.703 210.136 152.726 210.136 152.726C210.136 152.726 210.817 149.797 210.755 146.702C210.652 142.947 209.331 143.174 207.639 139.604C207.598 139.522 207.578 139.46 207.557 139.398C207.392 138.903 207.227 138.346 207.082 137.685C206.855 135.106 208.836 133.146 211.704 131.846C211.291 140.636 210.672 145.67 213.024 153.263C215.15 160.278 218.822 164.652 224.29 164.157Z" fill="#F4948E"/>
<path d="M226.17 163.827C226.087 163.847 226.005 163.868 225.901 163.888C226.005 163.868 226.087 163.847 226.17 163.827Z" fill="#F4948E"/>
<path d="M236.4 173.049C235.76 173.977 234.584 171.646 234.027 170.387C234.729 172.162 236.441 176.639 235.409 177.444C234.997 177.774 234.584 177.299 234.254 176.515V176.494C233.903 175.731 233.594 174.638 233.387 173.668C233.387 173.668 233.387 173.668 233.387 173.647C233.367 173.565 233.346 173.482 233.326 173.4C233.181 172.285 233.016 171.501 233.016 171.646C233.016 171.79 233.14 172.512 233.326 173.4C233.326 173.441 233.346 173.503 233.346 173.544V173.565C233.429 174.163 233.511 174.864 233.553 175.566C233.553 175.566 233.553 175.566 233.553 175.587C233.718 177.526 233.697 179.486 233.016 179.713C232.542 179.858 232.067 179.28 231.654 178.475C230.932 177.072 230.375 174.968 230.231 174.369C230.334 174.864 230.416 175.339 230.52 175.814C230.994 178.496 231.159 180.497 230.21 179.424C229.075 178.145 225.98 169.686 225.98 169.686C225.98 169.686 227.404 176.041 225.98 176.185C225.073 176.267 223.752 172.636 222.927 170.016C222.473 168.551 222.163 167.416 222.163 167.416C222.04 167.004 221.957 166.591 221.916 166.178V164.259C221.916 164.259 226.826 164.631 230.54 161.784C230.974 162.052 231.427 162.423 231.84 162.836C234.79 165.828 237.143 171.955 236.4 173.049Z" fill="#F3B6AB"/>
<path d="M231.82 162.856C230.005 166.054 226.332 168.179 222.907 170.016C222.453 168.551 222.144 167.416 222.144 167.416C222.02 167.003 221.937 166.591 221.896 166.178V164.259C221.896 164.259 226.807 164.631 230.52 161.783C230.954 162.072 231.408 162.423 231.82 162.856Z" fill="#F4948E"/>
<path d="M269.27 222.071C269.27 222.071 267.392 222.917 262.874 224.527C258.355 226.136 256.292 226.858 255.528 227.147C254.786 227.436 244.511 229.974 231.058 228.096C217.606 226.219 214.594 222.175 212.881 220.276C212.881 220.276 213.026 217.182 214.284 214.045C216.946 217.512 222.455 221.308 231.162 223.66C240.57 226.198 253.465 226.012 257.881 224.795C257.881 224.795 264.421 220.524 268.981 221.638C269.187 221.886 269.27 222.071 269.27 222.071Z" fill="#F4948E"/>
<path d="M319.469 295.584L317.179 296.905C317.179 296.905 295.432 279.677 288.644 266.266C281.877 252.855 282.682 239.155 282.682 239.155C282.682 239.155 268.445 249.884 257.015 254.691C245.585 259.498 229.471 262.593 221.899 257.807C220.867 257.146 219.98 256.445 219.196 255.681C219.093 253.928 219.031 252.917 219.031 252.917C219.031 252.917 259.759 241.012 271.808 236.617C283.858 232.243 287.922 230.386 287.922 230.386C287.922 230.386 287.448 247.078 296.67 265.626C303.706 279.821 314.682 290.921 319.469 295.584Z" fill="#E25100"/>
<path d="M259.756 259.54L241.042 262.428L215.809 266.328C215.809 266.328 210.424 244.87 210.609 244.107L224.825 241.94L256.475 237.133L259.756 259.54Z" fill="#A1D1CE"/>
<path d="M192.126 78.8621C191.219 80.2445 190.166 81.1317 189.754 80.8635C189.341 80.5952 189.754 79.2748 190.662 77.8924C191.569 76.51 192.622 75.6228 193.034 75.891C193.447 76.1593 193.034 77.4797 192.126 78.8621Z" fill="#3D2A2B"/>
<path d="M203.349 83.03C202.442 84.4123 201.389 85.2995 200.977 85.0313C200.564 84.7631 200.977 83.4426 201.884 82.0602C202.792 80.6779 203.845 79.7907 204.257 80.0589C204.67 80.3271 204.257 81.6476 203.349 83.03Z" fill="#3D2A2B"/>
<path d="M216.387 144.927C216.119 146.103 215.562 146.99 215.149 146.908C214.716 146.805 214.592 145.773 214.86 144.597C215.128 143.421 215.685 142.534 216.098 142.616C216.511 142.699 216.655 143.751 216.387 144.927Z" fill="#3D2A2B"/>
<path d="M229.077 142.472C228.808 143.669 228.251 144.535 227.839 144.453C227.405 144.349 227.282 143.318 227.55 142.142C227.818 140.966 228.375 140.079 228.788 140.161C229.221 140.244 229.345 141.275 229.077 142.472Z" fill="#3D2A2B"/>
<path d="M196.645 90.0447C196.583 90.0447 196.521 90.0241 196.48 89.9622C196.48 89.9622 194.726 87.9196 193.591 86.5785C193.509 86.496 193.529 86.3515 193.612 86.2896C193.694 86.2071 193.839 86.2277 193.901 86.3103C194.767 87.3419 196.005 88.8068 196.542 89.4051L199.905 78.9652C199.946 78.862 200.049 78.8001 200.173 78.8207C200.276 78.862 200.338 78.9652 200.317 79.0889L196.851 89.9003C196.83 89.9828 196.768 90.0241 196.686 90.0447C196.686 90.0241 196.665 90.0447 196.645 90.0447Z" fill="#3D2A2B"/>
<path d="M179.703 70.5061C179.661 70.4029 179.538 70.341 179.434 70.3823C179.331 70.4236 179.269 70.5474 179.311 70.6505C179.311 70.6712 179.723 71.8885 179.95 73.4978C179.455 73.7454 177.949 74.5088 178.238 75.4785C178.32 75.7261 178.465 75.8912 178.692 75.9943C178.795 76.0356 178.919 76.0562 179.063 76.0562C179.434 76.0562 179.847 75.9118 180.115 75.7674C180.115 76.0562 180.095 76.3451 180.074 76.6339C180.053 76.7577 180.157 76.8609 180.26 76.8609H180.28C180.384 76.8609 180.487 76.7783 180.487 76.6752C180.776 73.6629 179.744 70.6299 179.703 70.5061ZM178.836 75.561C178.733 75.5198 178.671 75.4579 178.63 75.3341C178.547 75.0659 178.733 74.5913 179.992 73.9311C180.033 74.3644 180.074 74.8183 180.095 75.2722C179.744 75.4579 179.146 75.6848 178.836 75.561Z" fill="#3D2A2B"/>
<path d="M188.68 88.0641C188.68 88.0641 193.405 90.9526 196.314 91.7366C196.314 91.7366 193.343 93.5729 190.95 92.2937C188.536 91.0145 188.68 88.0641 188.68 88.0641Z" fill="white"/>
<path d="M194.599 101.888L178.609 130.67C178.567 130.732 178.505 130.773 178.423 130.773C178.402 130.773 178.382 130.773 178.361 130.753C178.278 130.732 178.196 130.65 178.217 130.546L179.186 97.9267L179.207 97.4934L179.269 95.1826C179.413 95.2032 179.558 95.2239 179.681 95.2651L179.599 97.6998V97.741L178.65 129.68L194.248 101.641C194.372 101.723 194.496 101.806 194.599 101.888Z" fill="#007C7C"/>
<path d="M226.043 152.417C225.403 152.417 224.722 152.375 223.959 152.313C223.835 152.293 223.752 152.21 223.773 152.087C223.794 151.963 223.897 151.88 224 151.901C227.982 152.252 229.385 151.612 229.859 151.014C230.148 150.642 230.19 150.168 230.004 149.569C229.509 148.084 226.95 148.579 226.909 148.579C226.847 148.6 226.785 148.579 226.744 148.538C226.703 148.496 226.661 148.455 226.661 148.393L225.485 139.439C225.465 139.315 225.547 139.212 225.671 139.212C225.795 139.191 225.898 139.274 225.898 139.398L227.053 148.146C227.755 148.043 229.88 147.898 230.417 149.466C230.664 150.188 230.582 150.807 230.21 151.302C229.591 152.025 228.188 152.417 226.043 152.417Z" fill="#3D2A2B"/>
<path d="M223.982 145.526C223.92 145.526 223.858 145.505 223.817 145.443C223.755 145.34 223.775 145.216 223.858 145.154C223.941 145.092 225.839 143.731 228.335 143.999C228.459 144.02 228.542 144.123 228.521 144.226C228.5 144.35 228.397 144.432 228.294 144.412C225.963 144.164 224.126 145.464 224.106 145.484C224.064 145.526 224.023 145.526 223.982 145.526Z" fill="#3D2A2B"/>
<path d="M216.926 147.898C216.885 147.898 216.864 147.898 216.823 147.877C216.369 147.754 210.736 147.547 207.043 147.424C206.919 147.424 206.837 147.32 206.837 147.197C206.837 147.073 206.919 146.99 207.064 146.99C211.458 147.114 216.782 147.32 217.05 147.506C217.153 147.568 217.174 147.692 217.112 147.795C217.05 147.877 216.988 147.898 216.926 147.898Z" fill="#3D2A2B"/>
<path d="M208.443 154.5C208.361 154.5 208.278 154.459 208.257 154.377C207.019 151.715 205.245 150.395 205.224 150.395C205.121 150.333 205.101 150.188 205.183 150.106C205.245 150.003 205.389 149.982 205.472 150.064C205.555 150.126 207.37 151.447 208.649 154.212C208.691 154.315 208.649 154.439 208.546 154.5C208.505 154.5 208.484 154.5 208.443 154.5Z" fill="#3D2A2B"/>
<path d="M206.958 153.923C206.896 153.923 206.855 153.923 206.793 153.902C206.607 153.861 206.319 153.737 206.133 153.345C205.968 152.994 205.927 152.664 206.05 152.355C206.236 151.839 206.773 151.591 206.814 151.571C206.917 151.529 207.041 151.571 207.082 151.674C207.123 151.777 207.082 151.901 206.979 151.963C206.979 151.963 206.587 152.148 206.442 152.499C206.38 152.706 206.401 152.912 206.504 153.159C206.607 153.345 206.711 153.469 206.855 153.49C207.185 153.551 207.618 153.221 207.742 153.098C207.825 153.015 207.969 153.015 208.052 153.098C208.134 153.18 208.134 153.324 208.052 153.407C208.01 153.469 207.495 153.923 206.958 153.923Z" fill="#3D2A2B"/>
<path d="M225.199 158.235C223.734 158.235 222.476 157.864 222.269 157.76C222.166 157.699 222.125 157.575 222.187 157.472C222.249 157.368 222.373 157.327 222.476 157.389C222.806 157.554 227.015 158.71 229.078 156.337C229.161 156.254 229.284 156.234 229.388 156.316C229.47 156.399 229.491 156.523 229.408 156.605C228.273 157.864 226.623 158.235 225.199 158.235Z" fill="#EA4E4E"/>
<path d="M222.682 164.487C217.648 164.487 215.358 161.33 215.255 161.186C215.193 161.082 215.213 160.959 215.296 160.897C215.399 160.835 215.523 160.856 215.585 160.938C215.605 160.979 217.916 164.177 222.909 164.054C222.971 164.054 229.883 163.971 232.833 158.834C232.895 158.73 233.019 158.689 233.122 158.751C233.225 158.813 233.267 158.937 233.205 159.04C230.151 164.384 222.992 164.466 222.93 164.466C222.847 164.487 222.765 164.487 222.682 164.487Z" fill="#3D2A2B"/>
<path d="M230.21 174.267C230.313 174.782 230.416 175.319 230.52 175.814C229.921 173.978 229.323 172.657 229.302 172.637C229.261 172.533 229.302 172.41 229.405 172.348C229.509 172.306 229.632 172.348 229.694 172.451C229.715 172.492 231.015 175.298 231.675 178.476C230.891 176.969 230.313 174.659 230.21 174.267Z" fill="#3D2A2B"/>
<path d="M233.347 173.586C233.429 174.184 233.512 174.885 233.553 175.587C233.037 173.833 232.418 172.43 232.109 171.708C231.923 171.295 231.882 171.213 231.882 171.13C231.882 171.006 231.985 170.924 232.088 170.924C232.191 170.924 232.274 171.006 232.294 171.11C232.315 171.172 232.398 171.357 232.48 171.543C232.686 171.976 233.017 172.678 233.347 173.586C233.347 173.565 233.347 173.586 233.347 173.586Z" fill="#3D2A2B"/>
<path d="M234.255 176.515C233.904 175.731 233.594 174.638 233.388 173.668C233.677 174.494 234.007 175.463 234.255 176.515Z" fill="#601111"/>
<path d="M155.236 134.673H155.215C155.091 134.652 155.009 134.549 155.029 134.446C155.05 134.301 156.453 119.446 157.856 112.307C159.28 104.983 167.347 97.328 179.417 97.5137C179.541 97.5137 179.623 97.6169 179.623 97.72C179.623 97.8438 179.52 97.9263 179.417 97.9263C167.553 97.7406 159.672 105.21 158.269 112.369C156.886 119.467 155.463 134.322 155.463 134.466C155.421 134.59 155.339 134.673 155.236 134.673Z" fill="#C4941C"/>
<path d="M167.778 138.015C167.758 138.015 167.737 138.015 167.696 137.995C167.634 137.974 161.073 135.56 157.07 134.858C153.109 134.157 150.88 134.652 150.86 134.652C150.798 134.673 150.736 134.652 150.695 134.611C150.653 134.57 150.612 134.528 150.612 134.466C150.592 134.239 148.714 112.266 155.028 103.25C155.089 103.146 155.234 103.126 155.316 103.208C155.42 103.27 155.44 103.415 155.378 103.497C149.498 111.895 150.818 131.825 151.004 134.198C151.685 134.074 153.79 133.847 157.132 134.446C160.681 135.085 166.231 137.025 167.531 137.499C167.551 134.879 167.696 115.877 167.531 110.327C167.531 110.203 167.613 110.12 167.737 110.1C167.84 110.1 167.943 110.182 167.964 110.306C168.15 116.269 167.964 137.582 167.964 137.809C167.964 137.871 167.923 137.933 167.881 137.974C167.861 138.015 167.82 138.015 167.778 138.015Z" fill="white"/>
<path d="M193.775 149.26C193.692 149.26 193.61 149.198 193.569 149.116C192.166 144.989 192.331 141.42 192.413 139.893C192.434 139.645 192.434 139.46 192.434 139.336C192.434 139.315 192.434 139.295 192.434 139.274C192.454 139.171 195.137 128.917 196.106 124.027C196.127 123.903 196.251 123.841 196.354 123.862C196.478 123.882 196.54 123.985 196.519 124.109C195.57 128.875 193.011 138.758 192.846 139.336C192.846 139.48 192.846 139.666 192.826 139.893C192.764 141.399 192.599 144.907 193.961 148.971C194.002 149.074 193.94 149.198 193.837 149.239C193.816 149.26 193.795 149.26 193.775 149.26Z" fill="#C4941C"/>
<path d="M150.757 131.908C150.737 131.97 148.632 138.304 147.147 142.369C145.723 146.248 142.009 154.274 138.749 159.989C136.129 164.569 132.559 169.191 131.012 170.903C130.909 170.8 130.806 170.718 130.703 170.635C132.188 169.005 135.778 164.383 138.378 159.782C141.638 154.067 145.331 146.082 146.754 142.224C148.24 138.16 150.345 131.846 150.365 131.784C150.406 131.681 150.53 131.619 150.633 131.64C150.737 131.681 150.798 131.805 150.757 131.908Z" fill="#C4941C"/>
<path d="M125.731 195.642C125.586 195.6 125.463 195.559 125.318 195.518C123.152 194.878 121.192 194.383 120.387 194.197C120.325 194.177 120.263 194.197 120.222 194.218C120.181 194.259 120.139 194.3 120.139 194.362L119.438 200.325L119.397 200.408C119.397 200.408 119.397 200.408 119.397 200.428L117.437 216.852C117.437 216.914 117.457 216.996 117.498 217.037C118.798 218.193 120.49 219.059 122.244 219.74C122.388 219.781 122.512 219.843 122.657 219.885C127.092 221.494 131.879 221.845 132.168 221.865H132.189C132.251 221.865 132.292 221.845 132.333 221.803C132.374 221.762 132.395 221.721 132.395 221.659C132.436 221.081 132.911 211.982 133.241 205.607C133.241 205.463 133.262 205.318 133.262 205.174C133.427 202.038 133.53 199.644 133.53 199.438C133.55 198.262 129.424 196.756 125.731 195.642ZM132.828 205.504C132.519 211.487 132.086 219.946 132.003 221.411C130.538 221.288 122.079 220.4 117.89 216.769L119.809 200.696L119.871 200.263L120.531 194.672C122.017 195.043 123.729 195.497 125.401 196.013C125.421 196.013 125.442 196.034 125.483 196.034C129.424 197.21 133.117 198.613 133.117 199.459C133.117 199.644 133.014 201.996 132.849 205.091C132.828 205.215 132.828 205.359 132.828 205.504Z" fill="#3D2A2B"/>
<path d="M133.321 205.607C133.301 205.607 133.28 205.607 133.28 205.607C128.37 204.493 119.622 200.634 119.539 200.593C119.436 200.552 119.374 200.428 119.436 200.304C119.477 200.201 119.601 200.139 119.725 200.201C119.807 200.242 128.535 204.08 133.383 205.194C133.507 205.215 133.569 205.339 133.548 205.442C133.507 205.545 133.425 205.607 133.321 205.607Z" fill="#3D2A2B"/>
<path d="M131.156 171.027C130.413 173.482 129.258 177.505 128.185 182.272C126.555 189.39 125.874 194.589 125.73 195.621C125.709 195.744 125.709 195.806 125.709 195.806C125.688 195.91 125.606 195.992 125.503 195.992H125.461C125.441 195.992 125.42 195.971 125.379 195.971C125.296 195.93 125.255 195.848 125.276 195.765C125.276 195.765 125.296 195.662 125.317 195.497C125.461 194.3 126.163 189.163 127.752 182.168C128.866 177.278 130.042 173.173 130.805 170.717C130.908 170.821 131.032 170.924 131.156 171.027Z" fill="#3D2A2B"/>
<path d="M128.102 326.636L128.061 326.616L127.627 326.492C126.348 321.086 120.612 296.513 120.117 283.927C119.56 269.815 121.231 256.899 121.252 256.775C120.055 242.436 122.057 221.783 122.263 219.72C122.284 219.616 122.284 219.554 122.284 219.554C122.304 219.431 122.407 219.369 122.511 219.369C122.634 219.389 122.717 219.493 122.696 219.596C122.696 219.616 122.676 219.699 122.676 219.864C122.407 222.464 120.509 242.642 121.685 256.796C121.665 256.961 119.993 269.836 120.55 283.927C121.046 296.658 126.946 321.788 128.102 326.636Z" fill="#3D2A2B"/>
<path d="M182.553 209.775C182.347 208.764 182.326 207.526 182.326 207.526C182.326 207.526 182.326 208.784 182.12 209.795C182.161 207.711 182.182 204.74 182.058 202.925C182.058 202.801 182.14 202.718 182.264 202.698C182.388 202.677 182.491 202.78 182.491 202.904C182.615 204.699 182.574 207.67 182.553 209.775Z" fill="#3D2A2B"/>
<path d="M184.736 210.084C184.654 208.929 184.716 207.567 184.716 207.567C184.716 207.567 184.612 208.103 184.447 208.764C184.633 206.845 184.839 204.41 184.778 202.904C184.778 202.78 184.86 202.698 184.984 202.677C185.108 202.677 185.19 202.76 185.211 202.883C185.293 204.782 184.963 208.103 184.736 210.084Z" fill="#3D2A2B"/>
<path d="M187.955 204.369C187.894 206.453 187.398 209.279 187.089 210.909C186.965 209.96 187.171 208.516 187.171 208.516C187.171 208.516 187.11 208.66 187.006 208.908C187.233 207.443 187.481 205.731 187.522 204.348C187.522 204.224 187.605 204.142 187.728 204.142C187.852 204.142 187.955 204.245 187.955 204.369Z" fill="#3D2A2B"/>
<path d="M219.773 207.422C219.752 207.484 219.731 207.525 219.69 207.567C219.649 207.587 216.141 210.105 214.635 213.756C213.129 217.408 213.108 220.256 213.108 220.276C213.108 220.318 213.088 220.359 213.067 220.379C213.047 220.4 213.026 220.441 213.005 220.462C212.964 220.483 212.923 220.503 212.902 220.503C212.882 220.503 212.84 220.483 212.82 220.483C212.613 220.379 208.301 218.337 201.843 209.259C201.286 208.248 200.708 207.154 200.151 205.999C206.692 216.026 211.52 219.245 212.716 219.946C212.758 219.141 212.985 216.996 214.016 214.252C214.099 214.045 214.181 213.818 214.264 213.612C215.646 210.29 218.555 207.917 219.298 207.36C216.925 204.018 212.407 192.257 209.869 182.787C207.29 173.131 200.502 171.873 200.44 171.873C200.316 171.852 200.255 171.749 200.275 171.625C200.296 171.501 200.399 171.419 200.523 171.46C200.585 171.481 207.641 172.76 210.302 182.684C212.861 192.278 217.462 204.224 219.773 207.278C219.773 207.299 219.773 207.36 219.773 207.422Z" fill="#4AAEA7"/>
<path d="M254.95 205.607C254.867 205.607 254.805 205.566 254.764 205.504C254.744 205.462 252.763 202.388 250.081 199.417C250.039 199.376 250.019 199.314 250.019 199.273C250.019 199.232 250.06 195.105 245.995 188.647C241.91 182.169 240.136 180.704 240.115 180.704C240.033 180.621 240.012 180.497 240.074 180.415C240.136 180.332 240.28 180.312 240.363 180.374C240.445 180.435 242.22 181.88 246.346 188.42C250.204 194.548 250.411 198.551 250.431 199.19C252.598 201.584 254.29 204.039 254.888 204.926C255.404 203.729 257.261 200.16 261.47 199.066C261.594 199.025 261.697 199.108 261.717 199.211C261.738 199.335 261.676 199.438 261.573 199.458C256.745 200.738 255.156 205.401 255.136 205.442C255.115 205.524 255.032 205.566 254.971 205.586C254.971 205.607 254.971 205.607 254.95 205.607Z" fill="#4AAEA7"/>
<path d="M244.902 228.736C240.094 228.736 230.005 228.529 224.249 227.003C216.491 224.939 212.736 220.462 212.695 220.421C212.612 220.318 212.633 220.173 212.736 220.091C212.839 220.008 212.983 220.029 213.066 220.111C213.107 220.153 216.78 224.506 224.373 226.528C232.027 228.55 247.44 228.22 247.605 228.22C247.728 228.241 247.852 228.323 247.852 228.447C247.852 228.571 247.749 228.694 247.625 228.694C247.563 228.715 246.532 228.736 244.902 228.736Z" fill="#4AAEA7"/>
<path d="M306.985 209.011C306.923 209.011 306.881 208.99 306.84 208.949C305.52 207.752 302.631 206.432 302.59 206.411C302.487 206.37 302.445 206.246 302.487 206.123C302.528 206.019 302.652 205.978 302.755 206.019C302.879 206.081 305.747 207.381 307.108 208.619C307.191 208.702 307.191 208.825 307.129 208.929C307.088 208.97 307.026 209.011 306.985 209.011Z" fill="#3D2A2B"/>
<path d="M310.016 207.835C309.954 207.835 309.892 207.815 309.851 207.773C309.026 206.886 307.52 205.978 306.406 205.339C305.621 204.885 305.25 204.658 305.126 204.493C305.064 204.39 305.085 204.266 305.168 204.204C305.271 204.142 305.395 204.163 305.456 204.245C305.539 204.348 306.096 204.678 306.612 204.988C307.747 205.648 309.294 206.577 310.161 207.505C310.243 207.588 310.243 207.732 310.14 207.794C310.119 207.835 310.078 207.835 310.016 207.835Z" fill="#3D2A2B"/>
<path d="M268.978 222.195C268.834 222.257 268.648 222.34 268.4 222.443C266.213 221.762 263.077 221.638 263.057 221.638C262.933 221.638 262.85 221.535 262.85 221.411C262.85 221.287 262.954 221.205 263.077 221.205C263.222 221.205 266.75 221.349 268.978 222.195Z" fill="#3D2A2B"/>
<path d="M260.935 215.531C260.832 215.531 260.729 215.469 260.688 215.346C258.996 210.167 254.807 205.628 254.766 205.566C254.663 205.463 254.684 205.298 254.787 205.194C254.89 205.091 255.055 205.112 255.158 205.215C255.199 205.256 259.47 209.899 261.203 215.18C261.245 215.325 261.183 215.469 261.038 215.511C260.997 215.531 260.976 215.531 260.935 215.531Z" fill="#4AAEA7"/>
<path d="M271.602 214.933C264.917 214.933 260.523 214.046 260.461 214.025C260.316 214.004 260.234 213.86 260.254 213.715C260.275 213.571 260.419 213.488 260.564 213.509C260.626 213.53 267.806 214.974 277.709 214.149C277.854 214.149 277.978 214.252 277.978 214.376C277.998 214.52 277.874 214.644 277.751 214.644C275.564 214.871 273.48 214.933 271.602 214.933Z" fill="#4AAEA7"/>
<path d="M221.836 241.053C221.754 241.053 221.671 241.012 221.63 240.909C221.589 240.806 221.65 240.682 221.754 240.641C222.043 240.517 251.691 229.004 257.86 226.301C264.236 223.516 272.592 220.421 275.769 219.719C275.893 219.699 275.996 219.761 276.017 219.885C276.037 220.008 275.976 220.111 275.852 220.132C272.716 220.854 264.38 223.908 258.025 226.693C251.856 229.396 222.208 240.93 221.898 241.033C221.898 241.053 221.857 241.053 221.836 241.053Z" fill="#601111"/>
<path d="M304.985 246.665C304.882 246.665 304.799 246.603 304.779 246.5C304.758 246.418 302.53 238.33 298.754 230.159C295.04 222.092 291.966 220.937 291.925 220.916C291.822 220.875 291.76 220.751 291.801 220.648C291.842 220.545 291.966 220.483 292.069 220.524C292.193 220.565 295.329 221.721 299.146 229.974C302.942 238.185 305.171 246.294 305.191 246.377C305.212 246.48 305.15 246.603 305.047 246.624C305.026 246.665 305.006 246.665 304.985 246.665Z" fill="#3D2A2B"/>
<path d="M310.016 246.088C309.913 246.088 309.81 246.005 309.81 245.881C309.79 245.448 309.294 235.07 313.359 230.221C313.441 230.139 313.565 230.118 313.648 230.201C313.73 230.283 313.751 230.407 313.668 230.49C309.728 235.194 310.223 245.737 310.223 245.84C310.243 245.985 310.14 246.088 310.016 246.088Z" fill="#3D2A2B"/>
<path d="M321.611 294.285C321.611 294.285 319.94 288.941 318.929 285.805C317.939 282.689 306.611 251.679 306.508 251.37C306.467 251.246 306.529 251.101 306.653 251.06C306.777 251.019 306.921 251.081 306.962 251.204C307.086 251.514 318.393 282.524 319.383 285.64C320.394 288.797 322.065 294.12 322.065 294.12L321.611 294.285Z" fill="#3D2A2B"/>
<path opacity="0.71" d="M216.883 146.681C216.883 144.638 218.533 142.988 220.576 142.988C222.619 142.988 224.269 144.638 224.269 146.681C224.269 148.723 222.619 150.374 220.576 150.374C218.533 150.374 216.883 148.723 216.883 146.681Z" fill="#D7F3FF"/>
<path d="M220.577 150.58C218.431 150.58 216.677 148.826 216.677 146.681C216.677 144.535 218.431 142.781 220.577 142.781C222.723 142.781 224.476 144.535 224.476 146.681C224.476 148.826 222.743 150.58 220.577 150.58ZM220.577 143.194C218.658 143.194 217.09 144.762 217.09 146.681C217.09 148.599 218.658 150.168 220.577 150.168C222.496 150.168 224.064 148.599 224.064 146.681C224.064 144.762 222.496 143.194 220.577 143.194Z" fill="#3D2A2B"/>
<path opacity="0.71" d="M228.416 144.164C228.416 142.121 230.067 140.471 232.109 140.471C234.152 140.471 235.802 142.121 235.802 144.164C235.802 146.206 234.152 147.857 232.109 147.857C230.067 147.857 228.416 146.206 228.416 144.164Z" fill="#D7F3FF"/>
<path d="M232.11 148.084C229.964 148.084 228.211 146.33 228.211 144.184C228.211 142.038 229.964 140.285 232.11 140.285C234.256 140.285 236.01 142.038 236.01 144.184C236.01 146.33 234.256 148.084 232.11 148.084ZM232.11 140.697C230.191 140.697 228.623 142.265 228.623 144.184C228.623 146.103 230.191 147.671 232.11 147.671C234.029 147.671 235.597 146.103 235.597 144.184C235.597 142.265 234.029 140.697 232.11 140.697Z" fill="#3D2A2B"/>
<path d="M221.135 172.409C220.97 172.409 220.784 172.389 220.558 172.389C220.434 172.389 220.351 172.286 220.372 172.162C220.392 172.038 220.496 171.955 220.599 171.976C221.053 172.017 221.507 172.038 221.651 171.894C221.775 171.77 221.754 171.419 221.734 170.883C221.713 170.552 221.692 170.181 221.692 169.706V164.301C221.692 164.177 221.795 164.094 221.899 164.094C222.022 164.094 222.105 164.198 222.105 164.301V169.706C222.105 170.16 222.126 170.552 222.146 170.862C222.187 171.543 222.208 171.955 221.94 172.203C221.775 172.347 221.507 172.409 221.135 172.409Z" fill="#3D2A2B"/>
<path d="M172.401 192.505C172.339 192.505 172.278 192.485 172.236 192.423C170.668 190.525 165.861 182.272 162.209 175.773C158.495 169.191 154.431 161.619 152.986 155.347C151.501 148.889 150.634 134.611 150.614 134.467C150.614 134.343 150.696 134.24 150.82 134.24C150.923 134.24 151.047 134.322 151.047 134.446C151.047 134.59 151.934 148.827 153.399 155.243C154.823 161.454 158.887 168.985 162.58 175.566C166.212 182.045 171.019 190.277 172.566 192.155C172.649 192.237 172.628 192.382 172.546 192.444C172.504 192.485 172.443 192.505 172.401 192.505Z" fill="#C4941C"/>
<path d="M183.56 326.058L183.127 325.997C183.127 325.997 183.086 325.893 183.003 325.708C183.003 325.708 183.003 325.687 182.983 325.687C178.134 311.409 175.287 297.875 174.75 286.341C173.884 267.586 174.585 263.666 174.73 263.047C173.43 260.592 155.397 226.652 149.888 216.191V216.17C148.96 214.396 148.382 213.303 148.32 213.158C148.279 213.055 148.32 212.931 148.423 212.89C148.527 212.828 148.65 212.89 148.712 212.993C149.125 213.922 174.895 262.428 175.142 262.903C175.163 262.965 175.163 263.027 175.163 263.068C175.122 263.171 174.235 265.977 175.184 286.279C175.72 297.937 178.609 311.636 183.56 326.058Z" fill="#3D2A2B"/>
<path d="M194.166 177.279C194.166 177.279 194.145 177.279 194.166 177.279C194.022 177.279 193.939 177.176 193.96 177.052C194.269 173.524 196.456 167.169 200.356 164.115C204.338 161 209.413 160.567 209.991 160.608C210.115 160.608 210.197 160.711 210.177 160.835C210.177 160.959 210.074 161.041 209.95 161.021C209.805 161.021 204.73 161.227 200.603 164.446C196.436 167.705 194.599 174.37 194.372 177.073C194.372 177.196 194.269 177.279 194.166 177.279Z" fill="#601111"/>
<path d="M298.956 326.74C298.584 326.74 298.213 326.575 297.966 326.265L285.318 310.605C285.173 310.419 285.07 310.213 285.05 309.986L277.705 258.343C277.601 257.642 278.097 257.002 278.777 256.899C279.479 256.796 280.119 257.291 280.222 257.993L287.526 309.285L299.946 324.676C300.38 325.233 300.297 326.038 299.761 326.471C299.513 326.636 299.224 326.74 298.956 326.74Z" fill="#C4941C"/>
<path d="M229.016 124.79C228.479 125.491 227.798 126.193 226.973 126.812C226.106 127.472 225.116 128.091 223.981 128.586C218.72 130.835 215.398 130.175 211.788 131.784C208.858 133.084 206.815 135.065 207.042 137.685C207.083 138.221 207.248 138.799 207.517 139.398C207.537 139.459 207.558 139.542 207.599 139.604C209.291 143.173 210.611 142.946 210.715 146.701C210.797 149.817 210.096 152.726 210.096 152.726C210.096 152.726 209.188 148.476 206.795 147.692C206.691 147.65 206.588 147.609 206.464 147.609C203.823 147.135 202.978 148.517 203.452 151.467C204.112 155.511 208.156 156.46 208.156 156.46C208.156 156.46 208.507 157.368 209.023 158.668V158.689C208.982 158.606 204.855 159.555 201.265 152.747C199.697 149.776 198.707 146.763 198.108 143.813C199.037 139.542 201.286 136.076 203.431 132.424C207.331 125.78 212.51 127.059 220.556 126.853C224.497 126.709 227.241 125.76 229.016 124.79Z" fill="#87AD9B"/>
<path d="M337.787 300.021C334.713 301.341 328.111 302.724 323.592 303.569C320.848 304.085 318.867 304.395 318.867 304.395C318.166 303.26 317.176 296.905 317.176 296.905L319.156 295.77L321.838 294.223L337.787 300.021Z" fill="#FEC30A"/>
<path d="M323.592 303.569C320.848 304.085 318.867 304.395 318.867 304.395C318.166 303.26 317.176 296.905 317.176 296.905L319.156 295.77C320.105 298.288 322.272 301.63 323.592 303.569Z" fill="#E5A900"/>
<path d="M341.461 299.299L337.789 300.021L326.709 295.998L323.264 294.739V293.377L324.893 293.15L327.534 292.779L341.461 299.299Z" fill="#FEC30A"/>
<path d="M326.71 295.997L323.243 294.739V293.377L324.894 293.15C325.369 293.934 325.967 294.904 326.71 295.997Z" fill="#E5A900"/>
<path d="M158.265 88.2706C158.182 88.2706 158.1 88.2087 158.059 88.1262C158.038 88.0643 157.481 86.4962 158.12 85.3408C158.451 84.7631 159.008 84.3711 159.812 84.2061C159.915 84.1854 160.039 84.2473 160.06 84.3711C160.081 84.4949 159.998 84.5981 159.895 84.6187C159.235 84.7631 158.76 85.052 158.492 85.5265C157.935 86.5169 158.451 87.9611 158.451 87.9611C158.492 88.0643 158.43 88.1881 158.327 88.2294C158.327 88.2706 158.306 88.2706 158.265 88.2706Z" fill="#263238"/>
<path d="M170.787 87.6516C170.705 87.6516 170.602 87.5897 170.581 87.5072C170.54 87.4041 170.602 87.2803 170.705 87.239C170.746 87.2184 170.829 87.2184 170.953 87.1977C171.448 87.1152 172.789 86.9295 173.284 86.1042C173.532 85.6916 173.532 85.1551 173.305 84.4949C173.263 84.3917 173.325 84.2679 173.428 84.2267C173.532 84.1854 173.655 84.2473 173.697 84.3505C173.986 85.1345 173.965 85.7947 173.655 86.3312C173.057 87.3215 171.633 87.5278 171.014 87.631C170.932 87.6516 170.87 87.6516 170.829 87.6723C170.829 87.6516 170.808 87.6516 170.787 87.6516Z" fill="#263238"/>
<path d="M152.55 99.6184C151.869 99.6184 151.25 99.474 150.879 99.4121C150.755 99.3914 150.59 99.3502 150.569 99.3502C150.446 99.3502 150.363 99.247 150.363 99.1438C150.363 99.02 150.466 98.9375 150.569 98.9375C150.652 98.9375 150.755 98.9581 150.982 98.9994C151.869 99.1851 153.932 99.639 154.716 98.1122C154.778 98.0091 154.902 97.9678 155.005 98.0297C155.108 98.0916 155.15 98.2154 155.088 98.3185C154.531 99.3502 153.479 99.6184 152.55 99.6184Z" fill="#263238"/>
<path d="M189.605 60.8296C189.564 60.8296 189.502 60.809 189.46 60.7883C189.378 60.7058 189.357 60.582 189.44 60.4995C189.564 60.355 192.37 56.992 194.495 58.0855C194.598 58.1474 194.639 58.2712 194.577 58.3743C194.515 58.4775 194.392 58.5188 194.288 58.4569C192.452 57.5078 189.77 60.7264 189.749 60.7471C189.729 60.809 189.667 60.8296 189.605 60.8296Z" fill="#263238"/>
<path d="M205.617 63.2848C205.513 63.2848 205.431 63.2229 205.41 63.1198C205.059 61.4073 203.698 60.1281 203.677 60.1281C203.595 60.0456 203.595 59.9218 203.656 59.8392C203.718 59.7567 203.863 59.7567 203.966 59.8392C204.028 59.9011 205.431 61.2216 205.823 63.0579C205.843 63.1817 205.782 63.2848 205.658 63.3055C205.658 63.2848 205.637 63.2848 205.617 63.2848Z" fill="#263238"/>
<path d="M213.582 65.0592C213.458 65.0592 213.376 64.956 213.376 64.8529C213.396 64.1926 212.984 63.1198 210.9 61.7787C210.755 61.6755 210.714 61.6549 210.693 61.593C210.652 61.4898 210.714 61.366 210.817 61.3247C210.9 61.3041 210.982 61.3247 211.023 61.366C211.044 61.3866 211.065 61.4073 211.106 61.4279C212.901 62.604 213.809 63.7594 213.768 64.8735C213.788 64.9767 213.685 65.0592 213.582 65.0592Z" fill="#263238"/>
<path d="M169.098 81.1111C169.015 81.1111 168.953 81.0698 168.912 81.0079C168.499 80.3064 166.292 79.2954 164.579 80.1207C164.476 80.162 164.352 80.1207 164.29 80.0176C164.229 79.9144 164.29 79.7906 164.394 79.7287C166.271 78.8002 168.747 79.8938 169.283 80.781C169.345 80.8841 169.304 81.0079 169.201 81.0698C169.18 81.1111 169.139 81.1111 169.098 81.1111Z" fill="#263238"/>
<path d="M301.415 334.724C296.793 334.724 293.017 330.949 293.017 326.306C293.017 321.664 296.793 317.888 301.415 317.888C306.036 317.888 309.812 321.664 309.812 326.306C309.791 330.949 306.036 334.724 301.415 334.724Z" fill="#81C1C1"/>
<path d="M298.917 326.306C298.917 324.924 300.031 323.81 301.393 323.81C302.754 323.81 303.868 324.924 303.868 326.306C303.868 327.689 302.754 328.803 301.393 328.803C300.031 328.803 298.917 327.689 298.917 326.306Z" fill="#A1D1CE"/>
<path d="M327.76 334.724C323.551 334.724 320.105 330.949 320.105 326.306C320.105 321.664 323.53 317.888 327.76 317.888C331.969 317.888 335.414 321.664 335.414 326.306C335.414 330.949 331.969 334.724 327.76 334.724Z" fill="#81C1C1"/>
<path d="M325.489 326.306C325.489 324.924 326.5 323.81 327.759 323.81C329.017 323.81 330.028 324.924 330.028 326.306C330.028 327.689 329.017 328.803 327.759 328.803C326.5 328.803 325.489 327.689 325.489 326.306Z" fill="#A1D1CE"/>
<path d="M286.312 311.08C285.693 311.08 285.157 310.646 285.054 310.027C284.93 309.326 285.405 308.666 286.085 308.563L342.515 298.845C343.216 298.721 343.877 299.195 343.98 299.876C344.104 300.578 343.629 301.238 342.948 301.341L286.519 311.059C286.457 311.08 286.374 311.08 286.312 311.08Z" fill="#9F761C"/>
<path d="M215.624 169.727C215.583 169.727 215.542 169.706 215.5 169.686C215.356 169.583 215.211 169.479 215.046 169.376C213.953 168.654 212.447 167.664 211.353 164.755C210.672 162.918 209.703 160.669 208.98 159.019C208.341 157.513 207.99 156.708 207.949 156.502C207.928 156.378 207.99 156.275 208.114 156.254C208.217 156.233 208.341 156.295 208.362 156.419C208.403 156.605 208.857 157.657 209.372 158.874C210.074 160.525 211.064 162.794 211.745 164.631C212.797 167.416 214.159 168.324 215.273 169.046C215.438 169.149 215.583 169.252 215.727 169.356C215.83 169.417 215.851 169.562 215.769 169.644C215.748 169.686 215.686 169.727 215.624 169.727Z" fill="#3D2A2B"/>
<path d="M214.552 266.906C213.912 266.906 213.376 266.431 213.293 265.792C213.211 265.09 213.706 264.451 214.407 264.368C224.022 263.171 269.063 257.621 277.749 256.961C277.769 254.196 277.398 247.099 272.859 245.283C266.772 242.848 258.416 245.324 258.334 245.345C257.653 245.551 256.951 245.18 256.745 244.499C256.539 243.818 256.91 243.117 257.591 242.91C257.962 242.807 266.876 240.146 273.808 242.91C281.194 245.861 280.287 257.766 280.245 258.261C280.225 258.612 280.06 258.921 279.791 259.148C279.523 259.375 279.172 259.458 278.842 259.437C278.822 259.437 278.801 259.437 278.78 259.437C276.119 259.437 239.166 263.893 214.738 266.906C214.655 266.906 214.593 266.906 214.552 266.906Z" fill="#C4941C"/>
<path d="M259.757 260.798C259.138 260.798 258.581 260.345 258.498 259.705L255.506 239.238C254.64 233.357 253.711 230.263 243.375 229.994C232.357 229.726 208.939 233.729 208.712 233.77C208.011 233.894 207.35 233.419 207.247 232.738C207.124 232.037 207.598 231.377 208.279 231.274C209.249 231.108 232.171 227.168 243.457 227.457C255.527 227.766 257.054 232.181 258.044 238.866L261.036 259.334C261.139 260.035 260.644 260.675 259.963 260.778C259.881 260.798 259.819 260.798 259.757 260.798Z" fill="#C4941C"/>
<path d="M210.609 294.058C210.547 294.058 210.465 294.037 210.403 294.016C210.176 293.934 209.99 293.728 209.97 293.48C209.949 293.377 208.876 283.742 207.865 274.189C205.781 254.505 205.988 254.34 206.4 254.031C206.668 253.804 207.081 253.866 207.287 254.134C207.432 254.32 207.452 254.547 207.391 254.753C207.225 256.486 209.454 277.387 211.084 291.974L237.741 263.831C237.988 263.584 238.38 263.563 238.649 263.811C238.896 264.058 238.917 264.45 238.669 264.719L211.063 293.851C210.96 293.996 210.795 294.058 210.609 294.058Z" fill="#A1D1CE"/>
<path d="M222.496 327.895C222.228 327.895 221.98 327.73 221.897 327.461L210.034 293.624C209.951 293.418 209.993 293.171 210.158 293.005C210.302 292.84 210.529 292.758 210.756 292.779L248.554 299.298C248.905 299.36 249.132 299.69 249.07 300.041C249.008 300.392 248.678 300.619 248.327 300.557L211.602 294.223L223.115 327.028C223.239 327.358 223.053 327.73 222.723 327.833C222.62 327.874 222.558 327.895 222.496 327.895Z" fill="#A1D1CE"/>
<path d="M187.482 318.507C187.317 318.507 187.173 318.445 187.049 318.321C186.801 318.074 186.781 317.682 187.028 317.414L209.559 293.604L178.342 278.46C178.033 278.315 177.888 277.923 178.053 277.614C178.198 277.304 178.59 277.16 178.899 277.325L210.9 292.861C211.086 292.944 211.209 293.129 211.251 293.315C211.292 293.521 211.23 293.728 211.086 293.872L187.957 318.321C187.812 318.445 187.647 318.507 187.482 318.507Z" fill="#A1D1CE"/>
<path d="M210.61 298.617C213.482 298.617 215.809 296.29 215.809 293.418C215.809 290.547 213.482 288.219 210.61 288.219C207.738 288.219 205.411 290.547 205.411 293.418C205.411 296.29 207.738 298.617 210.61 298.617Z" fill="#A1D1CE"/>
<path d="M212.88 247.573C188.802 247.573 169.283 267.091 169.283 291.169C169.283 315.247 188.802 334.765 212.88 334.765C236.958 334.765 256.476 315.247 256.476 291.169C256.476 267.091 236.958 247.573 212.88 247.573ZM212.88 329.318C191.814 329.318 174.73 312.235 174.73 291.169C174.73 270.104 191.814 253.02 212.88 253.02C233.945 253.02 251.029 270.104 251.029 291.169C251.008 312.255 233.945 329.318 212.88 329.318Z" fill="#D9E8E8"/>
<path d="M213.024 329.092C192.144 329.092 175.163 312.111 175.163 291.231C175.163 270.351 192.144 253.371 213.024 253.371C233.904 253.371 250.884 270.351 250.884 291.231C250.884 312.111 233.883 329.092 213.024 329.092ZM213.024 255.29C193.196 255.29 177.082 271.424 177.082 291.231C177.082 311.059 193.217 327.173 213.024 327.173C232.851 327.173 248.965 311.038 248.965 291.231C248.965 271.424 232.831 255.29 213.024 255.29Z" fill="#81C1C1"/>
</g>
<defs>
<clipPath id="clip0">
<rect x="113" y="54" width="231" height="281.137" fill="white"/>
</clipPath>
</defs>
</svg>
