<?xml version="1.0" encoding="utf-8"?>
<!-- Generator: Adobe Illustrator 24.1.2, SVG Export Plug-In . SVG Version: 6.00 Build 0)  -->
<svg version="1.1" id="Lager_1" xmlns="http://www.w3.org/2000/svg" xmlns:xlink="http://www.w3.org/1999/xlink" x="0px" y="0px"
	 viewBox="0 0 288 560" style="enable-background:new 0 0 288 560;" xml:space="preserve">
<style type="text/css">
	.st0{fill:none;}
	.st1{fill:#A1D1CE;}
	.st2{fill:#D9E8E8;}
	.st3{fill:#81C1C1;}
	.st4{fill:#C4941C;}
	.st5{fill:#9F761C;}
	.st6{fill:#F95F02;}
	.st7{fill:#87154E;}
	.st8{fill:#700841;}
	.st9{fill:#4AAEA7;}
	.st10{fill:#319B91;}
	.st11{fill:#302D22;}
	.st12{opacity:0.8;fill:#211F1C;enable-background:new    ;}
	.st13{fill:#FFFFFF;}
	.st14{fill:#2B1C1E;}
	.st15{fill:#007C7C;}
	.st16{fill:#FF6927;}
	.st17{fill:#E25100;}
	.st18{opacity:0.8;fill:#302D22;enable-background:new    ;}
	.st19{fill:#F3B6AB;}
	.st20{fill:#F4948E;}
	.st21{fill:#591712;}
	.st22{fill:#A3C4B5;}
	.st23{fill:#87AD9B;}
	.st24{fill:#3D2A2B;}
	.st25{fill:#EA4E4E;}
	.st26{fill:#601111;}
	.st27{opacity:0.71;fill:#D7F3FF;enable-background:new    ;}
	.st28{fill:#FEC30A;}
	.st29{fill:#E5A900;}
	.st30{fill:#263238;}
</style>
<polyline class="st0" points="29.37,139.08 260.37,139.08 260.37,420.22 29.37,420.22 "/>
<path class="st1" d="M181.68,379.14c-0.06,0-0.12,0-0.19-0.02c-0.21-0.08-0.37-0.29-0.39-0.54c-0.02-0.1-1.01-9.74-1.94-19.29
	c-1.92-19.68-1.73-19.85-1.36-20.16c0.25-0.23,0.62-0.17,0.83,0.1c0.12,0.19,0.17,0.41,0.08,0.62c-0.14,1.73,1.9,22.63,3.4,37.22
	l24.57-28.14c0.23-0.25,0.6-0.27,0.83-0.02c0.23,0.25,0.25,0.64,0.02,0.91l-25.44,29.13C181.99,379.07,181.85,379.14,181.68,379.14z
	"/>
<path class="st1" d="M192.63,412.97c-0.25,0-0.47-0.16-0.56-0.43l-10.93-33.84c-0.06-0.21-0.02-0.45,0.1-0.62
	c0.12-0.17,0.35-0.25,0.56-0.23l34.83,6.52c0.33,0.06,0.54,0.39,0.47,0.74c-0.06,0.35-0.35,0.58-0.68,0.52l-33.86-6.33l10.61,32.81
	c0.1,0.33-0.06,0.7-0.35,0.8C192.76,412.95,192.7,412.97,192.63,412.97z"/>
<path class="st1" d="M160.37,403.59c-0.14,0-0.29-0.06-0.41-0.19c-0.23-0.25-0.25-0.64-0.02-0.91l20.76-23.81l-28.78-15.14
	c-0.29-0.14-0.41-0.54-0.27-0.85c0.15-0.31,0.5-0.45,0.79-0.29l29.5,15.54c0.16,0.08,0.29,0.27,0.33,0.45
	c0.04,0.21-0.02,0.41-0.15,0.56L160.8,403.4C160.68,403.52,160.53,403.59,160.37,403.59z"/>
<path class="st1" d="M176.89,378.5c0-2.87,2.15-5.2,4.79-5.2c2.64,0,4.79,2.33,4.79,5.2c0,2.87-2.15,5.2-4.79,5.2
	C179.04,383.7,176.89,381.39,176.89,378.5z"/>
<path class="st2" d="M183.76,332.65c-22.18,0-40.17,19.52-40.17,43.6s17.99,43.6,40.17,43.6c22.2,0,40.17-19.52,40.17-43.6
	C223.96,352.17,205.96,332.65,183.76,332.65z M183.76,414.4c-19.42,0-35.16-17.08-35.16-38.15c0-21.07,15.74-38.15,35.16-38.15
	s35.16,17.08,35.16,38.15C218.92,397.33,203.18,414.4,183.76,414.4z"/>
<path class="st3" d="M183.91,414.17c-19.27,0-34.97-16.98-34.97-37.86c0-20.88,15.68-37.86,34.97-37.86
	c19.27,0,34.95,16.98,34.95,37.86C218.86,397.19,203.18,414.17,183.91,414.17z M183.91,340.37c-18.22,0-33.05,16.13-33.05,35.94
	c0,19.83,14.84,35.94,33.05,35.94c18.22,0,33.05-16.13,33.05-35.94C216.94,356.5,202.13,340.37,183.91,340.37z"/>
<path class="st4" d="M179.21,397.54c-0.6,0-1.13-0.43-1.26-1.05l-22.18-122.25l-14.07,4.81c-0.66,0.23-1.38-0.12-1.61-0.8
	c-0.23-0.66,0.12-1.38,0.78-1.61l15.47-5.28c0.35-0.12,0.74-0.08,1.05,0.1c0.31,0.19,0.54,0.52,0.6,0.87l22.45,123.71
	c0.12,0.7-0.33,1.36-1.03,1.49C179.37,397.52,179.29,397.54,179.21,397.54z"/>
<path class="st4" d="M228.44,332.8c-0.64,0-1.2-0.5-1.26-1.16c-0.02-0.21-1.94-19.72-2.83-25.79c-0.87-5.88-1.79-8.98-12.13-9.24
	c-11.02-0.27-34.44,3.74-34.66,3.78c-0.7,0.12-1.36-0.35-1.47-1.03c-0.12-0.7,0.35-1.36,1.03-1.46c0.97-0.16,23.91-4.11,35.18-3.82
	c12.07,0.31,13.6,4.73,14.59,11.41c0.89,6.13,2.76,25.11,2.85,25.92c0.06,0.7-0.43,1.32-1.13,1.4
	C228.52,332.8,228.48,332.8,228.44,332.8z"/>
<path class="st4" d="M169.24,341.83c-0.64,0-1.18-0.45-1.26-1.09c-0.1-0.7,0.39-1.34,1.09-1.44l64.46-8.73
	c0.7-0.1,1.34,0.39,1.42,1.09c0.1,0.7-0.39,1.34-1.09,1.42l-64.46,8.73C169.35,341.83,169.3,341.83,169.24,341.83z"/>
<path class="st5" d="M176.13,344.62l25.34-2.37l24.68-9.59l-39.16,0.14l-11.74,5.84L176.13,344.62z"/>
<path class="st4" d="M140.67,405.05c-0.6,0-1.14-0.43-1.26-1.05l-21.95-119.61l-14.07,4.81c-0.66,0.23-1.38-0.12-1.61-0.8
	c-0.23-0.66,0.12-1.38,0.8-1.61l15.47-5.28c0.35-0.12,0.74-0.08,1.05,0.1c0.31,0.19,0.54,0.49,0.6,0.87l22.2,121.07
	c0.12,0.68-0.33,1.36-1.03,1.49C140.81,405.05,140.73,405.05,140.67,405.05z"/>
<path class="st4" d="M196.64,341.79c-0.1-0.7-0.76-1.18-1.44-1.07c-0.7,0.1-1.18,0.74-1.07,1.44l5.8,39.82L179.25,385
	c-0.68,0.1-1.18,0.72-1.07,1.42l1.26,10.4l-59.4,9.1c-0.7,0.1-1.18,0.76-1.07,1.44c0.1,0.64,0.64,1.07,1.26,1.07
	c0.06,0,0.12,0,0.19-0.02l60.62-9.28c0.68-0.1,1.16-0.72,1.07-1.42l-1.26-10.4l20.69-3.01c0.7-0.1,1.18-0.74,1.07-1.44
	L196.64,341.79z"/>
<path class="st6" d="M238.22,379.3l-2.37,1.36l-2.29,1.32c0,0-21.75-17.23-28.53-30.64c-6.77-13.41-5.96-27.11-5.96-27.11
	s-14.24,10.73-25.67,15.54c-11.43,4.81-27.54,7.9-35.12,3.12c-1.03-0.66-1.92-1.36-2.7-2.12c-5.03-4.91-5.51-11.55-5.51-11.55
	s4.58-1.42,17.46-6.95c3.88-1.55,8.09-3.22,12.26-4.87c6.07-2.41,12.07-4.79,16.86-6.68c4.15-1.63,7.39-2.91,9.02-3.51
	c7.39-2.79,16.51-5.24,22.74-1.34c0.5,0.31,0.99,0.66,1.44,1.05c4.04,3.51,6.54,10.27,9.62,19.15c1.65,4.75,3.47,10.09,5.78,15.87
	c0.54,1.32,1.05,2.66,1.59,4.04c0.89,3.47,7.94,22.51,7.98,22.61C236.88,374.89,238.22,379.3,238.22,379.3z"/>
<path class="st7" d="M176.92,299.04c1.63,4.62,0.74,11.12,0.74,11.12l-1.03,0.49c-4.79,1.9-10.77,4.27-16.86,6.69
	c-3.18,1.16-7.26,2.72-12.26,4.87c-3.4,1.34-6.54,2.6-9.2,3.67c-4.99,1.98-8.27,3.3-8.27,3.3l-8.05-28.51c0,0-6.5-9.47-9.18-18.77
	c-2.27-7.9-3.63-16.11-1.51-23.42c0.37-1.3,0.87-2.58,1.51-3.84c1.4-2.83,3.09-4.66,4.89-5.92c3.4-2.37,7.16-2.56,10.05-3.01
	c10.87-1.69,18.65-0.23,24.61,2.97c7.04,3.78,11.53,9.94,15.5,16.16c7.39,11.45,10.07,19.54,10.07,19.54
	c-2.85,0.43-4.79,2.89-5.78,4.56c-0.45,0.74-0.72,1.32-0.78,1.51c-0.02,0.04-0.02,0.06-0.02,0.06s0.37,0.54,1.15,1.65
	c0.72,1.03,1.82,2.58,3.32,4.68C176.28,297.45,176.65,298.22,176.92,299.04z"/>
<path class="st8" d="M152.39,248.64c-2.37,2.31-6.62,5.38-13.1,6.44c-9.39,1.55-18.73-4.25-21.58-6.4c3.4-2.37,7.16-2.56,10.05-3.01
	C138.64,243.99,146.42,245.46,152.39,248.64z"/>
<path class="st8" d="M138.31,325.88c-4.99,1.98-8.27,3.3-8.27,3.3l-8.05-28.51c0,0-1.75-2.56-3.82-6.33
	c-0.56-1.01-1.13-2.11-1.69-3.26c-1.38-2.83-2.74-6.02-3.65-9.18c-2.27-7.9-3.63-16.11-1.51-23.42c1.32,5.67,3.8,15.08,7.26,22.59
	c5.26,11.39,7.78,13.27,11.76,18.28c0.04,0.06,0.1,0.12,0.14,0.18c0,0-0.35,0.99-0.78,2.56c-0.37,1.36-0.33,2.97-0.31,3.4
	c0,0.06,0,0.1,0,0.1l0.27,1.45c0,0,0.5,0.14,5.69,11.66C136.72,321.57,137.65,323.94,138.31,325.88z"/>
<path class="st8" d="M172.13,288.93c-0.45,0.74-0.72,1.32-0.78,1.51l-4.73-6.07c-1.28-8.52-9.18-17.93-9.18-17.93
	s1.69,0.17,6.54,6.11c4.85,5.94,4.19,11,4.19,11C169.57,285.61,171.08,287.57,172.13,288.93z"/>
<path class="st9" d="M39.96,248.84c0,0,2.68,3.11,7.22,6.99c0.12,0.08,0.23,0.19,0.35,0.29c0.62,0.52,1.26,1.03,1.94,1.57
	c2.19,1.75,4.68,3.55,7.45,5.24c10.17,6.23,22.04,7.74,29.09,7.12c0,0,0.29-0.37,0.8-1.03c0,0,16.86,70.71,17.6,77.85
	c0.74,7.16-1.16,64.76-1.16,64.76l-2.95-0.43l-0.37-0.06l-0.43-0.06c0,0-0.04-0.1-0.12-0.29c0,0,0-0.02-0.02-0.02
	c-1.38-3.14-12.4-28.72-14.17-40.73c-1.88-12.79,3.59-21.64,3.59-21.64s-3.38-5.47-8.11-15.25c-2.7-5.65-9.31-20.39-14.4-31.86
	v-0.02c-0.5-1.13-0.99-2.23-1.46-3.28c-2.95-6.66-5.14-11.62-5.22-11.82c0,0-7.72,36.25-9.04,55.27c-1.32,19-3.2,71.16-3.2,71.16
	l-2.87-0.87l-0.04-0.02L44,411.59l-0.99-0.31c0,0-12.63-31.82-13.56-47.06"/>
<path class="st10" d="M40.54,307.19c-1.4,35.14-1.98,78.71,3.9,104.5l-1.42-0.43c0,0-12.63-31.82-13.56-47.06"/>
<path class="st10" d="M39.96,248.82c0,0,3.61,4.19,9.49,8.85c-4.13,8.15-7.55,15.02-8.91,49.52"/>
<path class="st10" d="M100.33,411.2l-0.83-0.12c0,0-12.42-28.25-14.32-41.04c-1.88-12.79,3.59-21.64,3.59-21.64
	s-3.38-5.47-8.11-15.25c-4.66-9.72-20.84-46.4-21.09-46.98c0.16,0.08,2.74,1.55,11.86,17c9.41,15.97,21.64,42.77,21.64,42.77
	s-1.05,6.93,0,26.7C93.79,385.61,97.63,401.44,100.33,411.2z"/>
<path class="st11" d="M97.25,172.36c-1.07,2.23-2.66,3.84-4.89,5.72c-3.67,3.12-6.6,1.22-8.38,0.74c-1.79-0.47-2.17,2.35-2.17,5.47
	c0,3.12-5.26,6.87-9.7,6.4c-1.86-0.21-3.78-1.09-5.36-2.41c-2.21-1.84-3.73-4.48-3.4-7.1c0.56-4.52,5.08-3.57,7.7-3.12
	c2.6,0.47,1.71-3.67,0.39-6.6c-1.32-2.91,0.66-5.84,5.26-7.63c4.62-1.79,7.26-1.22,11.31,0.1c1.28,0.41,2.37,0.43,3.28,0.21
	c1.26-0.31,2.15-1.09,2.66-1.9c0.58,1.26,1.63,2.17,3.26,2.1C97.21,164.37,96.72,168.11,97.25,172.36z"/>
<path class="st12" d="M97.25,172.36c-1.07,2.23-2.66,3.84-4.89,5.72c-3.67,3.12-6.6,1.22-8.38,0.74c-1.8-0.47-2.17,2.35-2.17,5.47
	s-5.26,6.87-9.7,6.4c-1.86-0.21-3.78-1.09-5.36-2.41c5.08-0.76,9.92-6.07,9.92-10.21c0-5.8,3.82-4.23,10.13-3.18
	c6.31,1.05,6.83-4.17,4.99-8.91c-0.23-0.58-0.39-1.18-0.5-1.82c1.26-0.31,2.15-1.09,2.66-1.9c0.58,1.26,1.63,2.17,3.26,2.1
	C97.21,164.37,96.72,168.11,97.25,172.36z"/>
<path class="st13" d="M39.96,248.8c2.27-4.81,11.43-17.78,12.85-20.61c1.4-2.83,4.09-13.29,8.05-25.15
	c3.53-10.54,9.26-16.2,16.26-19.68c0.87-0.43,1.75-0.85,2.66-1.22c4.11-1.69,7.8-2.33,11.06-2.33c1.71,0,3.32,0.17,4.79,0.43
	c0.14,0.02,0.29,0.04,0.41,0.08c1.16,0.23,2.21,0.52,3.22,0.83c3.71,1.18,7.72,2.95,11.37,5.55c0.12,0.08,0.23,0.17,0.35,0.25
	c0.45,0.33,0.91,0.68,1.36,1.03c4.35,3.53,7.98,8.36,9.66,14.92c3.26,12.75,2.13,23.89,2.13,23.89c-2.6,0.8-7.04,1.11-10.42,1.22
	c-2.19,0.06-3.94,0.06-4.5,0.04c-0.12,0-0.19,0-0.19,0v-3.67c0,0-0.08,0.19-0.23,0.56c-0.85,2.06-3.96,9.53-7.2,17.43
	c-0.76,1.88-1.55,3.78-2.31,5.61c-3.69,9.04-10.21,18.01-12.48,21c-0.52,0.66-0.8,1.03-0.8,1.03c-0.5,0.04-1.01,0.08-1.57,0.1
	c-0.17,0-0.31,0.02-0.47,0.02c-7.16,0.19-17.81-1.57-27.05-7.24c-2.74-1.67-5.22-3.47-7.41-5.2c-0.74-0.6-1.46-1.18-2.13-1.73
	c-0.1-0.1-0.21-0.19-0.31-0.27C42.6,251.88,39.96,248.8,39.96,248.8"/>
<path class="st14" d="M112.34,188.02c-2.13,1.11-6.27,2.68-10.52,1.22c-4.09-1.4-8.48-6.27-10.98-9.41c3.24,0,6.05,0.6,8.42,1.34
	C103.57,182.55,108.27,184.72,112.34,188.02z"/>
<path class="st15" d="M39.96,248.84c2.27-4.81,11.43-17.79,12.85-20.61c1.4-2.83,4.09-13.29,8.05-25.15
	c3.53-10.54,9.26-16.2,16.26-19.68c-5.28,13.37-4.35,31.26-4.44,36.25c0,0-0.7-0.1-2.08-0.1c-2.13,0-3.38,0-3.38,0l0.08,1.32
	c-1.13,5.39-8.65,21.89-14.3,30.45c-1.55,2.35-2.66,4.52-3.49,6.42C43.59,253.05,39.96,248.84,39.96,248.84"/>
<path class="st14" d="M113.7,228.03c-2.66,0.08-4.68,0.04-4.68,0.04v-3.67c0,0-3.61,8.71-7.45,17.99
	c2.23-12.67,10.79-31.77,10.79-31.77S112.77,222.25,113.7,228.03z"/>
<path class="st16" d="M244.71,355.43c0,11.31-0.85,23.03-0.85,23.03h-4.23l-4.85-9.92c-2.1-6.4-4.95-14.75-7.99-22.61
	c0,0,0,0,0-0.02c0,0-1.32-14.2,0.45-24.22l-7.82,4.33c-0.66-1.92-1.3-3.73-1.94-5.45c-2.29-6.21-4.52-10.96-7.68-13.7
	c-0.47-0.39-0.95-0.74-1.44-1.05c0,0,17.27-5.32,23.07-6.02c5.8-0.68,12.85-0.68,14.26,7.63
	C247.11,315.75,244.71,344.14,244.71,355.43z"/>
<path class="st17" d="M241.06,378.46h-1.45l-4.85-9.92c-2.11-6.4-4.95-14.75-7.99-22.61c0,0,0,0,0-0.02c0,0-1.32-14.2,0.45-24.22
	l-7.82,4.33c-0.66-1.92-1.3-3.73-1.94-5.45c4.48-2.77,16.03-9.66,16.03-9.66s-1.88,12.42-1.13,31.07
	C232.99,356.34,238.55,372.02,241.06,378.46z"/>
<path class="st11" d="M131.69,157.75c-0.33,1.51-0.76,2.7-1.24,3.69c-1.03,2.1-2.25,3.14-2.99,3.59c0.06-0.27,0.12-0.52,0.17-0.78
	c1.4-7.49-0.29-8.95-2.68-10.19c-2.39-1.24-4.95,0-4.95,0s-0.56-2.23-5.08-3.36c-4.5-1.13-8.87,0.56-11.27,2.68
	c-2.39,2.13-4.95,4.66-4.95,4.66s-0.1-2.68-1.51-3.65c0.83-1.88,1.82-4.02,2.95-6.25c1.57-3.05,3.69-5.2,5.92-6.62
	c3.01-1.94,6.21-2.58,8.48-2.41c4.85,0.37,5.36,2.64,5.36,2.64s4.81-0.56,8.23,1.8C131.59,145.89,133.11,151.25,131.69,157.75z"/>
<path class="st18" d="M130.47,161.42c-1.03,2.1-2.25,3.14-2.99,3.59c0.06-0.27,0.12-0.52,0.17-0.78c1.4-7.49-0.29-8.95-2.68-10.19
	s-4.95,0-4.95,0s-0.56-2.23-5.08-3.36c-4.52-1.11-8.89,0.58-11.29,2.7c-2.39,2.13-4.95,4.66-4.95,4.66s-0.1-2.68-1.51-3.65
	c0.83-1.88,1.82-4.02,2.95-6.25c1.57-3.05,3.69-5.2,5.92-6.62c-1.13,2.6-2.29,6.15-2.58,9.31c0,0,5.8-3.53,10.27-3.38
	c4.48,0.14,7.94,3.53,7.94,3.53c3.82-1.84,6.91,0.29,8.46,6.73C130.47,158.87,130.53,160.14,130.47,161.42z"/>
<path class="st4" d="M245.04,411.82c-0.39,0-0.76-0.17-1.03-0.52l-12.54-16.75c-0.12-0.17-0.21-0.35-0.23-0.56l-2.6-15.6
	c-0.12-0.7,0.35-1.34,1.05-1.46c0.7-0.12,1.36,0.35,1.46,1.05l2.56,15.31l12.36,16.51c0.43,0.56,0.31,1.36-0.25,1.77
	C245.58,411.74,245.31,411.82,245.04,411.82z"/>
<path class="st19" d="M226.79,291.9c-0.29,0.74-2.35-0.85-2.17-0.56c0.19,0.29,1.78,1.59,1.4,2.27c-0.29,0.49-3.24-0.41-4.64-0.87
	c-0.25-0.1-0.47-0.16-0.62-0.21c0.12,0.04,0.35,0.12,0.62,0.21c0.78,0.31,1.84,0.87,1.53,1.53c-0.02,0.06-0.06,0.1-0.12,0.14
	c-1.01,0.68-6.56-0.99-6.56-0.99s-9.04,3.38-16.67,5.18c-6.73,1.59-18.43,1.46-22.63,0.45c-0.29-0.83-0.66-1.57-1.11-2.23
	c-1.51-2.1-2.6-3.63-3.32-4.68c-0.37-0.58-0.74-1.14-1.15-1.65c0,0,0.17-0.43,0.52-1.05c0.89-1.63,2.91-4.6,6.07-5.08
	c0,0,2.35,1.98,4.33,2.64c1.98,0.66,17.78,1.42,24.37,1.32c6.6-0.1,8.48-0.56,8.48-0.56s3.67-3.3,6.87-0.95
	C225.18,289.16,227.05,291.14,226.79,291.9z"/>
<path class="st20" d="M222.78,294.4c-1.01,0.68-6.56-0.99-6.56-0.99s-9.04,3.38-16.67,5.18c-6.73,1.59-18.43,1.46-22.63,0.45
	c-0.29-0.82-0.66-1.57-1.11-2.23c-1.51-2.1-2.6-3.63-3.32-4.68c-0.37-0.58-0.74-1.13-1.15-1.65c0,0,0.17-0.43,0.52-1.05
	c3.07,2.31,6.48,4.62,12.3,5.94c6.68,1.51,15.54,0.85,21.09,0c5.55-0.85,10.07-3.3,10.07-3.3s0.74-0.62,3.12,0.64
	C220.08,293.62,221.9,294.15,222.78,294.4z"/>
<path class="st19" d="M128.16,245.73c-3.16,0.39-6.31,1.44-8.34,2.21c-1.36,0.52-2.21,0.91-2.21,0.91
	c-6.91-7.06-8.6-20.76-8.6-20.76c1.32,0,2.95-0.08,4.66-0.21c4.93-0.37,10.44-1.05,10.44-1.05L128.16,245.73z"/>
<path class="st20" d="M119.83,247.91c-1.36,0.52-2.21,0.91-2.21,0.91c-6.91-7.06-8.6-20.76-8.6-20.76c1.32,0,2.95-0.08,4.66-0.21
	C114.52,232.42,116.65,242.32,119.83,247.91z"/>
<path class="st19" d="M127.65,164.25c-0.04,0.27-0.1,0.52-0.17,0.78c-1.79,7.32-9.47,15.68-14.24,17.72c-1.4,0.6-2.99,0.95-4.6,1.03
	c-2.74,0.12-5.53-0.6-7.59-2.41c-0.97-0.85-1.77-1.92-2.35-3.28c-0.78-1.84-1.22-3.84-1.46-5.72c-0.54-4.25-0.02-7.98-0.02-7.98
	c-1.63,0.04-2.68-0.85-3.26-2.1c-1.34-2.93-0.19-7.9,1.77-8.19c0.6-0.08,1.09,0.04,1.46,0.31c1.4,0.95,1.51,3.65,1.51,3.65
	s2.15-2.13,4.35-4.13c0.19-0.21,0.39-0.39,0.6-0.56c2.39-2.13,6.77-3.82,11.31-2.68c4.52,1.13,5.08,3.36,5.08,3.36s2.54-1.24,4.95,0
	C127.36,155.3,129.07,156.76,127.65,164.25z"/>
<path class="st20" d="M101.05,181.35c-0.97-0.85-1.77-1.92-2.35-3.28c-0.78-1.84-1.22-3.84-1.46-5.72
	c-0.54-4.25-0.02-7.98-0.02-7.98c-1.63,0.04-2.68-0.85-3.26-2.1c-1.34-2.93-0.19-7.9,1.77-8.19c0.6-0.08,1.09,0.04,1.46,0.31
	c1.4,0.95,1.51,3.65,1.51,3.65s2.15-2.13,4.35-4.13C100.93,162.25,97.96,173.25,101.05,181.35z"/>
<path class="st19" d="M221.4,292.71c-0.41-0.17-0.74-0.25-0.74-0.25S220.94,292.56,221.4,292.71z"/>
<path class="st19" d="M150.53,241.15c-0.66,2.7-2.02,4.5-3.63,5.72c-1.38,1.05-2.95,1.67-4.35,2.02c-0.08,0.02-0.16,0.04-0.27,0.06
	c-0.45,0.1-0.89,0.19-1.3,0.25c-0.08,0.02-0.17,0.02-0.25,0.02c-0.02,0-0.04,0-0.06,0c-1.4,0.16-2.37,0.1-2.37,0.1v7.63
	c-1.18,1.38-8.36-2.83-10.11-6.68c-0.29-0.62-0.58-1.28-0.85-1.94c-0.72-1.65-1.4-3.34-1.9-4.6l-0.87-2.21c0,0-4.04-0.93-4.7-4.99
	c-0.47-2.95,0.37-4.33,3.01-3.86c0.12,0.02,0.23,0.06,0.33,0.08c1.75,1.63,3.3,5.03,3.3,5.03s0.68-2.93,0.62-6.02
	c-0.1-3.76-1.42-3.53-3.12-7.1c-0.04-0.08-0.06-0.14-0.08-0.21c-0.17-0.5-0.33-1.05-0.47-1.71c-0.23-2.58,1.75-4.54,4.62-5.84
	c0.04-0.02,0.08-0.04,0.12-0.06c3.61-1.61,6.93-0.95,12.19-3.2c1.13-0.5,2.12-1.09,2.99-1.77c0.91,0.66,1.92,2.17,2.93,4.6
	C148.07,220.72,152.69,232.21,150.53,241.15z"/>
<path class="st19" d="M185.64,307.15c0,0-0.08,0.04-0.27,0.12c-0.15,0.06-0.33,0.14-0.58,0.25c-0.95,0.39-2.74,1.09-5.53,2.1
	c-4.52,1.61-6.58,2.33-7.35,2.62c-0.74,0.29-11.02,2.83-24.47,0.95c-13.45-1.88-16.46-5.92-18.18-7.82c0,0,0.14-3.1,1.4-6.23
	c0.14-0.37,0.31-0.74,0.5-1.11c1.69-3.49,4.81-5.55,4.81-5.55c4.15,4.81,14.77,7.53,21.52,9.41c6.73,1.88,15.29,3.67,15.29,3.67
	s0.66-1.03,6.31-0.85c4.08,0.14,5.71,1.36,6.29,2.02C185.56,306.96,185.64,307.15,185.64,307.15z"/>
<path d="M112.77,159.73c0.95,0.45-0.95-3.2-3.78-3.86c-2.83-0.66-3.96,0.29-3.96,1.32C105.05,158.23,111,158.87,112.77,159.73z"/>
<path d="M119.54,162.17c-0.74-0.08,1.51-2.17,4.52-1.61c3.01,0.56,3.38,2.17,3.12,2.83C126.9,164.04,122.74,162.54,119.54,162.17z"
	/>
<path class="st19" d="M150.32,255.28c-0.12-0.33-0.23-0.52-0.23-0.52S150.18,254.97,150.32,255.28z"/>
<path class="st19" d="M149.39,256.72c0,0.12,0.12,0.87,0.31,1.75C149.56,257.36,149.39,256.6,149.39,256.72z"/>
<path class="st21" d="M125.42,243.75l-0.87-2.21C124.53,241.54,124.88,242.43,125.42,243.75z"/>
<path class="st22" d="M145.39,209.87c-0.54,0.7-1.22,1.4-2.04,2.02c-0.87,0.66-1.86,1.28-2.99,1.77c-5.26,2.25-8.58,1.59-12.19,3.2
	c-2.93,1.3-4.97,3.28-4.75,5.9c0.04,0.54,0.21,1.11,0.47,1.71c0.02,0.06,0.04,0.14,0.08,0.21c1.69,3.57,3.01,3.34,3.12,7.1
	c0.08,3.12-0.62,6.02-0.62,6.02s-0.91-4.25-3.3-5.03c-0.1-0.04-0.21-0.08-0.33-0.08c-2.64-0.47-3.49,0.91-3.01,3.86
	c0.66,4.04,4.7,4.99,4.7,4.99s0.35,0.91,0.87,2.21v0.02c-0.04-0.08-4.17,0.87-7.76-5.94c-1.57-2.97-2.56-5.98-3.16-8.93
	c-0.78-3.82-0.87-7.53-0.6-10.87c0.47-5.94,3.86-9.41,9.88-11.68c6.02-2.25,21.83-3.78,22.96-1.69
	C147.41,205.82,146.92,207.89,145.39,209.87z"/>
<path class="st23" d="M128.16,227.22c-1.22,0.95,0.52-2.89,2.79-3.51c2.25-0.62,4.99,0.12,4.89,1.34
	C135.75,226.27,129.71,226,128.16,227.22z"/>
<path class="st23" d="M142.62,223.49c-1.09,0-0.47-2.29,1.07-2.91c2.72-1.11,4.27,0.21,4.33,0.39
	C148.11,221.15,143.84,223.49,142.62,223.49z"/>
<path class="st7" d="M43.01,411.26v8.95h18.84l-14.5-7.63L43.01,411.26z"/>
<path class="st7" d="M99.5,411.08l-1.32,7.72h16.38l-11.31-7.16L99.5,411.08z"/>
<path class="st16" d="M234.79,368.53c-2.1-6.4-4.95-14.75-7.99-22.61C227.69,349.38,234.75,368.43,234.79,368.53z"/>
<path class="st16" d="M147.51,322.21c-9.74,3.88-17.48,6.97-17.48,6.97S134.64,327.76,147.51,322.21z"/>
<path class="st19" d="M103.92,296.81c-0.27-0.02-0.41-0.35-0.47-0.82c0,0,0,0,0-0.02c-0.12-0.95,0.08-2.39,0.08-2.39
	s-0.06,0.14-0.17,0.39c-0.37,0.91-1.3,3.03-1.82,2.81c-0.27-0.12-0.39-0.83-0.45-1.63c-0.08-1.16-0.02-2.52-0.02-2.52
	s-0.1,0.54-0.27,1.2c-0.27,1.03-0.72,2.33-1.24,2.27c-0.33-0.04-0.54-0.6-0.68-1.26c-0.21-1.01-0.23-2.25-0.23-2.25
	s0,1.26-0.21,2.27v0.02c-0.12,0.6-0.33,1.11-0.64,1.22c-0.29,0.08-0.83-1.3-1.4-3.14c-1.07-3.42-2.27-8.46-2.27-8.46
	s-0.99-2.08-4.37-5.84c-3.38-3.76-16.24-26.33-19.21-34.79c-2.97-8.48-2.83-19.91-3.38-24.35c0,0,2.02-0.27,5.49,0.1
	c0.91,0.1,1.9,0.23,2.99,0.43c5.26,0.95,8.48,2.83,8.48,2.83c0,4.52,0.74,17.78,0.74,17.78s2.93,5.92,5.47,13.27
	c2.54,7.35,7.35,25.79,7.53,26.08s7.45,3.67,8.29,8.01C107.04,292.36,104.77,296.88,103.92,296.81z"/>
<path class="st19" d="M108.64,183.77c-0.45,0.93-1.28,2.64-2.27,4.68c-3.14,6.44-8.01,16.26-8.38,16.18
	c-0.37-0.08,0.04-11.51,0.39-19.35c0.17-4.09,0.33-7.2,0.33-7.2C100.52,182.32,104.64,183.95,108.64,183.77z"/>
<path class="st20" d="M108.65,183.77c-0.45,0.93-1.28,2.64-2.27,4.68c-3.18-0.25-6.33-2.06-7.98-3.18c0.17-4.09,0.33-7.2,0.33-7.2
	C100.52,182.32,104.64,183.95,108.65,183.77z"/>
<path class="st20" d="M96.45,292.98c-1.07-3.43-2.27-8.46-2.27-8.46s-0.99-2.08-4.37-5.84c-3.38-3.76-16.24-26.33-19.21-34.79
	c-2.97-8.48-2.83-19.91-3.38-24.35c0,0,2.02-0.27,5.49,0.1c-0.08,10.36,0.25,16.98,3.28,25.93c3.24,9.59,9.18,21.42,13.27,28.29
	c4.09,6.87,5.8,9.39,6.07,9.7C95.48,283.73,95.83,288.77,96.45,292.98z"/>
<path class="st20" d="M140.66,249.24c-1.4,0.16-2.37,0.1-2.37,0.1v1.98c-3.05-1.09-7.39-2.52-10.96-2.97
	c-0.72-1.65-1.4-3.34-1.9-4.6l-0.87-2.21c0,0-4.04-0.93-4.7-4.99c-0.47-2.95,0.37-4.33,3.01-3.86c0.12,0.02,0.23,0.06,0.33,0.08
	c2.56,1.01,3.3,5.03,3.3,5.03s0.68-2.93,0.62-6.02c-0.1-3.76-1.42-3.53-3.12-7.1c-0.04-0.08-0.06-0.14-0.08-0.21
	c-0.17-0.5-0.33-1.05-0.47-1.71c-0.23-2.58,1.75-4.54,4.62-5.84c-0.41,8.79-1.03,13.82,1.32,21.42
	C131.52,245.36,135.2,249.73,140.66,249.24z"/>
<path class="st20" d="M142.54,248.91c-0.08,0.02-0.17,0.04-0.27,0.06C142.38,248.95,142.46,248.93,142.54,248.91z"/>
<path class="st19" d="M152.77,258.13c-0.64,0.93-1.82-1.4-2.37-2.66c0.7,1.77,2.41,6.25,1.38,7.06c-0.41,0.33-0.82-0.14-1.15-0.93
	v-0.02c-0.35-0.76-0.66-1.86-0.87-2.83c0,0,0,0,0-0.02c-0.02-0.08-0.04-0.17-0.06-0.25c-0.14-1.11-0.31-1.9-0.31-1.75
	s0.12,0.87,0.31,1.75c0,0.04,0.02,0.1,0.02,0.14v0.02c0.08,0.6,0.17,1.3,0.21,2c0,0,0,0,0,0.02c0.17,1.94,0.14,3.9-0.54,4.13
	c-0.47,0.15-0.95-0.43-1.36-1.24c-0.72-1.4-1.28-3.51-1.42-4.11c0.1,0.5,0.18,0.97,0.29,1.45c0.47,2.68,0.64,4.68-0.31,3.61
	c-1.13-1.28-4.23-9.74-4.23-9.74s1.42,6.35,0,6.5c-0.91,0.08-2.23-3.55-3.05-6.17c-0.45-1.46-0.76-2.6-0.76-2.6
	c-0.12-0.41-0.21-0.82-0.25-1.24v-1.92c0,0,4.91,0.37,8.62-2.48c0.43,0.27,0.89,0.64,1.3,1.05
	C151.16,250.91,153.52,257.03,152.77,258.13z"/>
<path class="st20" d="M148.19,247.94c-1.82,3.2-5.49,5.32-8.91,7.16c-0.45-1.46-0.76-2.6-0.76-2.6c-0.12-0.41-0.21-0.82-0.25-1.24
	v-1.92c0,0,4.91,0.37,8.62-2.48C147.33,247.15,147.78,247.5,148.19,247.94z"/>
<path class="st20" d="M185.64,307.15c0,0-1.88,0.85-6.4,2.46c-4.52,1.61-6.58,2.33-7.35,2.62c-0.74,0.29-11.02,2.83-24.47,0.95
	c-13.45-1.88-16.46-5.92-18.18-7.82c0,0,0.14-3.09,1.4-6.23c2.66,3.47,8.17,7.26,16.88,9.62c9.41,2.54,22.3,2.35,26.72,1.13
	c0,0,6.54-4.27,11.1-3.16C185.56,306.96,185.64,307.15,185.64,307.15z"/>
<path class="st17" d="M235.84,380.66l-2.29,1.32c0,0-21.75-17.23-28.54-30.64c-6.77-13.41-5.96-27.11-5.96-27.11
	s-14.24,10.73-25.67,15.54c-11.43,4.81-27.54,7.9-35.12,3.12c-1.03-0.66-1.92-1.36-2.7-2.12c-0.1-1.75-0.17-2.77-0.17-2.77
	s40.73-11.9,52.78-16.3c12.05-4.37,16.11-6.23,16.11-6.23s-0.47,16.69,8.75,35.24C220.08,364.9,231.06,376,235.84,380.66z"/>
<path class="st1" d="M176.13,344.62l-18.71,2.89l-25.23,3.9c0,0-5.39-21.46-5.2-22.22l14.22-2.17l31.65-4.81L176.13,344.62z"/>
<path class="st24" d="M108.5,163.94c-0.91,1.38-1.96,2.27-2.37,2c-0.41-0.27,0-1.59,0.91-2.97c0.91-1.38,1.96-2.27,2.37-2
	C109.82,161.24,109.41,162.56,108.5,163.94z"/>
<path class="st24" d="M119.72,168.11c-0.91,1.38-1.96,2.27-2.37,2c-0.41-0.27,0-1.59,0.91-2.97c0.91-1.38,1.96-2.27,2.37-2
	C121.04,165.41,120.63,166.73,119.72,168.11z"/>
<path class="st24" d="M132.76,230.01c-0.27,1.18-0.82,2.06-1.24,1.98c-0.43-0.1-0.56-1.13-0.29-2.31c0.27-1.18,0.82-2.06,1.24-1.98
	C132.89,227.78,133.03,228.83,132.76,230.01z"/>
<path class="st24" d="M145.45,227.55c-0.27,1.2-0.83,2.06-1.24,1.98c-0.43-0.1-0.56-1.13-0.29-2.31c0.27-1.18,0.82-2.06,1.24-1.98
	C145.6,225.32,145.72,226.35,145.45,227.55z"/>
<path class="st24" d="M113.02,175.12c-0.06,0-0.12-0.02-0.17-0.08c0,0-1.75-2.04-2.89-3.38c-0.08-0.08-0.06-0.23,0.02-0.29
	c0.08-0.08,0.23-0.06,0.29,0.02c0.87,1.03,2.1,2.5,2.64,3.09l3.36-10.44c0.04-0.1,0.14-0.17,0.27-0.14c0.1,0.04,0.17,0.14,0.14,0.27
	l-3.47,10.81c-0.02,0.08-0.08,0.12-0.17,0.14C113.06,175.1,113.04,175.12,113.02,175.12z"/>
<path class="st24" d="M96.08,155.59c-0.04-0.1-0.17-0.17-0.27-0.12c-0.1,0.04-0.17,0.16-0.12,0.27c0,0.02,0.41,1.24,0.64,2.85
	c-0.5,0.25-2,1.01-1.71,1.98c0.08,0.25,0.23,0.41,0.45,0.52c0.1,0.04,0.23,0.06,0.37,0.06c0.37,0,0.78-0.14,1.05-0.29
	c0,0.29-0.02,0.58-0.04,0.87c-0.02,0.12,0.08,0.23,0.19,0.23h0.02c0.1,0,0.21-0.08,0.21-0.19
	C97.15,158.74,96.12,155.71,96.08,155.59z M95.21,160.64c-0.1-0.04-0.17-0.1-0.21-0.23c-0.08-0.27,0.1-0.74,1.36-1.4
	c0.04,0.43,0.08,0.89,0.1,1.34C96.12,160.54,95.52,160.76,95.21,160.64z"/>
<path class="st13" d="M105.05,173.14c0,0,4.72,2.89,7.63,3.67c0,0-2.97,1.84-5.36,0.56C104.91,176.09,105.05,173.14,105.05,173.14z"
	/>
<path class="st15" d="M110.97,186.97l-15.99,28.78c-0.04,0.06-0.1,0.1-0.19,0.1c-0.02,0-0.04,0-0.06-0.02
	c-0.08-0.02-0.17-0.1-0.14-0.21l0.97-32.62l0.02-0.43l0.06-2.31c0.14,0.02,0.29,0.04,0.41,0.08l-0.08,2.43v0.04l-0.95,31.94
	l15.6-28.04C110.75,186.8,110.87,186.88,110.97,186.97z"/>
<path class="st24" d="M142.42,237.5c-0.64,0-1.32-0.04-2.08-0.1c-0.12-0.02-0.21-0.1-0.19-0.23c0.02-0.12,0.12-0.21,0.23-0.19
	c3.98,0.35,5.38-0.29,5.86-0.89c0.29-0.37,0.33-0.85,0.15-1.44c-0.49-1.49-3.05-0.99-3.1-0.99c-0.06,0.02-0.12,0-0.16-0.04
	c-0.04-0.04-0.08-0.08-0.08-0.14l-1.18-8.95c-0.02-0.12,0.06-0.23,0.19-0.23c0.12-0.02,0.23,0.06,0.23,0.19l1.15,8.75
	c0.7-0.1,2.83-0.25,3.36,1.32c0.25,0.72,0.17,1.34-0.21,1.84C145.97,237.1,144.56,237.5,142.42,237.5z"/>
<path class="st24" d="M140.36,230.6c-0.06,0-0.12-0.02-0.16-0.08c-0.06-0.1-0.04-0.23,0.04-0.29c0.08-0.06,1.98-1.42,4.48-1.16
	c0.12,0.02,0.21,0.12,0.19,0.23c-0.02,0.12-0.12,0.21-0.23,0.19c-2.33-0.25-4.17,1.05-4.19,1.07
	C140.44,230.6,140.4,230.6,140.36,230.6z"/>
<path class="st24" d="M133.3,232.98c-0.04,0-0.06,0-0.1-0.02c-0.45-0.12-6.09-0.33-9.78-0.45c-0.12,0-0.21-0.1-0.21-0.23
	c0-0.12,0.08-0.21,0.23-0.21c4.39,0.12,9.72,0.33,9.99,0.52c0.1,0.06,0.12,0.19,0.06,0.29C133.42,232.96,133.36,232.98,133.3,232.98
	z"/>
<path class="st24" d="M124.82,239.58c-0.08,0-0.17-0.04-0.19-0.12c-1.24-2.66-3.01-3.98-3.03-3.98c-0.1-0.06-0.12-0.21-0.04-0.29
	c0.06-0.1,0.21-0.12,0.29-0.04c0.08,0.06,1.9,1.38,3.18,4.15c0.04,0.1,0,0.23-0.1,0.29C124.88,239.58,124.86,239.58,124.82,239.58z"
	/>
<path class="st24" d="M123.33,239c-0.06,0-0.1,0-0.17-0.02c-0.19-0.04-0.47-0.16-0.66-0.56c-0.17-0.35-0.21-0.68-0.08-0.99
	c0.19-0.52,0.72-0.76,0.76-0.78c0.1-0.04,0.23,0,0.27,0.1c0.04,0.1,0,0.23-0.1,0.29c0,0-0.39,0.19-0.54,0.54
	c-0.06,0.21-0.04,0.41,0.06,0.66c0.1,0.19,0.21,0.31,0.35,0.33c0.33,0.06,0.76-0.27,0.89-0.39c0.08-0.08,0.23-0.08,0.31,0
	c0.08,0.08,0.08,0.23,0,0.31C124.39,238.55,123.87,239,123.33,239z"/>
<path class="st25" d="M141.57,243.31c-1.46,0-2.72-0.37-2.93-0.48c-0.1-0.06-0.14-0.18-0.08-0.29c0.06-0.1,0.19-0.15,0.29-0.08
	c0.33,0.17,4.54,1.32,6.6-1.05c0.08-0.08,0.21-0.1,0.31-0.02c0.08,0.08,0.1,0.21,0.02,0.29C144.65,242.94,143,243.31,141.57,243.31z
	"/>
<path class="st24" d="M139.06,249.57c-5.03,0-7.32-3.16-7.43-3.3c-0.06-0.1-0.04-0.23,0.04-0.29c0.1-0.06,0.23-0.04,0.29,0.04
	c0.02,0.04,2.33,3.24,7.32,3.12c0.06,0,6.97-0.08,9.92-5.22c0.06-0.1,0.19-0.15,0.29-0.08c0.1,0.06,0.15,0.19,0.08,0.29
	c-3.05,5.34-10.21,5.43-10.28,5.43C139.22,249.57,139.14,249.57,139.06,249.57z"/>
<path class="st24" d="M146.58,259.35c0.1,0.51,0.21,1.05,0.31,1.55c-0.6-1.84-1.2-3.16-1.22-3.18c-0.04-0.1,0-0.23,0.1-0.29
	c0.1-0.04,0.23,0,0.29,0.1c0.02,0.04,1.32,2.85,1.98,6.02C147.27,262.05,146.69,259.74,146.58,259.35z"/>
<path class="st24" d="M149.72,258.66c0.08,0.6,0.16,1.3,0.21,2c-0.52-1.75-1.13-3.16-1.44-3.88c-0.19-0.41-0.23-0.5-0.23-0.58
	c0-0.12,0.1-0.21,0.21-0.21s0.19,0.08,0.21,0.19c0.02,0.06,0.1,0.25,0.19,0.43C149.06,257.06,149.39,257.76,149.72,258.66
	C149.72,258.66,149.72,258.64,149.72,258.66z"/>
<path class="st26" d="M150.63,261.59c-0.35-0.78-0.66-1.88-0.87-2.85C150.05,259.57,150.38,260.54,150.63,261.59z"/>
<path class="st4" d="M71.61,219.75h-0.02c-0.12-0.02-0.21-0.12-0.19-0.23c0.02-0.14,1.42-15,2.83-22.14
	c1.42-7.32,9.49-14.98,21.56-14.79c0.12,0,0.21,0.1,0.21,0.21c0,0.12-0.1,0.21-0.21,0.21c-11.86-0.19-19.75,7.28-21.15,14.44
	c-1.38,7.1-2.81,21.95-2.81,22.1C71.8,219.67,71.71,219.75,71.61,219.75z"/>
<path class="st13" d="M84.15,223.09c-0.02,0-0.04,0-0.08-0.02c-0.06-0.02-6.62-2.43-10.63-3.14c-3.96-0.7-6.19-0.21-6.21-0.21
	c-0.06,0.02-0.12,0-0.17-0.04c-0.04-0.04-0.08-0.08-0.08-0.14c-0.02-0.23-1.9-22.2,4.42-31.22c0.06-0.1,0.21-0.12,0.29-0.04
	c0.1,0.06,0.12,0.21,0.06,0.29c-5.88,8.4-4.56,28.33-4.37,30.7c0.68-0.12,2.79-0.35,6.13,0.25c3.55,0.64,9.1,2.58,10.4,3.05
	c0.02-2.62,0.17-21.62,0-27.17c0-0.12,0.08-0.21,0.21-0.23c0.1,0,0.21,0.08,0.23,0.21c0.19,5.96,0,27.28,0,27.5
	c0,0.06-0.04,0.12-0.08,0.17C84.24,223.09,84.19,223.09,84.15,223.09z"/>
<path class="st4" d="M110.15,234.34c-0.08,0-0.17-0.06-0.21-0.14c-1.4-4.13-1.24-7.7-1.16-9.22c0.02-0.25,0.02-0.43,0.02-0.56
	c0-0.02,0-0.04,0-0.06c0.02-0.1,2.7-10.36,3.67-15.25c0.02-0.12,0.14-0.19,0.25-0.17c0.12,0.02,0.19,0.12,0.17,0.25
	c-0.95,4.77-3.51,14.65-3.67,15.23c0,0.14,0,0.33-0.02,0.56c-0.06,1.51-0.23,5.01,1.13,9.08c0.04,0.1-0.02,0.23-0.12,0.27
	C110.19,234.34,110.17,234.34,110.15,234.34z"/>
<path class="st4" d="M67.13,216.99c-0.02,0.06-2.13,6.4-3.61,10.46c-1.42,3.88-5.14,11.9-8.4,17.62c-2.62,4.58-6.19,9.2-7.74,10.91
	c-0.1-0.1-0.21-0.19-0.31-0.27c1.49-1.63,5.08-6.25,7.68-10.85c3.26-5.71,6.95-13.7,8.38-17.56c1.49-4.06,3.59-10.38,3.61-10.44
	c0.04-0.1,0.17-0.17,0.27-0.14C67.11,216.76,67.17,216.88,67.13,216.99z"/>
<path class="st24" d="M39.03,304.96c4.44,1.61,9.22,1.96,9.51,1.98h0.02c0.06,0,0.1-0.02,0.14-0.06c0.04-0.04,0.06-0.08,0.06-0.14
	c0.04-0.58,0.52-9.68,0.85-16.05c0-0.14,0.02-0.29,0.02-0.43c0.17-3.14,0.27-5.53,0.27-5.74c0.02-1.18-4.11-2.68-7.8-3.8"/>
<path class="st24" d="M41.86,281.11c3.94,1.18,7.63,2.58,7.63,3.42c0,0.18-0.1,2.54-0.27,5.63c-0.02,0.12-0.02,0.27-0.02,0.41
	c-0.31,5.98-0.74,14.44-0.83,15.91c-1.46-0.12-9.92-1.01-14.11-4.64"/>
<path class="st24" d="M36.1,285.28c0.08,0.04,8.81,3.88,13.66,4.99c0.12,0.02,0.19,0.14,0.17,0.25c-0.04,0.1-0.12,0.17-0.23,0.17
	c-0.02,0-0.04,0-0.04,0c-4.91-1.11-13.66-4.97-13.74-5.01"/>
<path class="st24" d="M41.69,280.58c0.14-1.2,0.85-6.33,2.43-13.33c1.11-4.89,2.29-9,3.05-11.45c0.1,0.1,0.23,0.21,0.35,0.31
	c-0.74,2.46-1.9,6.48-2.97,11.24c-1.63,7.12-2.31,12.32-2.46,13.35"/>
<path class="st24" d="M36.93,369.01c0.5,12.73,6.4,37.86,7.55,42.71l-0.04-0.02L44,411.57c-1.28-5.41-7.02-29.98-7.51-42.57"/>
<path class="st24" d="M98.93,294.85c-0.21-1.01-0.23-2.25-0.23-2.25s0,1.26-0.21,2.27c0.04-2.08,0.06-5.05-0.06-6.87
	c0-0.12,0.08-0.21,0.21-0.23s0.23,0.08,0.23,0.21C98.99,289.78,98.95,292.75,98.93,294.85z"/>
<path class="st24" d="M101.11,295.16c-0.08-1.15-0.02-2.52-0.02-2.52s-0.1,0.54-0.27,1.2c0.19-1.92,0.39-4.35,0.33-5.86
	c0-0.12,0.08-0.21,0.21-0.23c0.12,0,0.21,0.08,0.23,0.21C101.67,289.86,101.34,293.18,101.11,295.16z"/>
<path class="st24" d="M104.33,289.45c-0.06,2.08-0.56,4.91-0.87,6.54c-0.12-0.95,0.08-2.39,0.08-2.39s-0.06,0.14-0.17,0.39
	c0.23-1.46,0.47-3.18,0.52-4.56c0-0.12,0.08-0.21,0.21-0.21S104.33,289.32,104.33,289.45z"/>
<path class="st9" d="M136.15,292.5c-0.02,0.06-0.04,0.1-0.08,0.14c-0.04,0.02-3.55,2.54-5.06,6.19s-1.53,6.5-1.53,6.52
	c0,0.04-0.02,0.08-0.04,0.1c-0.02,0.02-0.04,0.06-0.06,0.08c-0.04,0.02-0.08,0.04-0.1,0.04c-0.02,0-0.06-0.02-0.08-0.02
	c-0.21-0.1-4.52-2.15-10.98-11.22c-0.56-1.01-1.13-2.11-1.69-3.26c6.54,10.03,11.37,13.25,12.57,13.95c0.04-0.8,0.27-2.95,1.3-5.7
	c0.08-0.21,0.17-0.43,0.25-0.64c1.38-3.32,4.29-5.69,5.03-6.25c-2.37-3.34-6.89-15.1-9.43-24.57c-2.58-9.66-9.37-10.92-9.43-10.92
	c-0.12-0.02-0.19-0.12-0.17-0.25c0.02-0.12,0.12-0.21,0.25-0.17c0.06,0.02,7.12,1.3,9.78,11.22c2.56,9.59,7.16,21.54,9.47,24.59
	C136.15,292.38,136.15,292.44,136.15,292.5z"/>
<path class="st9" d="M171.32,290.69c-0.08,0-0.15-0.04-0.19-0.1c-0.02-0.04-2-3.12-4.68-6.09c-0.04-0.04-0.06-0.1-0.06-0.14
	c0-0.04,0.04-4.17-4.02-10.63c-4.08-6.48-5.86-7.94-5.88-7.94c-0.08-0.08-0.1-0.21-0.04-0.29c0.06-0.08,0.21-0.1,0.29-0.04
	c0.08,0.06,1.86,1.51,5.98,8.05c3.86,6.13,4.07,10.13,4.09,10.77c2.17,2.39,3.86,4.85,4.46,5.74c0.52-1.2,2.37-4.77,6.58-5.86
	c0.12-0.04,0.23,0.04,0.25,0.15c0.02,0.12-0.04,0.23-0.14,0.25c-4.83,1.28-6.42,5.94-6.44,5.98c-0.02,0.08-0.1,0.12-0.17,0.14
	C171.35,290.69,171.35,290.69,171.32,290.69z"/>
<path class="st9" d="M161.28,313.81c-4.81,0-14.9-0.21-20.65-1.73c-7.76-2.06-11.51-6.54-11.55-6.58c-0.08-0.1-0.06-0.25,0.04-0.33
	c0.1-0.08,0.25-0.06,0.33,0.02c0.04,0.04,3.71,4.39,11.31,6.42c7.65,2.02,23.07,1.69,23.23,1.69c0.12,0.02,0.25,0.1,0.25,0.23
	s-0.1,0.25-0.23,0.25C163.94,313.79,162.91,313.81,161.28,313.81z"/>
<path class="st24" d="M223.36,294.09c-0.06,0-0.1-0.02-0.15-0.06c-1.32-1.2-4.21-2.52-4.25-2.54c-0.1-0.04-0.14-0.17-0.1-0.29
	c0.04-0.1,0.16-0.14,0.27-0.1c0.12,0.06,2.99,1.36,4.35,2.6c0.08,0.08,0.08,0.21,0.02,0.31
	C223.46,294.05,223.4,294.09,223.36,294.09z"/>
<path class="st24" d="M226.39,292.91c-0.06,0-0.12-0.02-0.17-0.06c-0.82-0.89-2.33-1.79-3.44-2.43c-0.79-0.45-1.16-0.68-1.28-0.85
	c-0.06-0.1-0.04-0.23,0.04-0.29c0.1-0.06,0.23-0.04,0.29,0.04c0.08,0.1,0.64,0.43,1.16,0.74c1.13,0.66,2.68,1.59,3.55,2.52
	c0.08,0.08,0.08,0.23-0.02,0.29C226.49,292.91,226.45,292.91,226.39,292.91z"/>
<path class="st24" d="M185.35,307.27c-0.14,0.06-0.33,0.14-0.58,0.25c-2.19-0.68-5.32-0.8-5.34-0.8c-0.12,0-0.21-0.1-0.21-0.23
	c0-0.12,0.1-0.21,0.23-0.21C179.6,306.28,183.12,306.43,185.35,307.27z"/>
<path class="st9" d="M177.31,300.61c-0.1,0-0.21-0.06-0.25-0.19c-1.69-5.18-5.88-9.72-5.92-9.78c-0.1-0.1-0.08-0.27,0.02-0.37
	s0.27-0.08,0.37,0.02c0.04,0.04,4.31,4.68,6.04,9.96c0.04,0.14-0.02,0.29-0.17,0.33C177.37,300.61,177.35,300.61,177.31,300.61z"/>
<path class="st9" d="M187.98,300.01c-6.68,0-11.08-0.89-11.14-0.91c-0.15-0.02-0.23-0.17-0.21-0.31c0.02-0.14,0.17-0.23,0.31-0.21
	c0.06,0.02,7.24,1.46,17.15,0.64c0.15,0,0.27,0.1,0.27,0.23c0.02,0.14-0.1,0.27-0.23,0.27
	C191.94,299.95,189.85,300.01,187.98,300.01z"/>
<path class="st26" d="M138.21,326.13c-0.08,0-0.17-0.04-0.21-0.14s0.02-0.23,0.12-0.27c0.29-0.12,29.94-11.64,36.11-14.34
	c6.38-2.79,14.73-5.88,17.91-6.58c0.12-0.02,0.23,0.04,0.25,0.16c0.02,0.12-0.04,0.23-0.16,0.25c-3.14,0.72-11.47,3.78-17.83,6.56
	c-6.17,2.7-35.82,14.24-36.13,14.34C138.27,326.13,138.23,326.13,138.21,326.13z"/>
<path class="st24" d="M221.36,331.74c-0.1,0-0.19-0.06-0.21-0.16c-0.02-0.08-2.25-8.17-6.03-16.34c-3.71-8.07-6.79-9.22-6.83-9.24
	c-0.1-0.04-0.17-0.16-0.12-0.27c0.04-0.1,0.17-0.16,0.27-0.12c0.12,0.04,3.26,1.2,7.08,9.45c3.8,8.21,6.03,16.32,6.04,16.4
	c0.02,0.1-0.04,0.23-0.14,0.25C221.4,331.74,221.38,331.74,221.36,331.74z"/>
<path class="st24" d="M226.39,331.17c-0.1,0-0.21-0.08-0.21-0.21c-0.02-0.43-0.52-10.81,3.55-15.66c0.08-0.08,0.21-0.1,0.29-0.02
	c0.08,0.08,0.1,0.21,0.02,0.29c-3.94,4.7-3.44,15.25-3.44,15.35C226.62,331.06,226.51,331.17,226.39,331.17z"/>
<path class="st24" d="M237.99,379.36c0,0-1.67-5.34-2.68-8.48c-0.99-3.11-12.32-34.13-12.42-34.43c-0.04-0.12,0.02-0.27,0.15-0.31
	c0.12-0.04,0.27,0.02,0.31,0.14c0.12,0.31,11.43,31.32,12.42,34.43c1.01,3.16,2.68,8.48,2.68,8.48L237.99,379.36z"/>
<path class="st27" d="M133.26,231.76c0-2.04,1.65-3.69,3.69-3.69c2.04,0,3.69,1.65,3.69,3.69s-1.65,3.69-3.69,3.69
	C134.91,235.45,133.26,233.8,133.26,231.76z"/>
<path class="st24" d="M136.95,235.66c-2.15,0-3.9-1.75-3.9-3.9c0-2.15,1.75-3.9,3.9-3.9s3.9,1.75,3.9,3.9
	C140.85,233.91,139.12,235.66,136.95,235.66z M136.95,228.27c-1.92,0-3.49,1.57-3.49,3.49c0,1.92,1.57,3.49,3.49,3.49
	s3.49-1.57,3.49-3.49C140.44,229.84,138.87,228.27,136.95,228.27z"/>
<path class="st27" d="M144.79,229.24c0-2.04,1.65-3.69,3.69-3.69c2.04,0,3.69,1.65,3.69,3.69s-1.65,3.69-3.69,3.69
	C146.44,232.94,144.79,231.29,144.79,229.24z"/>
<path class="st24" d="M148.48,233.16c-2.15,0-3.9-1.75-3.9-3.9c0-2.15,1.75-3.9,3.9-3.9c2.15,0,3.9,1.75,3.9,3.9
	C152.38,231.41,150.63,233.16,148.48,233.16z M148.48,225.78c-1.92,0-3.49,1.57-3.49,3.49c0,1.92,1.57,3.49,3.49,3.49
	c1.92,0,3.49-1.57,3.49-3.49C151.97,227.34,150.4,225.78,148.48,225.78z"/>
<path class="st24" d="M137.51,257.49c-0.16,0-0.35-0.02-0.58-0.02c-0.12,0-0.21-0.1-0.19-0.23c0.02-0.12,0.12-0.21,0.23-0.19
	c0.45,0.04,0.91,0.06,1.05-0.08c0.12-0.12,0.1-0.47,0.08-1.01c-0.02-0.33-0.04-0.7-0.04-1.18v-5.41c0-0.12,0.1-0.21,0.21-0.21
	c0.12,0,0.21,0.1,0.21,0.21v5.41c0,0.45,0.02,0.85,0.04,1.15c0.04,0.68,0.06,1.09-0.21,1.34
	C138.15,257.43,137.88,257.49,137.51,257.49z"/>
<path class="st4" d="M88.78,277.58c-0.06,0-0.12-0.02-0.17-0.08c-1.57-1.9-6.38-10.15-10.03-16.65c-3.71-6.58-7.78-14.15-9.22-20.43
	c-1.49-6.46-2.35-20.74-2.37-20.88c0-0.12,0.08-0.23,0.21-0.23c0.1,0,0.23,0.08,0.23,0.21c0,0.14,0.89,14.38,2.35,20.8
	c1.42,6.21,5.49,13.74,9.18,20.32c3.63,6.48,8.44,14.71,9.99,16.59c0.08,0.08,0.06,0.23-0.02,0.29
	C88.88,277.56,88.82,277.58,88.78,277.58z"/>
<path class="st24" d="M99.94,411.14l-0.43-0.06c0,0-0.04-0.1-0.12-0.29c0,0,0-0.02-0.02-0.02c-4.85-14.28-7.7-27.81-8.23-39.35
	c-0.87-18.76-0.17-22.68-0.02-23.29c-1.3-2.46-19.33-36.4-24.84-46.86v-0.02c-0.93-1.77-1.51-2.87-1.57-3.01
	c-0.04-0.1,0-0.23,0.1-0.27c0.1-0.06,0.23,0,0.29,0.1c0.41,0.93,26.18,49.43,26.43,49.91c0.02,0.06,0.02,0.12,0.02,0.17
	c-0.04,0.1-0.93,2.91,0.02,23.21C92.09,383.02,94.98,396.71,99.94,411.14z"/>
<path class="st26" d="M110.54,262.36C110.54,262.36,110.52,262.36,110.54,262.36c-0.14,0-0.23-0.1-0.21-0.23
	c0.31-3.53,2.5-9.88,6.4-12.94c3.98-3.12,9.06-3.55,9.64-3.51c0.12,0,0.21,0.1,0.19,0.23c0,0.12-0.1,0.21-0.23,0.19
	c-0.14,0-5.22,0.21-9.35,3.43c-4.17,3.26-6,9.92-6.23,12.63C110.75,262.27,110.64,262.36,110.54,262.36z"/>
<path class="st4" d="M215.33,411.82c-0.37,0-0.74-0.16-0.99-0.47l-12.65-15.66c-0.14-0.18-0.25-0.39-0.27-0.62l-7.35-51.64
	c-0.1-0.7,0.39-1.34,1.07-1.45c0.7-0.1,1.34,0.39,1.45,1.09l7.3,51.29l12.42,15.39c0.43,0.56,0.35,1.36-0.18,1.79
	C215.89,411.72,215.6,411.82,215.33,411.82z"/>
<path class="st23" d="M145.39,209.87c-0.54,0.7-1.22,1.4-2.04,2.02c-0.87,0.66-1.86,1.28-2.99,1.77c-5.26,2.25-8.58,1.59-12.19,3.2
	c-2.93,1.3-4.97,3.28-4.75,5.9c0.04,0.54,0.21,1.11,0.47,1.71c0.02,0.06,0.04,0.14,0.08,0.21c1.69,3.57,3.01,3.34,3.12,7.1
	c0.08,3.12-0.62,6.02-0.62,6.02s-0.91-4.25-3.3-5.03c-0.1-0.04-0.21-0.08-0.33-0.08c-2.64-0.47-3.49,0.91-3.01,3.86
	c0.66,4.04,4.7,4.99,4.7,4.99s0.35,0.91,0.87,2.21v0.02c-0.04-0.08-4.17,0.87-7.76-5.94c-1.57-2.97-2.56-5.98-3.16-8.93
	c0.93-4.27,3.18-7.74,5.32-11.39c3.9-6.64,9.08-5.36,17.12-5.57C140.87,211.79,143.62,210.84,145.39,209.87z"/>
<path class="st28" d="M254.16,385.1c-3.07,1.32-9.68,2.7-14.2,3.55c-2.74,0.51-4.72,0.82-4.72,0.82c-0.7-1.14-1.69-7.49-1.69-7.49
	l1.98-1.13l2.68-1.55L254.16,385.1z"/>
<path class="st29" d="M239.97,388.65c-2.74,0.51-4.72,0.82-4.72,0.82c-0.7-1.14-1.69-7.49-1.69-7.49l1.98-1.13
	C236.48,383.37,238.65,386.71,239.97,388.65z"/>
<path class="st28" d="M257.84,384.38l-3.67,0.72l-11.08-4.02l-3.44-1.26v-1.36l1.63-0.23l2.64-0.37L257.84,384.38z"/>
<path class="st29" d="M243.08,381.08l-3.47-1.26v-1.36l1.65-0.23C241.74,379.01,242.34,379.98,243.08,381.08z"/>
<path class="st30" d="M74.64,173.35c-0.08,0-0.17-0.06-0.21-0.14c-0.02-0.06-0.58-1.63,0.06-2.79c0.33-0.58,0.89-0.97,1.69-1.13
	c0.1-0.02,0.23,0.04,0.25,0.16c0.02,0.12-0.06,0.23-0.17,0.25c-0.66,0.14-1.13,0.43-1.4,0.91c-0.56,0.99-0.04,2.43-0.04,2.43
	c0.04,0.1-0.02,0.23-0.12,0.27C74.7,173.35,74.68,173.35,74.64,173.35z"/>
<path class="st30" d="M87.16,172.73c-0.08,0-0.19-0.06-0.21-0.14c-0.04-0.1,0.02-0.23,0.12-0.27c0.04-0.02,0.12-0.02,0.25-0.04
	c0.5-0.08,1.84-0.27,2.33-1.09c0.25-0.41,0.25-0.95,0.02-1.61c-0.04-0.1,0.02-0.23,0.12-0.27c0.1-0.04,0.23,0.02,0.27,0.12
	c0.29,0.78,0.27,1.44-0.04,1.98c-0.6,0.99-2.02,1.2-2.64,1.3c-0.08,0.02-0.14,0.02-0.19,0.04C87.2,172.73,87.18,172.73,87.16,172.73
	z"/>
<path class="st30" d="M68.92,184.7c-0.68,0-1.3-0.14-1.67-0.21c-0.12-0.02-0.29-0.06-0.31-0.06c-0.12,0-0.21-0.1-0.21-0.21
	c0-0.12,0.1-0.21,0.21-0.21c0.08,0,0.19,0.02,0.41,0.06c0.89,0.19,2.95,0.64,3.73-0.89c0.06-0.1,0.19-0.14,0.29-0.08
	c0.1,0.06,0.14,0.19,0.08,0.29C70.91,184.43,69.85,184.7,68.92,184.7z"/>
<path class="st30" d="M105.98,145.91c-0.04,0-0.1-0.02-0.14-0.04c-0.08-0.08-0.1-0.21-0.02-0.29c0.12-0.14,2.93-3.51,5.06-2.41
	c0.1,0.06,0.14,0.19,0.08,0.29c-0.06,0.1-0.19,0.14-0.29,0.08c-1.84-0.95-4.52,2.27-4.54,2.29
	C106.1,145.89,106.04,145.91,105.98,145.91z"/>
<path class="st30" d="M121.99,148.36c-0.1,0-0.19-0.06-0.21-0.17c-0.35-1.71-1.71-2.99-1.73-2.99c-0.08-0.08-0.08-0.21-0.02-0.29
	c0.06-0.08,0.21-0.08,0.31,0c0.06,0.06,1.46,1.38,1.86,3.22c0.02,0.12-0.04,0.23-0.17,0.25
	C122.03,148.36,122.01,148.36,121.99,148.36z"/>
<path class="st30" d="M129.96,150.14c-0.12,0-0.21-0.1-0.21-0.21c0.02-0.66-0.39-1.73-2.48-3.07c-0.14-0.1-0.19-0.12-0.21-0.19
	c-0.04-0.1,0.02-0.23,0.12-0.27c0.08-0.02,0.17,0,0.21,0.04c0.02,0.02,0.04,0.04,0.08,0.06c1.79,1.18,2.7,2.33,2.66,3.45
	C130.16,150.06,130.06,150.14,129.96,150.14z"/>
<path class="st30" d="M85.47,166.19c-0.08,0-0.14-0.04-0.19-0.1c-0.41-0.7-2.62-1.71-4.33-0.89c-0.1,0.04-0.23,0-0.29-0.1
	c-0.06-0.1,0-0.23,0.1-0.29c1.88-0.93,4.35,0.17,4.89,1.05c0.06,0.1,0.02,0.23-0.08,0.29C85.56,166.19,85.51,166.19,85.47,166.19z"
	/>
<path class="st3" d="M217.79,419.8c-4.62,0-8.4-3.78-8.4-8.42c0-4.64,3.78-8.42,8.4-8.42c4.62,0,8.4,3.77,8.4,8.42
	C226.17,416.03,222.41,419.8,217.79,419.8z"/>
<path class="st1" d="M215.29,411.39c0-1.38,1.11-2.5,2.48-2.5c1.36,0,2.47,1.11,2.47,2.5c0,1.38-1.11,2.5-2.47,2.5
	C216.41,413.88,215.29,412.77,215.29,411.39z"/>
<path class="st3" d="M244.13,419.8c-4.21,0-7.65-3.78-7.65-8.42c0-4.64,3.43-8.42,7.65-8.42c4.21,0,7.65,3.77,7.65,8.42
	C251.79,416.03,248.34,419.8,244.13,419.8z"/>
<path class="st1" d="M241.86,411.39c0-1.38,1.01-2.5,2.27-2.5c1.26,0,2.27,1.11,2.27,2.5c0,1.38-1.01,2.5-2.27,2.5
	C242.87,413.88,241.86,412.77,241.86,411.39z"/>
<path class="st5" d="M202.69,396.16c-0.62,0-1.15-0.43-1.26-1.05c-0.12-0.7,0.35-1.36,1.03-1.47l56.43-9.72
	c0.7-0.12,1.36,0.35,1.46,1.03c0.12,0.7-0.35,1.36-1.03,1.46l-56.43,9.72C202.83,396.16,202.75,396.16,202.69,396.16z"/>
<path class="st24" d="M132,254.81c-0.04,0-0.08-0.02-0.12-0.04c-0.14-0.1-0.29-0.21-0.45-0.31c-1.09-0.72-2.6-1.71-3.69-4.62
	c-0.68-1.84-1.65-4.09-2.37-5.74c-0.64-1.51-0.99-2.31-1.03-2.52c-0.02-0.12,0.04-0.23,0.17-0.25c0.1-0.02,0.23,0.04,0.25,0.16
	c0.04,0.19,0.5,1.24,1.01,2.46c0.7,1.65,1.69,3.92,2.37,5.76c1.05,2.79,2.41,3.69,3.53,4.41c0.17,0.1,0.31,0.21,0.45,0.31
	c0.1,0.06,0.12,0.21,0.04,0.29C132.12,254.76,132.06,254.81,132,254.81z"/>
<path class="st4" d="M130.93,351.98c-0.64,0-1.18-0.47-1.26-1.11c-0.08-0.7,0.41-1.34,1.11-1.42c9.62-1.2,54.66-6.75,63.34-7.41
	c0.02-2.76-0.35-9.86-4.89-11.68c-6.09-2.43-14.44,0.04-14.52,0.06c-0.68,0.21-1.38-0.17-1.59-0.85c-0.21-0.68,0.17-1.38,0.85-1.59
	c0.37-0.1,9.29-2.76,16.22,0c7.39,2.95,6.48,14.86,6.44,15.35c-0.02,0.35-0.18,0.66-0.45,0.89c-0.27,0.23-0.62,0.31-0.95,0.29
	c-0.02,0-0.04,0-0.06,0c-2.66,0-39.61,4.46-64.04,7.47C131.03,351.98,130.97,351.98,130.93,351.98z"/>
<path class="st4" d="M176.13,345.88c-0.62,0-1.18-0.45-1.26-1.09l-2.99-20.47c-0.87-5.88-1.79-8.98-12.13-9.24
	c-11.02-0.27-34.44,3.74-34.66,3.78c-0.7,0.12-1.36-0.35-1.46-1.03c-0.12-0.7,0.35-1.36,1.03-1.46c0.97-0.17,23.89-4.11,35.18-3.82
	c12.07,0.31,13.6,4.72,14.59,11.41l2.99,20.47c0.1,0.7-0.39,1.34-1.07,1.44C176.26,345.88,176.19,345.88,176.13,345.88z"/>
<path class="st1" d="M126.98,379.14c-0.06,0-0.14-0.02-0.21-0.04c-0.23-0.08-0.41-0.29-0.43-0.54c-0.02-0.1-1.09-9.74-2.1-19.29
	c-2.08-19.68-1.88-19.85-1.46-20.16c0.27-0.23,0.68-0.17,0.89,0.1c0.14,0.19,0.17,0.41,0.1,0.62c-0.17,1.73,2.06,22.63,3.69,37.22
	l26.66-28.14c0.25-0.25,0.64-0.27,0.91-0.02c0.25,0.25,0.27,0.64,0.02,0.91l-27.61,29.13C127.33,379.07,127.17,379.14,126.98,379.14
	z"/>
<path class="st1" d="M138.87,412.97c-0.27,0-0.52-0.16-0.6-0.43l-11.86-33.84c-0.08-0.21-0.04-0.45,0.12-0.62
	c0.14-0.16,0.37-0.25,0.6-0.23l37.8,6.52c0.35,0.06,0.58,0.39,0.52,0.74c-0.06,0.35-0.39,0.58-0.74,0.52l-36.73-6.33l11.51,32.81
	c0.12,0.33-0.06,0.7-0.39,0.8C138.99,412.95,138.93,412.97,138.87,412.97z"/>
<path class="st1" d="M103.86,403.59c-0.17,0-0.31-0.06-0.43-0.19c-0.25-0.25-0.27-0.64-0.02-0.91l22.53-23.81l-31.22-15.14
	c-0.31-0.14-0.45-0.54-0.29-0.85c0.14-0.31,0.54-0.45,0.85-0.29l32,15.54c0.19,0.08,0.31,0.27,0.35,0.45
	c0.04,0.21-0.02,0.41-0.17,0.56l-23.13,24.45C104.19,403.52,104.02,403.59,103.86,403.59z"/>
<path class="st1" d="M126.98,383.7c2.87,0,5.2-2.33,5.2-5.2c0-2.87-2.33-5.2-5.2-5.2c-2.87,0-5.2,2.33-5.2,5.2
	C121.79,381.37,124.11,383.7,126.98,383.7z"/>
<path class="st2" d="M129.25,332.65c-24.08,0-43.6,19.52-43.6,43.6s19.52,43.6,43.6,43.6c24.08,0,43.6-19.52,43.6-43.6
	S153.33,332.65,129.25,332.65z M129.25,414.4c-21.07,0-38.15-17.08-38.15-38.15c0-21.07,17.08-38.15,38.15-38.15
	c21.07,0,38.15,17.08,38.15,38.15C167.38,397.33,150.32,414.4,129.25,414.4z"/>
<path class="st3" d="M129.4,414.17c-20.88,0-37.86-16.98-37.86-37.86c0-20.88,16.98-37.86,37.86-37.86
	c20.88,0,37.86,16.98,37.86,37.86C167.26,397.19,150.26,414.17,129.4,414.17z M129.4,340.37c-19.83,0-35.94,16.13-35.94,35.94
	c0,19.83,16.13,35.94,35.94,35.94c19.83,0,35.94-16.13,35.94-35.94C165.34,356.5,149.21,340.37,129.4,340.37z"/>
</svg>
