<svg width="114" height="28" viewBox="0 0 114 28" fill="none" xmlns="http://www.w3.org/2000/svg">
<path d="M0.765 2.22H16.76V6.21H5.175V12.72H16.095V16.71H5.175V27H0.765V2.22ZM23.8377 20.07C23.9777 21.33 24.4677 22.31 25.3077 23.01C26.1477 23.71 27.1627 24.06 28.3527 24.06C29.4027 24.06 30.2777 23.85 30.9777 23.43C31.701 22.9867 32.331 22.4383 32.8677 21.785L35.8777 24.06C34.8977 25.2733 33.801 26.1367 32.5877 26.65C31.3743 27.1633 30.1027 27.42 28.7727 27.42C27.5127 27.42 26.3227 27.21 25.2027 26.79C24.0827 26.37 23.1143 25.775 22.2977 25.005C21.481 24.235 20.8277 23.3133 20.3377 22.24C19.871 21.1433 19.6377 19.93 19.6377 18.6C19.6377 17.27 19.871 16.0683 20.3377 14.995C20.8277 13.8983 21.481 12.965 22.2977 12.195C23.1143 11.425 24.0827 10.83 25.2027 10.41C26.3227 9.99 27.5127 9.78 28.7727 9.78C29.9393 9.78 31.001 9.99 31.9577 10.41C32.9377 10.8067 33.766 11.39 34.4427 12.16C35.1427 12.93 35.6793 13.8867 36.0527 15.03C36.4493 16.15 36.6477 17.445 36.6477 18.915V20.07H23.8377ZM32.4477 16.92C32.4243 15.6833 32.0393 14.715 31.2927 14.015C30.546 13.2917 29.5077 12.93 28.1777 12.93C26.9177 12.93 25.9143 13.2917 25.1677 14.015C24.4443 14.7383 24.001 15.7067 23.8377 16.92H32.4477ZM40.5753 0.539999H44.7753V12.335H44.8803C45.0903 12.055 45.3586 11.775 45.6853 11.495C46.012 11.1917 46.4086 10.9117 46.8753 10.655C47.342 10.3983 47.8786 10.1883 48.4853 10.025C49.092 9.86167 49.792 9.78 50.5853 9.78C51.7753 9.78 52.872 10.0133 53.8753 10.48C54.8786 10.9233 55.7303 11.5417 56.4303 12.335C57.1536 13.1283 57.7136 14.0617 58.1103 15.135C58.507 16.2083 58.7053 17.3633 58.7053 18.6C58.7053 19.8367 58.5186 20.9917 58.1453 22.065C57.772 23.1383 57.2236 24.0717 56.5003 24.865C55.777 25.6583 54.902 26.2883 53.8753 26.755C52.8486 27.1983 51.6936 27.42 50.4103 27.42C49.2203 27.42 48.112 27.1867 47.0853 26.72C46.0586 26.2533 45.242 25.5067 44.6353 24.48H44.5653V27H40.5753V0.539999ZM54.5053 18.6C54.5053 17.9467 54.3886 17.3167 54.1553 16.71C53.9453 16.1033 53.6186 15.5667 53.1753 15.1C52.7553 14.6333 52.242 14.26 51.6353 13.98C51.0286 13.7 50.3403 13.56 49.5703 13.56C48.8003 13.56 48.112 13.7 47.5053 13.98C46.8986 14.26 46.3736 14.6333 45.9303 15.1C45.5103 15.5667 45.1836 16.1033 44.9503 16.71C44.7403 17.3167 44.6353 17.9467 44.6353 18.6C44.6353 19.2533 44.7403 19.8833 44.9503 20.49C45.1836 21.0967 45.5103 21.6333 45.9303 22.1C46.3736 22.5667 46.8986 22.94 47.5053 23.22C48.112 23.5 48.8003 23.64 49.5703 23.64C50.3403 23.64 51.0286 23.5 51.6353 23.22C52.242 22.94 52.7553 22.5667 53.1753 22.1C53.6186 21.6333 53.9453 21.0967 54.1553 20.49C54.3886 19.8833 54.5053 19.2533 54.5053 18.6ZM62.6212 0.539999H66.8212V12.335H66.9262C67.1362 12.055 67.4045 11.775 67.7312 11.495C68.0579 11.1917 68.4545 10.9117 68.9212 10.655C69.3879 10.3983 69.9245 10.1883 70.5312 10.025C71.1379 9.86167 71.8379 9.78 72.6312 9.78C73.8212 9.78 74.9179 10.0133 75.9212 10.48C76.9245 10.9233 77.7762 11.5417 78.4762 12.335C79.1995 13.1283 79.7595 14.0617 80.1562 15.135C80.5529 16.2083 80.7512 17.3633 80.7512 18.6C80.7512 19.8367 80.5645 20.9917 80.1912 22.065C79.8179 23.1383 79.2695 24.0717 78.5462 24.865C77.8229 25.6583 76.9479 26.2883 75.9212 26.755C74.8945 27.1983 73.7395 27.42 72.4562 27.42C71.2662 27.42 70.1579 27.1867 69.1312 26.72C68.1045 26.2533 67.2879 25.5067 66.6812 24.48H66.6112V27H62.6212V0.539999ZM76.5512 18.6C76.5512 17.9467 76.4345 17.3167 76.2012 16.71C75.9912 16.1033 75.6645 15.5667 75.2212 15.1C74.8012 14.6333 74.2879 14.26 73.6812 13.98C73.0745 13.7 72.3862 13.56 71.6162 13.56C70.8462 13.56 70.1579 13.7 69.5512 13.98C68.9445 14.26 68.4195 14.6333 67.9762 15.1C67.5562 15.5667 67.2295 16.1033 66.9962 16.71C66.7862 17.3167 66.6812 17.9467 66.6812 18.6C66.6812 19.2533 66.7862 19.8833 66.9962 20.49C67.2295 21.0967 67.5562 21.6333 67.9762 22.1C68.4195 22.5667 68.9445 22.94 69.5512 23.22C70.1579 23.5 70.8462 23.64 71.6162 23.64C72.3862 23.64 73.0745 23.5 73.6812 23.22C74.2879 22.94 74.8012 22.5667 75.2212 22.1C75.6645 21.6333 75.9912 21.0967 76.2012 20.49C76.4345 19.8833 76.5512 19.2533 76.5512 18.6ZM84.6671 10.2H88.8671V12.86H88.9371C89.4038 11.88 90.0688 11.1217 90.9321 10.585C91.7954 10.0483 92.7871 9.78 93.9071 9.78C94.1638 9.78 94.4088 9.80333 94.6421 9.85C94.8988 9.89667 95.1554 9.955 95.4121 10.025V14.085C95.0621 13.9917 94.7121 13.9217 94.3621 13.875C94.0354 13.805 93.7088 13.77 93.3821 13.77C92.4021 13.77 91.6088 13.9567 91.0021 14.33C90.4188 14.68 89.9638 15.0883 89.6371 15.555C89.3338 16.0217 89.1238 16.4883 89.0071 16.955C88.9138 17.4217 88.8671 17.7717 88.8671 18.005V27H84.6671V10.2ZM101.015 20.07C101.155 21.33 101.645 22.31 102.485 23.01C103.325 23.71 104.34 24.06 105.53 24.06C106.58 24.06 107.455 23.85 108.155 23.43C108.879 22.9867 109.509 22.4383 110.045 21.785L113.055 24.06C112.075 25.2733 110.979 26.1367 109.765 26.65C108.552 27.1633 107.28 27.42 105.95 27.42C104.69 27.42 103.5 27.21 102.38 26.79C101.26 26.37 100.292 25.775 99.4754 25.005C98.6587 24.235 98.0054 23.3133 97.5154 22.24C97.0487 21.1433 96.8154 19.93 96.8154 18.6C96.8154 17.27 97.0487 16.0683 97.5154 14.995C98.0054 13.8983 98.6587 12.965 99.4754 12.195C100.292 11.425 101.26 10.83 102.38 10.41C103.5 9.99 104.69 9.78 105.95 9.78C107.117 9.78 108.179 9.99 109.135 10.41C110.115 10.8067 110.944 11.39 111.62 12.16C112.32 12.93 112.857 13.8867 113.23 15.03C113.627 16.15 113.825 17.445 113.825 18.915V20.07H101.015ZM109.625 16.92C109.602 15.6833 109.217 14.715 108.47 14.015C107.724 13.2917 106.685 12.93 105.355 12.93C104.095 12.93 103.092 13.2917 102.345 14.015C101.622 14.7383 101.179 15.7067 101.015 16.92H109.625Z" fill="white"/>
</svg>
