<svg width="90" height="26" viewBox="0 0 90 26" fill="none" xmlns="http://www.w3.org/2000/svg">
<path d="M0.765 0.22H16.76V4.21H5.175V10.72H16.095V14.71H5.175V25H0.765V0.22ZM23.8377 18.07C23.9777 19.33 24.4677 20.31 25.3077 21.01C26.1477 21.71 27.1627 22.06 28.3527 22.06C29.4027 22.06 30.2777 21.85 30.9777 21.43C31.701 20.9867 32.331 20.4383 32.8677 19.785L35.8777 22.06C34.8977 23.2733 33.801 24.1367 32.5877 24.65C31.3743 25.1633 30.1027 25.42 28.7727 25.42C27.5127 25.42 26.3227 25.21 25.2027 24.79C24.0827 24.37 23.1143 23.775 22.2977 23.005C21.481 22.235 20.8277 21.3133 20.3377 20.24C19.871 19.1433 19.6377 17.93 19.6377 16.6C19.6377 15.27 19.871 14.0683 20.3377 12.995C20.8277 11.8983 21.481 10.965 22.2977 10.195C23.1143 9.425 24.0827 8.83 25.2027 8.41C26.3227 7.99 27.5127 7.78 28.7727 7.78C29.9393 7.78 31.001 7.99 31.9577 8.41C32.9377 8.80667 33.766 9.39 34.4427 10.16C35.1427 10.93 35.6793 11.8867 36.0527 13.03C36.4493 14.15 36.6477 15.445 36.6477 16.915V18.07H23.8377ZM32.4477 14.92C32.4243 13.6833 32.0393 12.715 31.2927 12.015C30.546 11.2917 29.5077 10.93 28.1777 10.93C26.9177 10.93 25.9143 11.2917 25.1677 12.015C24.4443 12.7383 24.001 13.7067 23.8377 14.92H32.4477ZM38.3003 8.2H42.8853L47.3653 19.96H47.4353L51.9503 8.2H56.2553L49.6403 25H45.1603L38.3003 8.2ZM62.0847 18.07C62.2247 19.33 62.7147 20.31 63.5547 21.01C64.3947 21.71 65.4097 22.06 66.5997 22.06C67.6497 22.06 68.5247 21.85 69.2247 21.43C69.9481 20.9867 70.5781 20.4383 71.1147 19.785L74.1247 22.06C73.1447 23.2733 72.0481 24.1367 70.8347 24.65C69.6214 25.1633 68.3497 25.42 67.0197 25.42C65.7597 25.42 64.5697 25.21 63.4497 24.79C62.3297 24.37 61.3614 23.775 60.5447 23.005C59.7281 22.235 59.0747 21.3133 58.5847 20.24C58.1181 19.1433 57.8847 17.93 57.8847 16.6C57.8847 15.27 58.1181 14.0683 58.5847 12.995C59.0747 11.8983 59.7281 10.965 60.5447 10.195C61.3614 9.425 62.3297 8.83 63.4497 8.41C64.5697 7.99 65.7597 7.78 67.0197 7.78C68.1864 7.78 69.2481 7.99 70.2047 8.41C71.1847 8.80667 72.0131 9.39 72.6897 10.16C73.3897 10.93 73.9264 11.8867 74.2997 13.03C74.6964 14.15 74.8947 15.445 74.8947 16.915V18.07H62.0847ZM70.6947 14.92C70.6714 13.6833 70.2864 12.715 69.5397 12.015C68.7931 11.2917 67.7547 10.93 66.4247 10.93C65.1647 10.93 64.1614 11.2917 63.4147 12.015C62.6914 12.7383 62.2481 13.7067 62.0847 14.92H70.6947ZM78.8224 8.2H83.0224V10.86H83.0924C83.559 9.88 84.224 9.12167 85.0874 8.585C85.9507 8.04833 86.9424 7.78 88.0624 7.78C88.3191 7.78 88.5641 7.80333 88.7974 7.85C89.0541 7.89667 89.3107 7.955 89.5674 8.025V12.085C89.2174 11.9917 88.8674 11.9217 88.5174 11.875C88.1907 11.805 87.8641 11.77 87.5374 11.77C86.5574 11.77 85.764 11.9567 85.1574 12.33C84.574 12.68 84.119 13.0883 83.7924 13.555C83.489 14.0217 83.279 14.4883 83.1624 14.955C83.069 15.4217 83.0224 15.7717 83.0224 16.005V25H78.8224V8.2Z" fill="white"/>
</svg>
