<svg width="31" height="31" viewBox="0 0 31 31" fill="none" xmlns="http://www.w3.org/2000/svg">
<path d="M8.54 30.35C6.97667 30.35 5.775 29.9883 4.935 29.265C4.095 28.5183 3.675 27.3867 3.675 25.87V9.21C3.675 7.90333 3.85 6.935 4.2 6.305C4.57333 5.675 4.99333 5.185 5.46 4.835L5.425 4.695H0L0.98 0.914999H12.11V4.695C11.2467 4.695 10.5 4.975 9.87 5.535C9.24 6.095 8.925 7.12167 8.925 8.615V25.24C8.925 26.1033 9.33333 26.535 10.15 26.535C10.5 26.535 10.8967 26.4533 11.34 26.29L11.83 29.65C10.9433 30.1167 9.84667 30.35 8.54 30.35ZM21.3309 30.455C18.7175 30.455 16.7459 29.8717 15.4159 28.705C14.0859 27.5383 13.4209 25.835 13.4209 23.595V22.195C13.4209 21.2383 13.5492 20.4567 13.8059 19.85C14.0625 19.22 14.3775 18.6483 14.7509 18.135C15.1242 17.6217 15.4275 17.1667 15.6609 16.77C15.9175 16.35 16.0459 15.9183 16.0459 15.475C16.0459 15.055 15.9409 14.7633 15.7309 14.6C15.5442 14.4133 15.2875 14.32 14.9609 14.32C14.5409 14.32 14.0275 14.46 13.4209 14.74L12.5809 11.45C13.2342 11.1 13.9342 10.8667 14.6809 10.75C15.4509 10.61 16.1275 10.54 16.7109 10.54C18.2509 10.54 19.3359 10.9133 19.9659 11.66C20.6192 12.3833 20.9459 13.3633 20.9459 14.6C20.9459 15.3233 20.8409 15.965 20.6309 16.525C20.4209 17.0617 20.1525 17.6217 19.8259 18.205C19.5225 18.7417 19.2425 19.2433 18.9859 19.71C18.7525 20.1767 18.6359 20.8533 18.6359 21.74V23.14C18.6359 24.2833 18.8692 25.1117 19.3359 25.625C19.8259 26.115 20.5025 26.36 21.3659 26.36C23.1625 26.36 24.0609 25.345 24.0609 23.315V10.82H29.2759V23.455C29.2759 25.765 28.5992 27.515 27.2459 28.705C25.8925 29.8717 23.9209 30.455 21.3309 30.455ZM18.6914 8.195V6.445C19.018 6.35167 19.3797 6.22333 19.7764 6.06C20.173 5.89667 20.523 5.675 20.8264 5.395C21.1297 5.115 21.2814 4.765 21.2814 4.345C21.2814 4.01833 21.188 3.76167 21.0014 3.575C20.8147 3.38833 20.5814 3.295 20.3014 3.295C20.1147 3.295 19.9164 3.33 19.7064 3.4C19.4964 3.47 19.3097 3.54 19.1464 3.61L18.4814 1.265C18.948 0.868331 19.5314 0.611665 20.2314 0.494998C20.908 0.354999 21.4797 0.284999 21.9464 0.284999C22.9964 0.284999 23.8247 0.529998 24.4314 1.02C25.0147 1.51 25.3064 2.23333 25.3064 3.19C25.3064 3.79667 25.1314 4.33333 24.7814 4.8H30.1364V8.195H18.6914Z" fill="white"/>
</svg>
