<svg width="74" height="34" viewBox="0 0 74 34" fill="none" xmlns="http://www.w3.org/2000/svg">
<path d="M10.78 0.22H14.595L25.27 25H20.23L17.92 19.33H7.175L4.935 25H0L10.78 0.22ZM16.38 15.55L12.565 5.47L8.68 15.55H16.38ZM25.6788 11.77V8.2H29.1438V3.335H33.3438V8.2H37.9638V11.77H33.3438V19.12C33.3438 19.96 33.4955 20.625 33.7988 21.115C34.1255 21.605 34.7555 21.85 35.6888 21.85C36.0621 21.85 36.4705 21.815 36.9138 21.745C37.3571 21.6517 37.7071 21.5117 37.9638 21.325V24.86C37.5205 25.07 36.9721 25.21 36.3188 25.28C35.6888 25.3733 35.1288 25.42 34.6388 25.42C33.5188 25.42 32.5971 25.2917 31.8738 25.035C31.1738 24.8017 30.6138 24.44 30.1938 23.95C29.7971 23.4367 29.5171 22.8067 29.3538 22.06C29.2138 21.3133 29.1438 20.45 29.1438 19.47V11.77H25.6788ZM44.6023 18.07C44.7423 19.33 45.2323 20.31 46.0723 21.01C46.9123 21.71 47.9273 22.06 49.1173 22.06C50.1673 22.06 51.0423 21.85 51.7423 21.43C52.4656 20.9867 53.0956 20.4383 53.6323 19.785L56.6423 22.06C55.6623 23.2733 54.5656 24.1367 53.3523 24.65C52.139 25.1633 50.8673 25.42 49.5373 25.42C48.2773 25.42 47.0873 25.21 45.9673 24.79C44.8473 24.37 43.879 23.775 43.0623 23.005C42.2456 22.235 41.5923 21.3133 41.1023 20.24C40.6356 19.1433 40.4023 17.93 40.4023 16.6C40.4023 15.27 40.6356 14.0683 41.1023 12.995C41.5923 11.8983 42.2456 10.965 43.0623 10.195C43.879 9.425 44.8473 8.83 45.9673 8.41C47.0873 7.99 48.2773 7.78 49.5373 7.78C50.704 7.78 51.7656 7.99 52.7223 8.41C53.7023 8.80667 54.5306 9.39 55.2073 10.16C55.9073 10.93 56.444 11.8867 56.8173 13.03C57.214 14.15 57.4123 15.445 57.4123 16.915V18.07H44.6023ZM53.2123 14.92C53.189 13.6833 52.804 12.715 52.0573 12.015C51.3106 11.2917 50.2723 10.93 48.9423 10.93C47.6823 10.93 46.679 11.2917 45.9323 12.015C45.209 12.7383 44.7656 13.7067 44.6023 14.92H53.2123ZM70.3 12.855C69.5066 11.7117 68.41 11.14 67.01 11.14C66.45 11.14 65.9016 11.28 65.365 11.56C64.8283 11.84 64.56 12.295 64.56 12.925C64.56 13.4383 64.7816 13.8117 65.225 14.045C65.6683 14.2783 66.2283 14.4767 66.905 14.64C67.5816 14.8033 68.305 14.9783 69.075 15.165C69.8683 15.3283 70.6033 15.5967 71.28 15.97C71.9566 16.32 72.5166 16.81 72.96 17.44C73.4033 18.07 73.625 18.9333 73.625 20.03C73.625 20.87 73.4733 21.5933 73.17 22.2C72.8666 22.8067 72.4583 23.3317 71.945 23.775C71.4316 24.195 70.8366 24.5333 70.16 24.79C69.5066 25.0233 68.8183 25.1867 68.095 25.28L66.835 27.1C67.3483 27.1 67.85 27.1233 68.34 27.17C68.8533 27.2167 69.3083 27.3333 69.705 27.52C70.125 27.73 70.4516 28.0217 70.685 28.395C70.9416 28.7917 71.07 29.3283 71.07 30.005C71.07 30.635 70.9066 31.1717 70.58 31.615C70.2766 32.0583 69.8916 32.4083 69.425 32.665C68.9583 32.9217 68.4333 33.1083 67.85 33.225C67.2666 33.3417 66.7183 33.4 66.205 33.4C64.875 33.4 63.6383 33.0733 62.495 32.42L63.265 30.81C64.1516 31.2767 65.1083 31.51 66.135 31.51C66.3216 31.51 66.5316 31.4867 66.765 31.44C66.9983 31.3933 67.2083 31.3117 67.395 31.195C67.605 31.1017 67.78 30.95 67.92 30.74C68.06 30.5533 68.13 30.32 68.13 30.04C68.13 29.5733 67.92 29.2467 67.5 29.06C67.1033 28.8733 66.7183 28.78 66.345 28.78C66.1116 28.78 65.89 28.8033 65.68 28.85C65.47 28.8967 65.26 28.955 65.05 29.025L64.105 28.15L65.96 25.42C64.7466 25.3733 63.6266 25.1633 62.6 24.79C61.5733 24.3933 60.6516 23.74 59.835 22.83L62.635 20.205C63.1716 20.8117 63.7433 21.3133 64.35 21.71C64.98 22.0833 65.7383 22.27 66.625 22.27C66.9283 22.27 67.2433 22.235 67.57 22.165C67.8966 22.095 68.2 21.9783 68.48 21.815C68.76 21.6517 68.9816 21.4533 69.145 21.22C69.3316 20.9633 69.425 20.6717 69.425 20.345C69.425 19.7617 69.2033 19.33 68.76 19.05C68.3166 18.77 67.7566 18.5483 67.08 18.385C66.4033 18.1983 65.6683 18.035 64.875 17.895C64.105 17.7317 63.3816 17.4867 62.705 17.16C62.0283 16.81 61.4683 16.3317 61.025 15.725C60.5816 15.1183 60.36 14.2783 60.36 13.205C60.36 12.2717 60.5466 11.4667 60.92 10.79C61.3166 10.09 61.83 9.51833 62.46 9.075C63.09 8.63167 63.8133 8.305 64.63 8.095C65.4466 7.885 66.275 7.78 67.115 7.78C68.235 7.78 69.3433 7.97833 70.44 8.375C71.5366 8.74833 72.4233 9.40167 73.1 10.335L70.3 12.855Z" fill="white"/>
</svg>
